SplineFontDB: 3.2
FontName: Khaanaa-red
FullName: Khaanaa Red
FamilyName: Khaanaa
Weight: Regular
Copyright: Copyright 2024 The Khaanaa Font Authors
UComments: "2024-7-22: Created with FontForge (http://fontforge.org)"
Version: 0.001
ItalicAngle: 0
UnderlinePosition: -102
UnderlineWidth: 51
Ascent: 819
Descent: 205
InvalidEm: 0
UFOAscent: 819
UFODescent: -205
LayerCount: 2
Layer: 0 0 "Back" 1
Layer: 1 0 "public.default" 0 "glyphs"
StyleMap: 0x0040
FSType: 0
OS2Version: 0
OS2_WeightWidthSlopeOnly: 0
OS2_UseTypoMetrics: 0
CreationTime: 1732813800
ModificationTime: 1733761286
PfmFamily: 16
TTFWeight: 400
TTFWidth: 5
LineGap: 0
VLineGap: 0
OS2TypoAscent: 839
OS2TypoAOffset: 0
OS2TypoDescent: -210
OS2TypoDOffset: 0
OS2TypoLinegap: 0
OS2WinAscent: 839
OS2WinAOffset: 0
OS2WinDescent: 210
OS2WinDOffset: 0
HheadAscent: 839
HheadAOffset: 0
HheadDescent: -210
HheadDOffset: 0
OS2FamilyClass: 1283
OS2Vendor: 'anir'
Lookup: 4 0 0 "Khaanaa-'dlig' Discretionary Ligatures in Latin lookup 0" { "Khaanaa-'dlig' Discretionary Ligatures in Latin lookup 0-1"  } ['dlig' ('DFLT' <'dflt' > 'latn' <'dflt' > ) ]
MarkAttachClasses: 1
DEI: 91125
LangName: 1033 "" "" "" "" "" "Version 0.001" "" "" "" "" "" "" "" "Copyright 2024, The Khaanaa Font Authors+AAoA-This Font Software is licensed under the SIL Open Font License, Version 1.1.+AAoA-This license is available with a FAQ at:https://openfontlicense.org" "https://openfontlicense.org"
Encoding: UnicodeBmp
UnicodeInterp: none
NameList: AGL For New Fonts
DisplaySize: -128
AntiAlias: 1
FitToEm: 0
WinInfo: 58200 10 4
BeginPrivate: 0
EndPrivate
Grid
-512 296.96 m 1
 1536 296.96 l 1025
-512 581.632 m 1
 1536 581.632 l 1025
EndSplineSet
BeginChars: 65537 106

StartChar: A
Encoding: 65 65 0
GlifName: A_
Width: 752
VWidth: 0
GlyphClass: 2
Flags: HW
LayerCount: 2
Fore
SplineSet
207 -8 m 2
 55 -8 l 2
 51 -8 48 -4 48 0 c 0
 48 1 48 1 48 2 c 2
 248 771 l 2
 249 774 252 776 255 776 c 2
 407 776 l 2
 410 776 413 775 414 772 c 2
 714 3 l 2
 714 2 714 1 714 -0 c 0
 714 -4 711 -8 707 -8 c 2
 555 -8 l 2
 552 -8 549 -6 548 -3 c 2
 461 220 l 1
 272 220 l 1
 214 -2 l 2
 213 -5 210 -8 207 -8 c 2
466 236 m 0
 469 236 472 234 473 231 c 2
 560 8 l 1
 696 8 l 1
 402 762 l 1
 261 762 l 1
 65 8 l 1
 201 8 l 1
 259 229 l 2
 260 232 263 234 266 234 c 2
 462 234 l 2
 463 235 465 236 466 236 c 0
412 360 m 2
 302 360 l 2
 298 360 294 363 294 367 c 0
 294 368 295 368 295 369 c 2
 339 537 l 2
 340 540 343 542 346 542 c 0
 349 542 352 541 353 538 c 2
 419 370 l 2
 419 369 420 368 420 367 c 0
 420 363 416 360 412 360 c 2
312 374 m 1
 401 374 l 1
 347 511 l 1
 312 374 l 1
EndSplineSet
EndChar

StartChar: exclam
Encoding: 33 33 1
GlifName: exclam
Width: 252
VWidth: 0
GlyphClass: 2
Flags: HW
LayerCount: 2
Fore
SplineSet
48 258 m 2
 48 772 l 2
 48 776 51 780 55 780 c 2
 207 780 l 2
 211 780 214 776 214 772 c 2
 214 258 l 2
 214 254 211 250 207 250 c 2
 55 250 l 2
 51 250 48 254 48 258 c 2
62 764 m 1
 62 266 l 1
 200 266 l 1
 200 764 l 1
 62 764 l 1
48 -2 m 2
 48 140 l 2
 48 144 51 148 55 148 c 2
 207 148 l 2
 211 148 214 144 214 140 c 2
 214 -2 l 2
 214 -6 211 -10 207 -10 c 2
 55 -10 l 2
 51 -10 48 -6 48 -2 c 2
62 132 m 1
 62 6 l 1
 200 6 l 1
 200 132 l 1
 62 132 l 1
EndSplineSet
EndChar

StartChar: quotedbl
Encoding: 34 34 2
GlifName: quotedbl
Width: 452
VWidth: 0
GlyphClass: 2
Flags: HW
LayerCount: 2
Fore
SplineSet
248 532 m 2
 248 789 l 2
 248 793 251 796 255 796 c 2
 407 796 l 2
 411 796 414 793 414 789 c 2
 414 532 l 2
 414 528 411 524 407 524 c 2
 255 524 l 2
 251 524 248 528 248 532 c 2
262 782 m 1
 262 540 l 1
 400 540 l 1
 400 782 l 1
 262 782 l 1
48 532 m 2
 48 789 l 2
 48 793 51 796 55 796 c 2
 207 796 l 2
 211 796 214 793 214 789 c 2
 214 532 l 2
 214 528 211 524 207 524 c 2
 55 524 l 2
 51 524 48 528 48 532 c 2
62 782 m 1
 62 540 l 1
 200 540 l 1
 200 782 l 1
 62 782 l 1
EndSplineSet
EndChar

StartChar: quotesingle
Encoding: 39 39 3
GlifName: quotesingle
Width: 252
VWidth: 0
GlyphClass: 2
Flags: HW
LayerCount: 2
Fore
SplineSet
48 532 m 2
 48 789 l 2
 48 793 51 796 55 796 c 2
 207 796 l 2
 211 796 214 793 214 789 c 2
 214 532 l 2
 214 528 211 524 207 524 c 2
 55 524 l 2
 51 524 48 528 48 532 c 2
62 782 m 1
 62 540 l 1
 200 540 l 1
 200 782 l 1
 62 782 l 1
EndSplineSet
EndChar

StartChar: u1F64F
Encoding: 65536 128591 4
Width: 1024
Flags: HW
LayerCount: 2
Fore
SplineSet
524.3046875 795.731445312 m 2
 524.3046875 810.934932206 536.273883816 821.707996592 551.725896868 821.708001617 c 1
 551.265165024 822.039929032 551.054738696 822.256682061 551.054738696 822.368274544 c 0
 551.054738696 822.429059906 551.117173708 822.458643373 551.2355985 822.458643373 c 0
 553.170250907 822.458643373 570.04761432 814.56332384 573.766839811 805.828931632 c 2
 731.575866239 435.530448613 l 2
 746.707883386 402.086048765 754.218980138 367.360719016 754.218980138 322.835692318 c 0
 754.218979932 280.301548021 742.630756126 231.153618883 733.825922452 201.396641159 c 0
 728.752199616 184.249394203 723.106485759 168.162269658 716.885883545 153.135077402 c 1
 904.846747561 -2.6664248676 l 2
 910.857941737 -7.64380042525 914.180795184 -14.0826630005 914.180795184 -22.7283062752 c 0
 914.180795184 -29.0037324895 911.995763671 -34.6775780089 907.765159804 -39.4984755447 c 2
 768.009444001 -198.733663509 l 2
 762.931899712 -204.519936693 756.341489081 -207.502929688 748.647460938 -207.502929688 c 0
 739.582638117 -207.502929688 732.613780762 -203.631074411 727.665747399 -196.687658424 c 2
 529.397992513 81.5743084356 l 2
 526.235174257 86.0143552128 524.622920285 91.0528965148 524.620455521 96.5107445903 c 2
 524.3046875 795.731445312 l 2
551.725896868 816.708001617 m 0
 539.079051224 816.708001617 529.3046875 808.172116222 529.3046875 795.731445312 c 2
 529.620455186 96.5126949791 l 2
 529.624056831 92.0547579976 530.887420213 88.100459913 533.473101237 84.4706134394 c 2
 731.740502601 -193.7908572 l 2
 735.816761196 -199.51093971 741.16636729 -202.502929688 748.647460938 -202.502929688 c 0
 755.000284363 -202.502929688 760.064821648 -200.207927891 764.250321623 -195.438211491 c 2
 904.006324572 -36.2026963303 l 2
 907.502458034 -32.2187494224 909.180795184 -27.8110751666 909.180795184 -22.7283062752 c 0
 909.180795184 -15.6009443261 906.595490227 -10.6049137977 901.661064939 -6.5191220074 c 2
 712.273328145 150.46511984 l 2
 711.719924739 150.923838106 711.3671875 151.616363517 711.3671875 152.390625 c 0
 711.3671875 152.732467976 711.435946464 153.058378165 711.560376683 153.355267856 c 0
 727.056652006 190.329279824 735.33795667 221.150959106 744.356066413 269.298495624 c 0
 747.597177929 286.602735595 749.218980049 304.446694873 749.218980138 322.835692318 c 0
 749.218980138 366.526122706 741.831922844 400.731844824 727.017883761 433.473457637 c 2
 569.164800813 803.872240244 l 2
 565.378191021 812.764880699 555.556249606 813.888702086 551.725896868 816.708001617 c 0
265.399868141 -219.520163554 m 0
 265.057016333 -219.520163554 264.039559701 -219.497070312 263.345703125 -219.497070312 c 0
 255.654959651 -219.497070312 249.065101253 -216.512665643 243.984850997 -210.727003476 c 2
 104.227476608 -51.4920147808 l 2
 100.001933275 -46.6744179195 97.8190358223 -41.0040857421 97.8190358223 -34.7307937706 c 0
 97.8190358223 -26.0775987218 101.144899996 -19.6462363707 107.152219674 -14.66728048 c 2
 295.111262253 141.135121707 l 1
 279.866513681 177.966897027 271.678076064 208.589092699 262.729275384 256.373561388 c 0
 259.428998604 273.992822441 257.780243768 292.150072994 257.780243768 310.840256722 c 0
 257.780243768 320.798233293 258.248212172 330.905881246 259.183260348 341.163034958 c 0
 261.924573017 371.23328043 278.36256717 396.085584418 289.399173639 420.480293717 c 2
 447.229301684 790.829043658 l 2
 450.525864218 798.563336346 451.833236763 809.516708254 462.322066922 809.516708254 c 0
 476.53890743 809.516708254 487.689454761 797.799569093 487.689454761 783.74753266 c 2
 487.372659094 84.515570483 l 2
 487.368429696 79.1484650987 486.046026592 74.1802466901 482.558684598 69.5312350684 c 2
 267.161461214 -217.617027521 l 2
 266.93113448 -218.487146296 265.83091515 -219.520163554 265.399868141 -219.520163554 c 0
482.689453387 783.739436179 m 2
 482.689453387 795.03935353 473.753572934 804.516708254 462.322066922 804.516708254 c 0
 457.716842683 804.516708254 456.81719961 802.144764612 454.23651701 795.081202521 c 0
 453.557431141 793.222482971 452.794447792 791.131964259 451.831245192 788.872128218 c 2
 294.001216985 418.523612533 l 2
 283.154816682 394.549324504 266.770575349 369.313507316 264.162442776 340.704152542 c 0
 263.240707902 330.593041139 262.780243768 320.638491748 262.780243768 310.840256722 c 0
 262.780243768 268.835285223 274.318041259 220.049337609 282.968005034 190.816036676 c 0
 288.188077826 173.174349058 294.011418252 156.687980449 300.436739344 141.355158773 c 0
 300.561140689 141.058298335 300.629882812 140.73242611 300.629882812 140.390625 c 0
 300.629882812 139.616370383 300.277151828 138.923850388 299.723756888 138.465132042 c 2
 110.339967826 -18.518266395 l 2
 105.412230205 -22.6024486216 102.819035822 -27.6071824821 102.819035822 -34.7307937706 c 0
 102.819035822 -39.8121770231 104.495989322 -44.216873123 107.987367142 -48.1974383442 c 2
 247.743664627 -207.431199648 l 2
 251.912388659 -212.178766736 256.94770239 -214.496904514 263.252341497 -214.496904514 c 1
 478.55654962 72.5273584709 l 2
 481.361407784 76.2665438515 482.370600189 79.9726298268 482.372660264 84.5195878876 c 2
 482.689453387 783.739436179 l 2
EndSplineSet
LCarets2: 6 0 0 0 0 0 0
EndChar

StartChar: numbersign
Encoding: 35 35 6
Width: 644
VWidth: 0
Flags: HW
LayerCount: 2
Fore
SplineSet
385.426824185 375.5 m 1
 400.100857334 458.5 l 1
 267.335606754 458.5 l 1
 252.661573605 375.5 l 1
 385.426824185 375.5 l 1
391.718232044 360.5 m 2
 243.718232044 360.5 l 2
 239.578869544 360.5 236.218232044 363.8606375 236.218232044 368 c 0
 236.218232044 368.447669544 236.257539039 368.886230894 236.332887048 369.312418067 c 2
 253.658853899 467.312418067 l 2
 254.280208905 470.82695732 257.352505939 473.5 261.044198895 473.5 c 2
 409.044198895 473.5 l 2
 413.183561395 473.5 416.544198895 470.1393625 416.544198895 466 c 0
 416.544198895 465.552330456 416.5048919 465.113769106 416.429543891 464.687581933 c 2
 399.10357704 366.687581933 l 2
 398.482222034 363.17304268 395.409925 360.5 391.718232044 360.5 c 2
135.917127072 610.5 m 2
 62.5 610.5 l 1
 62.5 473.5 l 1
 109.044198895 473.5 l 2
 113.183561395 473.5 116.544198895 470.1393625 116.544198895 466 c 0
 116.544198895 465.552330456 116.5048919 465.113769106 116.429543891 464.687581933 c 2
 99.1035770404 366.687581933 l 2
 98.4822220344 363.17304268 95.409925 360.5 91.7182320442 360.5 c 2
 62.5 360.5 l 1
 62.5 223.5 l 1
 64.8453038674 223.5 l 2
 68.9846663674 223.5 72.3453038674 220.1393625 72.3453038674 216 c 0
 72.3453038674 215.552330456 72.3059968721 215.113769106 72.2306488636 214.687581933 c 2
 61.9433415606 156.5 l 1
 198.708592141 156.5 l 1
 209.459958871 217.312418067 l 2
 210.081313877 220.82695732 213.153610911 223.5 216.845303867 223.5 c 2
 364.845303867 223.5 l 2
 368.984666367 223.5 372.345303867 220.1393625 372.345303867 216 c 0
 372.345303867 215.552330456 372.305996872 215.113769106 372.230648863 214.687581933 c 2
 361.943341561 156.5 l 1
 498.708592141 156.5 l 1
 509.459958871 217.312418067 l 2
 510.081313877 220.82695732 513.153610911 223.5 516.845303867 223.5 c 2
 591.5 223.5 l 1
 591.5 360.5 l 1
 543.718232044 360.5 l 2
 539.578869544 360.5 536.218232044 363.8606375 536.218232044 368 c 0
 536.218232044 368.447669544 536.257539039 368.886230894 536.332887048 369.312418067 c 2
 553.658853899 467.312418067 l 2
 554.280208905 470.82695732 557.352505939 473.5 561.044198895 473.5 c 2
 591.5 473.5 l 1
 591.5 610.5 l 1
 587.917127072 610.5 l 2
 583.777764572 610.5 580.417127072 613.8606375 580.417127072 618 c 0
 580.417127072 618.447669544 580.456434067 618.886230894 580.531782076 619.312418067 c 2
 592.056658439 684.5 l 1
 455.291407859 684.5 l 1
 443.302472068 616.687581933 l 2
 442.681117062 613.17304268 439.608820028 610.5 435.917127072 610.5 c 2
 287.917127072 610.5 l 2
 283.777764572 610.5 280.417127072 613.8606375 280.417127072 618 c 0
 280.417127072 618.447669544 280.456434067 618.886230894 280.531782076 619.312418067 c 2
 292.056658439 684.5 l 1
 155.291407859 684.5 l 1
 143.302472068 616.687581933 l 2
 142.681117062 613.17304268 139.608820028 610.5 135.917127072 610.5 c 2
149 699.5 m 2
 301 699.5 l 2
 305.1393625 699.5 308.5 696.1393625 308.5 692 c 0
 308.5 691.552330456 308.460693005 691.113769106 308.385344996 690.687581933 c 2
 296.860468633 625.5 l 1
 429.625719213 625.5 l 1
 441.614655004 693.312418067 l 2
 442.23601001 696.82695732 445.308307044 699.5 449 699.5 c 2
 601 699.5 l 2
 605.1393625 699.5 608.5 696.1393625 608.5 692 c 0
 608.5 691.552330456 608.460693005 691.113769106 608.385344996 690.687581933 c 2
 596.860468633 625.5 l 1
 599 625.5 l 2
 603.1393625 625.5 606.5 622.1393625 606.5 618 c 2
 606.5 466 l 2
 606.5 461.8606375 603.1393625 458.5 599 458.5 c 2
 567.335606754 458.5 l 1
 552.661573605 375.5 l 1
 599 375.5 l 2
 603.1393625 375.5 606.5 372.1393625 606.5 368 c 2
 606.5 216 l 2
 606.5 211.8606375 603.1393625 208.5 599 208.5 c 2
 523.136711726 208.5 l 1
 512.385344996 147.687581933 l 2
 511.76398999 144.17304268 508.691692956 141.5 505 141.5 c 2
 353 141.5 l 2
 348.8606375 141.5 345.5 144.8606375 345.5 149 c 0
 345.5 149.447669544 345.539306995 149.886230894 345.614655004 150.312418067 c 2
 355.901962306 208.5 l 1
 223.136711726 208.5 l 1
 212.385344996 147.687581933 l 2
 211.76398999 144.17304268 208.691692956 141.5 205 141.5 c 2
 53 141.5 l 2
 48.8606375 141.5 45.5 144.8606375 45.5 149 c 0
 45.5 149.447669544 45.5393069953 149.886230894 45.6146550038 150.312418067 c 2
 55.9019623068 208.5 l 1
 55 208.5 l 2
 50.8606375 208.5 47.5 211.8606375 47.5 216 c 2
 47.5 368 l 2
 47.5 372.1393625 50.8606375 375.5 55 375.5 c 2
 85.4268241853 375.5 l 1
 100.100857334 458.5 l 1
 55 458.5 l 2
 50.8606375 458.5 47.5 461.8606375 47.5 466 c 2
 47.5 618 l 2
 47.5 622.1393625 50.8606375 625.5 55 625.5 c 2
 129.625719213 625.5 l 1
 141.614655004 693.312418067 l 2
 142.23601001 696.82695732 145.308307044 699.5 149 699.5 c 2
EndSplineSet
EndChar

StartChar: dollar
Encoding: 36 36 7
Width: 512
VWidth: 0
Flags: HW
LayerCount: 2
Fore
SplineSet
245.5 564.485723478 m 1
 236.44217778 550.419266677 230.763736263 534.062462701 230.763736263 517.529887695 c 0
 230.763736263 505.050553137 233.579572928 491.855011312 239.422257973 477.889569009 c 0
 241.283636031 473.440421457 243.310828233 469.291479115 245.5 465.433909307 c 1
 245.5 564.485723478 l 1
260.5 585.786987628 m 2
 260.5 442.672057836 l 2
 260.5 438.532695336 257.1393625 435.172057836 253 435.172057836 c 0
 250.869951968 435.172057836 248.946107415 436.061942128 247.580277272 437.489899783 c 0
 231.214361372 454.600252046 215.763736263 486.646489347 215.763736263 517.529887695 c 0
 215.763736263 535.581061014 220.743005784 552.743671727 230.548707129 568.825021932 c 0
 235.488887208 577.133506611 241.203826685 584.570830104 247.687678478 591.079169002 c 0
 249.046047852 592.442668433 250.925201346 593.286987628 253 593.286987628 c 0
 257.1393625 593.286987628 260.5 589.926350128 260.5 585.786987628 c 2
337.662550663 767.072815534 m 0
 335.785498453 767.072815534 333.895253602 766.989432646 332 766.989432646 c 0
 327.8606375 766.989432646 324.5 770.350070146 324.5 774.489432646 c 2
 324.5 1022.5 l 1
 260.5 1022.5 l 1
 260.5 758.017191734 l 2
 260.5 754.775964647 258.439495029 752.012196594 255.55805069 750.965453178 c 0
 193.192279223 728.309814886 145.724944144 689.838060346 112.411244465 635.108410873 c 0
 92.2385234396 601.921031122 81.3977225307 569.763217388 79.4858216228 538.535502559 c 0
 79.2450218841 534.60244016 79.125 530.715668931 79.125 526.875 c 0
 79.125 499.994437804 84.9758720618 475.262108332 96.6798006282 452.411581131 c 0
 110.258401418 425.900979589 128.675302431 401.969980448 152.065157106 380.529280329 c 0
 175.29240717 359.237634437 202.75566546 339.77776229 234.503447798 322.185825758 c 0
 241.868779407 320.914369015 248.89015277 319.076927916 255.553058159 316.661871688 c 0
 258.437114646 315.61650839 260.5 312.851420257 260.5 309.608321509 c 2
 260.5 159.563726878 l 2
 260.5 156.368760244 258.497892459 153.637720825 255.680921746 152.557852989 c 0
 243.608224612 147.929861204 226.981693087 144.375 211.613281249 144.375 c 0
 191.251854404 144.375 171.698910813 149.823737946 153.250265842 160.504532404 c 0
 147.021460399 164.110682924 141.694917449 168.038997718 137.235071646 171.147826971 c 1
 69.8330276362 58.8110869552 l 1
 75.1173126169 55.2208378035 82.7008628441 50.854707991 86.161076315 47.4424577658 c 0
 120.591142254 16.2459769776 158.361776441 0.994950914676 200.157841037 0.99494949495 c 0
 217.531674282 0.99494949495 234.30547836 3.0040217933 251.295141457 6.95950694684 c 0
 251.842909204 7.08703667946 252.413641682 7.15447099102 253 7.15447099102 c 0
 257.1393625 7.15447099102 260.5 3.79383349102 260.5 -0.345529008978 c 2
 260.5 -174.5 l 1
 324.5 -174.5 l 1
 324.5 32.2021391306 l 2
 324.5 35.2975447381 326.286907881 37.5286705709 328.669612575 38.9480995548 c 0
 370.73158037 64.0548555249 402.889066816 95.6273501345 425.544815669 133.818469629 c 0
 445.106201177 167.072824994 455.059997243 197.556593249 456.004419232 225.25963827 c 0
 456.059209058 226.866806509 456.086538457 228.462570476 456.086538462 230.046959552 c 0
 456.086538543 255.905331596 448.881479269 278.949179888 434.351584417 299.706172534 c 0
 405.977091117 340.24116296 372.188304538 367.705818944 328.151538017 394.107215174 c 0
 325.96485224 395.418200566 324.5 397.811639384 324.5 400.544512926 c 2
 324.5 615.966567057 l 2
 324.5 620.105929557 327.8606375 623.466567057 332 623.466567057 c 0
 357.536300023 623.466567057 384.119027471 611.618946979 401.96606153 598.187394988 c 1
 469.166972364 710.188913045 l 1
 463.890495482 713.773857218 456.314742059 718.135211865 452.85484981 721.541841519 c 0
 418.774911895 752.074210759 352.348949719 761.267861047 337.662550663 767.072815534 c 0
245.5 -9.61090120049 m 1
 230.452343574 -12.5176111128 215.575776207 -14.0050505051 200.157841037 -14.0050505051 c 0
 154.399747349 -14.0050505051 112.772373174 3.04394151587 75.9630544389 36.4449899965 c 0
 72.3145613288 39.7556596704 58.3546085439 48.0408695811 54.6977390625 51.6977390625 c 0
 53.340159375 53.05531875 52.5 54.93031875 52.5 57 c 0
 52.5 58.4074141066 52.8885067303 59.7248036557 53.5640340271 60.8506824837 c 2
 128.564034027 185.850682484 l 2
 129.875308161 188.036139373 132.268051607 189.5 135 189.5 c 0
 136.684987061 189.5 138.240938287 188.943137609 139.493700723 188.003565782 c 0
 144.563494323 184.201220582 151.73146281 179.305687807 160.899026127 173.40917752 c 0
 177.236811091 163.981488248 194.043853382 159.375000246 211.613281249 159.375 c 0
 222.73989221 159.375 235.937948115 161.743605714 245.5 164.862553786 c 1
 245.5 304.203267794 l 1
 240.829614452 305.627604537 235.927826987 306.760891059 230.787792799 307.597640811 c 0
 229.930672801 307.737171974 229.12213154 308.022199245 228.388380716 308.426510923 c 0
 195.272351364 326.674118933 166.437763203 347.009709387 141.934842894 369.470719671 c 0
 117.324697569 392.030019552 97.7415985821 417.432353743 83.3201993718 445.588418869 c 0
 70.5241279382 470.571225001 64.125 497.755562195 64.125 526.875 c 0
 64.125 531.034331069 64.2549781159 535.230893173 64.5141783772 539.464497441 c 0
 66.6022774693 573.570115946 78.4281432272 608.07896888 99.5887555346 642.891589127 c 0
 133.757545808 699.02603029 182.624461829 739.275204838 245.5 763.230133733 c 1
 245.5 1030 l 2
 245.5 1034.1393625 248.8606375 1037.5 253 1037.5 c 2
 332 1037.5 l 2
 336.1393625 1037.5 339.5 1034.1393625 339.5 1030 c 2
 339.5 782.064207368 l 1
 385.5150068 781.632517759 426.921382956 764.966565618 463.006126728 732.582821206 c 0
 466.6799973 729.285757873 480.633832698 720.970689177 484.302260938 717.302260938 c 0
 485.659840625 715.94468125 486.5 714.06968125 486.5 712 c 0
 486.5 710.592585893 486.11149327 709.275196344 485.435965973 708.149317516 c 2
 410.435965973 583.149317516 l 2
 409.124691839 580.963860627 406.731948393 579.5 404 579.5 c 0
 402.1763224 579.5 400.503796601 580.152305251 399.203215615 581.236122739 c 0
 382.690148972 594.997011609 362.849581702 605.528536945 339.5 607.971965303 c 1
 339.5 404.774916162 l 1
 383.502936424 377.964266237 417.974794746 349.256142946 446.648415583 308.293827466 c 0
 462.900574981 285.076456898 471.086538552 258.818278224 471.086538462 230.046959552 c 0
 471.086538457 228.286679276 471.056175375 226.517803544 470.995580768 224.74036173 c 0
 469.940002757 193.776740085 458.893798823 160.927175008 438.455184331 126.181530371 c 0
 415.024754106 86.6845194197 381.914947974 53.8988829728 339.5 27.9666846643 c 1
 339.5 -182 l 2
 339.5 -186.1393625 336.1393625 -189.5 332 -189.5 c 2
 253 -189.5 l 2
 248.8606375 -189.5 245.5 -186.1393625 245.5 -182 c 2
 245.5 -9.61090120049 l 1
EndSplineSet
EndChar

StartChar: percent
Encoding: 37 37 8
Width: 691
VWidth: 0
Flags: HW
LayerCount: 2
Fore
SplineSet
211 476 m 2
 200 476 l 1
 199 476 l 2
 163 479 133 492 109 518 c 0
 85 544 72 575 72 611 c 0
 72 647 85 678 110 704 c 0
 135 730 164 744 199 747 c 1
 200 748 l 1
 211 748 l 2
 249 748 282 734 308 708 c 0
 334 682 348 649 348 611 c 0
 348 574 334 541 308 515 c 0
 282 489 249 476 211 476 c 2
200 490 m 2
 211 490 l 2
 245 490 273 502 297 526 c 0
 321 550 332 578 332 611 c 0
 332 645 321 673 297 697 c 0
 273 721 245 732 211 732 c 2
 200 732 l 2
 169 729 142 717 120 694 c 0
 98 671 88 643 88 611 c 0
 88 579 98 552 120 529 c 0
 142 506 168 493 200 490 c 2
222 672 m 0
 223 672 223 671 224 671 c 0
 251 665 272 643 272 611 c 0
 272 597 267 584 258 573 c 0
 249 562 238 555 224 552 c 0
 223 552 223 552 222 552 c 0
 221 552 221 552 220 552 c 0
 216 551 213 550 210 550 c 0
 207 550 204 551 200 552 c 0
 199 552 199 552 198 552 c 0
 197 552 197 552 196 552 c 0
 182 555 171 562 162 573 c 0
 153 584 148 597 148 611 c 0
 148 643 169 665 196 671 c 0
 197 671 197 672 198 672 c 0
 199 672 199 671 200 671 c 0
 204 672 207 672 210 672 c 0
 213 672 216 672 220 671 c 0
 221 671 221 672 222 672 c 0
224 567 m 0
 242 572 256 589 256 611 c 0
 256 634 243 651 224 656 c 0
 223 656 223 656 222 656 c 0
 221 656 221 656 220 656 c 0
 215 657 211 658 210 658 c 0
 209 658 205 657 200 656 c 0
 199 656 199 656 198 656 c 0
 197 656 197 656 196 656 c 0
 177 651 164 634 164 611 c 0
 164 589 178 572 196 567 c 0
 197 567 197 568 198 568 c 0
 199 568 199 567 200 567 c 0
 205 566 209 566 210 566 c 0
 211 566 215 566 220 567 c 0
 221 567 221 568 222 568 c 0
 223 568 223 567 224 567 c 0
516 74 m 2
 505 74 l 1
 504 75 l 1
 468 78 438 91 414 117 c 0
 390 143 378 174 378 210 c 0
 378 246 390 277 415 303 c 0
 440 329 469 343 504 346 c 2
 505 346 l 1
 516 346 l 2
 554 346 587 333 613 307 c 0
 639 281 652 248 652 210 c 0
 652 173 639 140 613 114 c 0
 587 88 554 74 516 74 c 2
505 90 m 2
 516 90 l 2
 550 90 578 101 602 125 c 0
 626 149 638 177 638 210 c 0
 638 244 626 272 602 296 c 0
 578 320 550 332 516 332 c 2
 505 332 l 2
 474 329 447 316 425 293 c 0
 403 270 392 242 392 210 c 0
 392 178 403 151 425 128 c 0
 447 105 473 93 505 90 c 2
576 210 m 0
 576 196 572 183 563 172 c 0
 554 161 543 154 529 151 c 0
 528 151 528 150 527 150 c 0
 526 150 526 151 525 151 c 0
 521 150 518 150 515 150 c 0
 512 150 509 150 505 151 c 0
 504 151 504 150 503 150 c 0
 502 150 502 151 501 151 c 0
 487 154 476 161 467 172 c 0
 458 183 454 196 454 210 c 0
 454 242 474 264 501 270 c 0
 502 270 502 270 503 270 c 0
 504 270 504 270 505 270 c 0
 509 271 512 272 515 272 c 0
 518 272 521 271 525 270 c 0
 526 270 526 270 527 270 c 0
 528 270 528 270 529 270 c 0
 556 264 576 242 576 210 c 0
529 166 m 0
 547 171 562 188 562 210 c 0
 562 233 548 250 529 255 c 0
 528 255 528 254 527 254 c 0
 526 254 526 255 525 255 c 0
 520 256 516 256 515 256 c 0
 514 256 510 256 505 255 c 0
 504 255 504 254 503 254 c 0
 502 254 502 255 501 255 c 0
 482 250 468 233 468 210 c 0
 468 188 483 171 501 166 c 0
 502 166 502 166 503 166 c 0
 504 166 504 166 505 166 c 0
 510 165 514 164 515 164 c 0
 516 164 520 165 525 166 c 0
 526 166 526 166 527 166 c 0
 528 166 528 166 529 166 c 0
654 757 m 0
 654 756 653 754 652 753 c 2
 167 -87 l 2
 166 -89 164 -90 161 -90 c 0
 160 -90 158 -91 157 -90 c 2
 51 -29 l 2
 49 -28 48 -25 48 -22 c 0
 48 -21 48 -19 49 -18 c 2
 534 822 l 2
 535 824 537 826 540 826 c 0
 541 826 543 826 544 825 c 2
 650 764 l 2
 652 763 654 760 654 757 c 0
636 754 m 1
 543 808 l 1
 65 -19 l 1
 158 -73 l 1
 636 754 l 1
EndSplineSet
EndChar

StartChar: ampersand
Encoding: 38 38 9
Width: 649
VWidth: 0
Flags: HW
LayerCount: 2
Fore
SplineSet
205 529 m 0
 205 527 205 526 205 524 c 2
 223 507 l 1
 254 519 286 526 320 526 c 0
 329 526 338 525 347 524 c 0
 351 524 354 521 354 517 c 2
 354 376 l 1
 458 272 l 1
 497 304 525 327 544 342 c 0
 555 351 560 355 568 360 c 0
 569 361 571 362 574 362 c 0
 578 362 582 359 582 355 c 2
 582 202 l 2
 582 198 579 196 576 195 c 0
 574 194 565 187 552 177 c 1
 610 119 l 2
 611 118 612 116 612 114 c 0
 612 112 611 110 610 109 c 2
 492 -9 l 2
 491 -10 489 -12 487 -12 c 0
 485 -12 483 -10 482 -9 c 2
 410 63 l 1
 380 39 358 22 344 11 c 0
 335 4 332 1 325 -3 c 0
 324 -4 323 -4 320 -4 c 0
 247 -4 184 22 132 73 c 0
 80 124 54 187 54 260 c 0
 54 306 66 349 88 389 c 1
 76 401 l 1
 76 401 74 401 74 402 c 0
 60 427 52 453 49 479 c 0
 48 488 47 497 47 506 c 0
 47 524 49 541 54 560 c 0
 61 587 69 613 78 636 c 0
 87 659 99 686 115 716 c 0
 125 735 151 752 192 771 c 0
 233 790 274 804 315 813 c 0
 339 819 358 822 373 822 c 0
 383 822 392 820 398 816 c 0
 400 815 402 813 402 810 c 2
 398 691 l 2
 398 687 395 684 391 684 c 0
 382 684 355 671 312 648 c 0
 269 625 243 609 234 600 c 0
 215 581 205 557 205 529 c 0
373 807 m 0
 360 807 342 804 319 799 c 0
 279 790 239 775 199 757 c 0
 159 738 136 721 129 708 c 0
 113 678 100 652 91 630 c 0
 82 608 75 584 68 557 c 0
 64 540 62 523 62 506 c 0
 62 498 62 489 63 481 c 0
 66 457 74 434 87 411 c 1
 102 395 l 2
 103 394 104 392 104 390 c 0
 104 389 104 387 103 386 c 0
 80 347 70 305 70 260 c 0
 70 191 94 132 143 83 c 0
 192 35 249 11 318 11 c 1
 325 15 355 38 406 79 c 0
 407 80 409 80 411 80 c 0
 413 80 415 79 416 78 c 2
 487 7 l 1
 594 114 l 1
 536 173 l 2
 535 174 534 176 534 178 c 0
 534 180 534 183 536 184 c 0
 550 195 556 201 566 207 c 1
 566 340 l 1
 549 327 515 299 462 256 c 0
 461 255 459 254 457 254 c 0
 455 254 453 256 452 257 c 2
 341 368 l 2
 340 369 338 371 338 373 c 2
 338 510 l 1
 320 510 l 2
 286 510 254 504 224 491 c 0
 223 491 222 490 221 490 c 0
 219 490 217 492 216 493 c 2
 193 516 l 2
 190 519 190 524 190 529 c 0
 190 561 202 588 224 610 c 0
 235 621 262 639 305 662 c 0
 342 682 368 694 384 697 c 1
 386 805 l 2
 383 806 379 807 373 807 c 0
206 260 m 0
 206 268 206 280 214 280 c 0
 216 280 218 278 219 277 c 2
 332 163 l 2
 333 162 334 160 334 158 c 0
 334 153 328 150 325 148 c 0
 324 147 324 146 320 146 c 0
 288 146 261 158 239 180 c 0
 217 202 206 229 206 260 c 0
221 255 m 1
 222 230 231 208 249 190 c 0
 267 172 288 164 313 162 c 1
 221 255 l 1
EndSplineSet
EndChar

StartChar: parenleft
Encoding: 40 40 10
Width: 555
VWidth: 0
Flags: HW
LayerCount: 2
Fore
SplineSet
437 736 m 0
 373 736 313 702 254 629 c 0
 196 557 166 473 166 378 c 0
 166 282 196 198 254 126 c 0
 313 53 373 18 437 18 c 0
 438 18 438 18 439 18 c 2
 512 0 l 2
 515 -1 518 -3 518 -7 c 0
 518 -11 515 -13 512 -14 c 0
 489 -19 463 -22 437 -22 c 0
 330 -22 238 18 162 96 c 0
 86 174 48 270 48 380 c 0
 48 490 86 585 162 663 c 0
 238 741 330 780 437 780 c 0
 463 780 489 778 512 773 c 0
 515 772 518 770 518 766 c 0
 518 763 515 760 512 759 c 2
 439 737 l 2
 438 737 438 736 437 736 c 0
152 378 m 0
 152 476 182 563 242 638 c 0
 302 712 367 751 436 751 c 1
 476 764 l 1
 463 765 450 766 437 766 c 0
 334 766 245 728 172 653 c 0
 99 578 62 487 62 380 c 0
 62 273 99 183 172 107 c 0
 245 31 334 -6 437 -6 c 0
 449 -6 460 -6 471 -5 c 1
 436 4 l 1
 367 4 302 43 242 117 c 0
 182 192 152 279 152 378 c 0
EndSplineSet
EndChar

StartChar: parenright
Encoding: 41 41 11
Width: 555
VWidth: 0
Flags: HW
LayerCount: 2
Fore
SplineSet
48 766 m 0
 48 770 50 772 53 773 c 0
 76 778 102 780 128 780 c 0
 235 780 327 741 403 663 c 0
 479 585 518 490 518 380 c 0
 518 270 479 174 403 96 c 0
 327 18 235 -22 128 -22 c 0
 102 -22 76 -19 53 -14 c 0
 50 -13 48 -11 48 -7 c 0
 48 -3 50 -1 53 0 c 2
 126 18 l 2
 127 18 127 18 128 18 c 0
 192 18 252 53 311 126 c 0
 369 198 398 282 398 378 c 0
 398 473 369 557 311 629 c 0
 252 702 192 736 128 736 c 0
 127 736 127 737 126 737 c 2
 53 759 l 2
 50 760 48 763 48 766 c 0
414 378 m 0
 414 279 383 192 323 117 c 0
 263 43 198 4 129 4 c 1
 94 -5 l 1
 105 -6 116 -6 128 -6 c 0
 231 -6 320 31 393 107 c 0
 466 183 502 273 502 380 c 0
 502 487 466 578 393 653 c 0
 320 728 231 766 128 766 c 0
 115 766 102 765 89 764 c 1
 129 751 l 1
 198 751 263 712 323 638 c 0
 383 563 414 476 414 378 c 0
EndSplineSet
EndChar

StartChar: asterisk
Encoding: 42 42 12
Width: 644
VWidth: 0
Flags: HW
LayerCount: 2
Fore
SplineSet
606 496 m 2
 606 344 l 2
 606 340 603 336 599 336 c 2
 528 336 l 1
 578 286 l 2
 579 285 580 283 580 281 c 0
 580 279 579 277 578 276 c 2
 471 169 l 2
 470 168 468 166 466 166 c 0
 464 166 462 168 461 169 c 2
 410 219 l 1
 410 149 l 2
 410 145 407 142 403 142 c 2
 251 142 l 2
 247 142 244 145 244 149 c 2
 244 219 l 1
 193 169 l 2
 192 168 190 166 188 166 c 0
 186 166 184 168 183 169 c 2
 76 276 l 2
 75 277 74 279 74 281 c 0
 74 283 75 285 76 286 c 2
 126 336 l 1
 55 336 l 2
 51 336 48 340 48 344 c 2
 48 496 l 2
 48 500 51 504 55 504 c 2
 126 504 l 1
 76 554 l 2
 75 555 74 557 74 559 c 0
 74 561 75 563 76 564 c 2
 183 671 l 2
 184 672 186 674 188 674 c 0
 190 674 192 672 193 671 c 2
 244 621 l 1
 244 692 l 2
 244 696 247 700 251 700 c 2
 403 700 l 2
 407 700 410 696 410 692 c 2
 410 621 l 1
 461 671 l 2
 462 672 464 674 466 674 c 0
 468 674 470 672 471 671 c 2
 578 564 l 2
 579 563 580 561 580 559 c 0
 580 557 579 555 578 554 c 2
 528 504 l 1
 599 504 l 2
 603 504 606 500 606 496 c 2
592 352 m 1
 592 488 l 1
 510 488 l 2
 506 488 502 492 502 496 c 0
 502 498 504 500 505 501 c 2
 562 559 l 1
 466 655 l 1
 408 598 l 2
 407 597 405 596 403 596 c 0
 399 596 396 599 396 603 c 2
 396 684 l 1
 258 684 l 1
 258 603 l 2
 258 599 255 596 251 596 c 0
 249 596 247 597 246 598 c 2
 188 655 l 1
 92 559 l 1
 149 501 l 2
 150 500 152 498 152 496 c 0
 152 492 148 488 144 488 c 2
 62 488 l 1
 62 352 l 1
 144 352 l 2
 148 352 152 348 152 344 c 0
 152 342 150 340 149 339 c 2
 92 281 l 1
 188 185 l 1
 246 242 l 2
 247 243 249 244 251 244 c 0
 255 244 258 241 258 237 c 2
 258 156 l 1
 396 156 l 1
 396 237 l 2
 396 241 399 244 403 244 c 0
 405 244 407 243 408 242 c 2
 466 185 l 1
 562 281 l 1
 505 339 l 2
 504 340 502 342 502 344 c 0
 502 348 506 352 510 352 c 2
 592 352 l 1
EndSplineSet
EndChar

StartChar: plus
Encoding: 43 43 13
Width: 644
VWidth: 0
Flags: HW
LayerCount: 2
Fore
SplineSet
390.5 684.5 m 1
 253.5 684.5 l 1
 253.5 496 l 2
 253.5 491.8606375 250.1393625 488.5 246 488.5 c 2
 57.5 488.5 l 1
 57.5 351.5 l 1
 246 351.5 l 2
 250.1393625 351.5 253.5 348.1393625 253.5 344 c 2
 253.5 156.5 l 1
 390.5 156.5 l 1
 390.5 344 l 2
 390.5 348.1393625 393.8606375 351.5 398 351.5 c 2
 586.5 351.5 l 1
 586.5 488.5 l 1
 398 488.5 l 2
 393.8606375 488.5 390.5 491.8606375 390.5 496 c 2
 390.5 684.5 l 1
246 699.5 m 2
 398 699.5 l 2
 402.1393625 699.5 405.5 696.1393625 405.5 692 c 2
 405.5 503.5 l 1
 594 503.5 l 2
 598.1393625 503.5 601.5 500.1393625 601.5 496 c 2
 601.5 344 l 2
 601.5 339.8606375 598.1393625 336.5 594 336.5 c 2
 405.5 336.5 l 1
 405.5 149 l 2
 405.5 144.8606375 402.1393625 141.5 398 141.5 c 2
 246 141.5 l 2
 241.8606375 141.5 238.5 144.8606375 238.5 149 c 2
 238.5 336.5 l 1
 50 336.5 l 2
 45.8606375 336.5 42.5 339.8606375 42.5 344 c 2
 42.5 496 l 2
 42.5 500.1393625 45.8606375 503.5 50 503.5 c 2
 238.5 503.5 l 1
 238.5 692 l 2
 238.5 696.1393625 241.8606375 699.5 246 699.5 c 2
EndSplineSet
EndChar

StartChar: comma
Encoding: 44 44 14
Width: 252
VWidth: 0
Flags: HW
LayerCount: 2
Fore
SplineSet
48 -2 m 2
 48 140 l 2
 48 144 51 148 55 148 c 2
 207 148 l 2
 211 148 214 144 214 140 c 2
 214 -2 l 2
 214 -3 214 -4 214 -5 c 2
 154 -137 l 2
 153 -140 150 -142 147 -142 c 2
 146 -141 l 1
 88 -137 l 2
 84 -137 82 -134 82 -130 c 2
 82 -129 l 1
 90 -10 l 1
 55 -10 l 2
 51 -10 48 -6 48 -2 c 2
62 132 m 1
 62 6 l 1
 98 6 l 2
 102 6 106 2 106 -2 c 2
 105 -3 l 1
 97 -123 l 1
 142 -126 l 1
 200 -0 l 1
 200 132 l 1
 62 132 l 1
EndSplineSet
EndChar

StartChar: hyphen
Encoding: 45 45 15
Width: 644
VWidth: 0
Flags: HW
LayerCount: 2
Fore
SplineSet
606 496 m 2
 606 344 l 2
 606 340 603 336 599 336 c 2
 55 336 l 2
 51 336 48 340 48 344 c 2
 48 496 l 2
 48 500 51 504 55 504 c 2
 599 504 l 2
 603 504 606 500 606 496 c 2
592 352 m 1
 592 488 l 1
 62 488 l 1
 62 352 l 1
 592 352 l 1
EndSplineSet
EndChar

StartChar: period
Encoding: 46 46 16
Width: 252
VWidth: 0
Flags: HW
LayerCount: 2
Fore
SplineSet
48 -2 m 2
 48 140 l 2
 48 144 51 148 55 148 c 2
 207 148 l 2
 211 148 214 144 214 140 c 2
 214 -2 l 2
 214 -6 211 -10 207 -10 c 2
 55 -10 l 2
 51 -10 48 -6 48 -2 c 2
62 132 m 1
 62 6 l 1
 200 6 l 1
 200 132 l 1
 62 132 l 1
EndSplineSet
EndChar

StartChar: slash
Encoding: 47 47 17
Width: 691
VWidth: 0
Flags: HW
LayerCount: 2
Fore
SplineSet
654 757 m 0
 654 756 653 754 652 753 c 2
 167 -87 l 2
 166 -89 164 -90 161 -90 c 0
 160 -90 158 -91 157 -90 c 2
 51 -29 l 2
 49 -28 48 -25 48 -22 c 0
 48 -21 48 -19 49 -18 c 2
 534 822 l 2
 535 824 537 826 540 826 c 0
 541 826 543 826 544 825 c 2
 650 764 l 2
 652 763 654 760 654 757 c 0
636 754 m 1
 543 808 l 1
 65 -19 l 1
 158 -73 l 1
 636 754 l 1
EndSplineSet
EndChar

StartChar: zero
Encoding: 48 48 18
Width: 864
VWidth: 0
Flags: HW
LayerCount: 2
Fore
SplineSet
750 380 m 0
 750 308 735 241 708 179 c 0
 681 117 643 68 595 32 c 0
 547 -4 495 -22 438 -22 c 0
 381 -22 327 -4 279 32 c 0
 231 68 193 117 166 179 c 0
 139 241 124 308 124 380 c 0
 124 452 139 520 166 581 c 0
 193 642 231 691 279 727 c 0
 327 763 381 780 438 780 c 0
 495 780 547 763 595 727 c 0
 643 691 681 642 708 581 c 0
 735 520 750 452 750 380 c 0
734 380 m 0
 734 450 722 515 695 574 c 0
 668 633 633 680 587 714 c 0
 542 748 492 766 438 766 c 0
 384 766 334 748 288 714 c 0
 242 680 206 633 179 574 c 0
 152 515 140 450 140 380 c 0
 140 310 152 245 179 185 c 0
 206 125 242 79 288 45 c 0
 334 11 384 -6 438 -6 c 0
 492 -6 542 11 587 45 c 0
 633 79 668 125 695 185 c 0
 722 245 734 310 734 380 c 0
628 378 m 0
 628 311 609 254 573 207 c 0
 537 160 491 136 438 136 c 0
 385 136 339 160 302 207 c 0
 265 254 246 311 246 378 c 0
 246 444 265 501 302 548 c 0
 339 595 385 620 438 620 c 0
 491 620 537 595 573 548 c 0
 609 501 628 444 628 378 c 0
612 378 m 0
 612 441 595 495 561 539 c 0
 527 583 487 604 438 604 c 0
 389 604 348 583 313 539 c 0
 278 495 262 441 262 378 c 0
 262 314 278 260 313 216 c 0
 348 172 389 150 438 150 c 0
 487 150 527 172 561 216 c 0
 595 260 612 314 612 378 c 0
EndSplineSet
EndChar

StartChar: one
Encoding: 49 49 19
Width: 252
VWidth: 0
Flags: HW
LayerCount: 2
Fore
SplineSet
55 782 m 2
 207 782 l 2
 211 782 214 778 214 774 c 2
 214 -2 l 2
 214 -6 211 -10 207 -10 c 2
 55 -10 l 2
 51 -10 48 -6 48 -2 c 2
 48 774 l 2
 48 778 51 782 55 782 c 2
200 766 m 1
 62 766 l 1
 62 6 l 1
 200 6 l 1
 200 766 l 1
EndSplineSet
EndChar

StartChar: two
Encoding: 50 50 20
Width: 555
VWidth: 0
Flags: HW
LayerCount: 2
Fore
SplineSet
135 578 m 0
 110 578 87 575 64 569 c 0
 63 569 63 568 62 568 c 0
 58 568 54 572 54 576 c 2
 54 709 l 2
 54 713 57 715 61 716 c 0
 85 720 110 722 135 722 c 0
 205 722 270 708 330 680 c 0
 390 652 437 612 472 562 c 0
 507 512 524 458 524 400 c 0
 524 335 503 277 460 227 c 0
 425 187 382 155 329 132 c 1
 562 134 l 2
 566 134 570 130 570 126 c 2
 570 5 l 2
 570 1 566 -2 562 -2 c 2
 59 -8 l 2
 55 -8 52 -4 52 0 c 2
 55 236 l 2
 55 240 58 244 62 244 c 0
 63 244 63 243 64 243 c 0
 87 237 110 234 135 234 c 0
 198 234 251 249 294 280 c 0
 336 311 356 350 356 399 c 0
 356 448 335 489 292 525 c 0
 249 561 197 578 135 578 c 0
372 399 m 0
 372 345 348 301 302 268 c 0
 257 235 201 218 135 218 c 0
 112 218 90 221 69 226 c 1
 67 8 l 1
 554 12 l 1
 554 118 l 1
 287 116 l 2
 283 116 280 120 280 124 c 0
 280 127 282 130 285 131 c 0
 353 153 407 188 448 236 c 0
 489 284 510 338 510 400 c 0
 510 455 493 506 460 554 c 0
 427 602 382 638 324 666 c 0
 266 694 203 708 135 708 c 0
 113 708 92 706 70 703 c 1
 70 586 l 1
 91 591 112 594 135 594 c 0
 200 594 256 575 302 537 c 0
 348 499 372 453 372 399 c 0
EndSplineSet
EndChar

StartChar: three
Encoding: 51 51 21
Width: 435
VWidth: 0
Flags: HW
LayerCount: 2
Fore
SplineSet
48 -5 m 2
 48 119 l 2
 48 123 51 126 55 126 c 0
 56 126 56 126 57 126 c 0
 65 124 73 124 81 124 c 0
 124 124 160 132 189 148 c 0
 218 164 232 182 232 202 c 0
 232 223 224 239 207 254 c 0
 190 269 170 277 145 280 c 0
 137 280 129 280 121 280 c 2
 107 279 l 1
 106 278 l 2
 102 278 98 282 98 286 c 2
 98 413 l 2
 98 417 102 420 106 420 c 2
 107 420 l 1
 121 418 l 2
 129 418 137 418 145 418 c 0
 171 421 191 430 207 445 c 0
 223 460 232 476 232 496 c 0
 232 516 219 535 191 551 c 0
 163 567 129 576 87 576 c 0
 79 576 71 575 63 573 c 0
 62 573 62 572 61 572 c 0
 57 572 54 576 54 580 c 2
 54 704 l 2
 54 708 56 711 60 711 c 0
 69 712 78 712 87 712 c 0
 172 712 246 692 306 650 c 0
 366 608 398 557 398 496 c 0
 398 439 374 390 327 349 c 1
 374 308 398 259 398 202 c 0
 398 142 366 91 304 49 c 0
 242 7 168 -14 81 -14 c 0
 72 -14 63 -13 54 -12 c 0
 50 -12 48 -9 48 -5 c 2
382 202 m 0
 382 257 359 303 310 343 c 0
 308 344 308 347 308 349 c 0
 308 351 308 354 310 355 c 0
 359 395 382 441 382 496 c 0
 382 551 355 598 297 638 c 0
 239 678 170 698 87 698 c 0
 81 698 74 697 68 697 c 1
 68 589 l 1
 74 590 81 590 87 590 c 0
 131 590 168 582 199 564 c 0
 230 546 246 524 246 496 c 0
 246 472 237 450 218 433 c 0
 199 416 175 407 146 404 c 2
 145 404 l 2
 137 404 128 404 120 404 c 0
 118 404 116 404 114 404 c 1
 114 295 l 1
 116 295 118 296 120 296 c 0
 128 296 137 296 145 296 c 1
 146 295 l 1
 174 292 198 283 217 266 c 0
 236 249 246 227 246 202 c 0
 246 174 229 151 197 134 c 0
 165 117 126 108 81 108 c 0
 75 108 68 109 62 110 c 1
 62 2 l 1
 68 2 75 2 81 2 c 0
 165 2 236 21 295 61 c 0
 354 101 382 148 382 202 c 0
EndSplineSet
EndChar

StartChar: four
Encoding: 52 52 22
Width: 752
VWidth: 0
Flags: HW
LayerCount: 2
Fore
SplineSet
392 184 m 1
 63 184 l 2
 59 184 56 187 56 191 c 0
 56 192 55 194 56 195 c 2
 378 778 l 2
 379 780 382 782 385 782 c 2
 528 782 l 2
 532 782 536 778 536 774 c 2
 536 0 l 2
 536 -4 532 -8 528 -8 c 2
 399 -8 l 2
 395 -8 392 -4 392 0 c 2
 392 184 l 1
399 200 m 0
 403 200 406 196 406 192 c 2
 406 8 l 1
 520 8 l 1
 520 766 l 1
 389 766 l 1
 76 198 l 1
 395 198 l 2
 396 199 398 200 399 200 c 0
286 344 m 0
 286 345 285 347 286 348 c 2
 384 525 l 2
 385 527 388 528 391 528 c 0
 395 528 398 525 398 521 c 2
 398 341 l 2
 398 337 395 333 391 333 c 2
 293 337 l 2
 289 337 286 340 286 344 c 0
306 351 m 1
 384 349 l 1
 384 492 l 1
 306 351 l 1
EndSplineSet
EndChar

StartChar: five
Encoding: 53 53 23
Width: 384
VWidth: 0
Flags: HW
LayerCount: 2
Fore
SplineSet
214 489 m 1
 285 447 346 367 346 260 c 0
 346 187 321 124 269 73 c 0
 217 22 154 -4 81 -4 c 0
 70 -4 60 -4 54 -3 c 0
 50 -3 48 0 48 4 c 2
 48 157 l 2
 48 161 51 164 55 164 c 0
 56 164 56 164 57 164 c 0
 64 162 72 162 81 162 c 0
 109 162 133 171 152 190 c 0
 171 209 180 233 180 260 c 0
 180 288 171 312 152 331 c 0
 133 350 109 360 81 360 c 0
 72 360 64 359 57 357 c 0
 56 357 56 356 55 356 c 0
 51 356 48 360 48 364 c 2
 48 773 l 2
 48 777 52 782 56 782 c 2
 373 782 l 2
 377 782 380 778 380 774 c 2
 379 622 l 2
 379 618 376 614 372 614 c 2
 214 614 l 1
 214 489 l 1
81 10 m 0
 150 10 209 34 258 83 c 0
 307 132 332 191 332 260 c 0
 332 363 272 439 203 478 c 0
 201 479 200 482 200 485 c 2
 200 622 l 2
 200 626 203 630 207 630 c 2
 365 630 l 1
 365 766 l 1
 62 766 l 1
 62 373 l 1
 68 374 75 374 81 374 c 0
 113 374 140 363 162 341 c 0
 184 319 196 292 196 260 c 0
 196 229 184 202 162 180 c 0
 140 158 113 146 81 146 c 0
 75 146 68 147 62 148 c 1
 62 11 l 1
 67 11 74 10 81 10 c 0
EndSplineSet
EndChar

StartChar: six
Encoding: 54 54 24
Width: 729
VWidth: 0
Flags: HW
LayerCount: 2
Fore
SplineSet
437 604 m 0
 382 604 334 586 293 550 c 0
 258 519 234 483 223 439 c 1
 268 480 321 502 383 506 c 0
 388 507 398 508 398 508 c 1
 406 508 l 2
 468 508 524 488 572 449 c 0
 620 410 651 362 665 302 c 0
 669 283 672 262 672 242 c 0
 672 215 667 188 659 162 c 0
 638 98 599 48 540 14 c 0
 506 -9 472 -22 437 -22 c 2
 430 -22 l 2
 422 -23 414 -22 406 -22 c 0
 403 -22 401 -22 398 -22 c 0
 392 -22 387 -22 383 -21 c 0
 329 -16 280 2 238 35 c 1
 180 70 133 118 99 179 c 0
 65 240 48 307 48 380 c 0
 48 490 86 585 162 663 c 0
 238 741 330 780 437 780 c 0
 493 780 532 778 557 773 c 0
 560 772 564 770 564 766 c 2
 564 600 l 2
 564 596 560 592 556 592 c 0
 555 592 555 593 554 593 c 0
 545 596 526 599 500 601 c 0
 473 603 453 604 437 604 c 0
437 620 m 0
 462 620 525 615 548 610 c 1
 548 760 l 1
 524 764 488 766 437 766 c 0
 334 766 245 728 172 653 c 0
 99 578 62 487 62 380 c 0
 62 310 79 246 112 187 c 0
 145 128 190 81 246 47 c 1
 247 47 l 1
 287 16 333 -2 385 -7 c 0
 388 -7 392 -8 398 -8 c 0
 401 -8 403 -8 406 -8 c 0
 414 -8 421 -8 429 -7 c 1
 430 -6 l 1
 437 -6 l 2
 469 -6 500 4 532 26 c 0
 588 58 626 105 645 166 c 0
 653 191 656 216 656 242 c 0
 656 261 655 280 651 298 c 0
 638 354 609 401 563 438 c 0
 517 475 465 492 406 492 c 2
 398 492 l 2
 394 492 389 492 384 492 c 0
 317 488 262 461 217 411 c 0
 216 409 213 408 211 408 c 0
 207 408 204 412 204 416 c 2
 204 417 l 1
 213 475 239 524 283 562 c 0
 327 600 379 620 437 620 c 0
412 372 m 0
 413 372 413 372 414 372 c 0
 440 366 462 354 479 333 c 0
 496 312 504 288 504 260 c 0
 504 233 496 209 479 188 c 0
 462 167 439 154 413 149 c 1
 412 148 l 2
 411 148 411 149 410 149 c 0
 403 147 395 146 388 146 c 0
 380 146 373 147 366 149 c 0
 365 149 365 148 364 148 c 0
 360 148 355 150 352 151 c 0
 341 156 330 161 319 167 c 1
 319 168 l 1
 288 191 272 222 272 260 c 0
 272 288 280 312 297 333 c 0
 314 354 337 367 363 372 c 1
 364 372 l 2
 365 372 365 372 366 372 c 0
 373 373 387 375 388 375 c 0
 395 375 403 374 410 372 c 0
 411 372 411 372 412 372 c 0
388 360 m 0
 381 360 374 359 366 357 c 0
 365 357 365 356 364 356 c 0
 363 356 363 357 362 357 c 0
 341 352 323 341 309 324 c 0
 294 306 286 284 286 260 c 0
 286 226 300 200 327 180 c 0
 337 174 347 169 357 165 c 0
 358 165 360 164 362 164 c 0
 363 164 363 164 364 164 c 0
 365 164 365 164 366 164 c 0
 373 162 380 162 388 162 c 0
 395 162 403 162 410 164 c 0
 411 164 411 164 412 164 c 0
 413 164 413 164 414 164 c 0
 435 169 453 180 467 197 c 0
 482 215 490 236 490 260 c 0
 490 284 482 305 467 323 c 0
 453 340 435 352 414 357 c 0
 413 357 413 356 412 356 c 0
 411 356 411 357 410 357 c 0
 403 359 395 360 388 360 c 0
EndSplineSet
EndChar

StartChar: seven
Encoding: 55 55 25
Width: 610
VWidth: 0
Flags: HW
LayerCount: 2
Fore
SplineSet
218 -8 m 2
 56 -8 l 2
 52 -8 48 -4 48 0 c 0
 48 1 48 3 49 4 c 2
 381 602 l 1
 55 602 l 2
 51 602 48 606 48 610 c 2
 48 762 l 2
 48 766 51 770 55 770 c 2
 565 770 l 2
 569 770 572 766 572 762 c 2
 572 610 l 2
 572 609 573 607 572 606 c 2
 225 -4 l 2
 224 -6 221 -8 218 -8 c 2
558 754 m 1
 62 754 l 1
 62 618 l 1
 394 618 l 2
 398 618 402 614 402 610 c 0
 402 609 402 607 401 606 c 2
 69 8 l 1
 214 8 l 1
 558 612 l 1
 558 754 l 1
EndSplineSet
EndChar

StartChar: eight
Encoding: 56 56 26
Width: 616
VWidth: 0
Flags: HW
LayerCount: 2
Fore
SplineSet
339 372 m 0
 340 372 340 372 341 372 c 0
 367 366 389 354 406 333 c 0
 423 312 432 288 432 260 c 0
 432 233 423 209 406 188 c 0
 389 167 366 154 340 149 c 1
 339 148 l 2
 338 148 338 149 337 149 c 0
 330 147 322 146 315 146 c 0
 307 146 300 147 293 149 c 0
 292 149 292 148 291 148 c 0
 290 148 290 149 289 149 c 0
 263 155 241 167 224 188 c 0
 207 209 198 233 198 260 c 0
 198 288 207 312 224 333 c 0
 241 354 264 367 290 372 c 1
 291 372 l 2
 292 372 292 372 293 372 c 0
 300 374 307 374 315 374 c 0
 322 374 330 374 337 372 c 0
 338 372 338 372 339 372 c 0
315 360 m 0
 307 360 300 359 293 357 c 0
 292 357 292 356 291 356 c 0
 290 356 290 357 289 357 c 0
 268 352 250 341 236 324 c 0
 221 306 214 284 214 260 c 0
 214 236 221 216 236 198 c 0
 250 181 268 169 289 164 c 0
 290 164 290 164 291 164 c 0
 292 164 292 164 293 164 c 0
 300 162 307 162 315 162 c 0
 322 162 330 162 337 164 c 0
 338 164 338 164 339 164 c 0
 340 164 340 164 341 164 c 0
 362 169 380 180 394 197 c 0
 409 215 416 236 416 260 c 0
 416 284 409 305 394 323 c 0
 380 340 362 352 341 357 c 0
 340 357 340 356 339 356 c 0
 338 356 338 357 337 357 c 0
 330 359 322 360 315 360 c 0
339 678 m 0
 340 678 340 677 341 677 c 0
 367 671 389 659 406 638 c 0
 423 617 432 593 432 565 c 0
 432 538 423 514 406 493 c 0
 389 472 366 459 340 454 c 1
 339 454 l 2
 338 454 338 454 337 454 c 0
 330 452 322 452 315 452 c 0
 307 452 300 452 293 454 c 0
 292 454 292 454 291 454 c 0
 290 454 290 454 289 454 c 0
 263 460 241 472 224 493 c 0
 207 514 198 538 198 565 c 0
 198 593 207 617 224 638 c 0
 241 659 264 672 290 677 c 1
 291 678 l 2
 292 678 292 677 293 677 c 0
 300 679 307 680 315 680 c 0
 322 680 330 679 337 677 c 0
 338 677 338 678 339 678 c 0
315 664 m 0
 307 664 300 664 293 662 c 0
 292 662 292 662 291 662 c 0
 290 662 290 662 289 662 c 0
 268 657 250 646 236 629 c 0
 221 611 214 589 214 565 c 0
 214 541 221 521 236 503 c 0
 250 486 268 474 289 469 c 0
 290 469 290 470 291 470 c 0
 292 470 292 469 293 469 c 0
 300 467 307 466 315 466 c 0
 322 466 330 467 337 469 c 0
 338 469 338 470 339 470 c 0
 340 470 340 469 341 469 c 0
 362 474 380 485 394 502 c 0
 409 520 416 541 416 565 c 0
 416 589 409 610 394 628 c 0
 380 645 362 657 341 662 c 0
 340 662 340 662 339 662 c 0
 338 662 338 662 337 662 c 0
 330 664 322 664 315 664 c 0
317 -4 m 0
 314 -4 312 -4 309 -4 c 0
 303 -4 298 -4 294 -3 c 0
 225 2 166 29 119 79 c 0
 71 129 48 190 48 260 c 0
 48 316 64 368 96 413 c 1
 64 458 48 509 48 565 c 0
 48 635 71 696 119 747 c 0
 166 798 225 825 294 829 c 0
 298 830 304 830 309 830 c 2
 317 830 l 2
 390 830 453 805 505 753 c 0
 557 701 582 638 582 565 c 0
 582 509 566 458 534 413 c 1
 566 368 582 316 582 260 c 0
 582 187 557 124 505 73 c 0
 453 22 390 -4 317 -4 c 0
309 10 m 0
 312 10 314 10 317 10 c 0
 386 10 445 34 494 83 c 0
 543 132 568 191 568 260 c 0
 568 315 551 365 519 409 c 0
 518 410 518 411 518 413 c 0
 518 415 518 416 519 417 c 0
 551 461 568 511 568 565 c 0
 568 634 543 693 494 742 c 0
 445 791 386 816 317 816 c 2
 309 816 l 2
 304 816 299 815 295 815 c 0
 229 811 175 784 130 736 c 0
 85 688 62 631 62 565 c 0
 62 511 79 461 111 417 c 0
 112 416 112 415 112 413 c 0
 112 411 112 410 111 409 c 0
 79 365 62 315 62 260 c 0
 62 194 85 138 130 90 c 0
 175 42 230 16 296 11 c 0
 300 11 304 10 309 10 c 0
EndSplineSet
EndChar

StartChar: nine
Encoding: 57 57 27
Width: 729
VWidth: 0
Flags: HW
LayerCount: 2
Fore
SplineSet
282 154 m 0
 337 154 385 172 426 208 c 0
 461 239 485 275 496 319 c 1
 451 278 398 256 336 252 c 0
 331 251 321 250 321 250 c 1
 313 250 l 2
 251 250 195 270 147 309 c 0
 99 348 68 396 54 456 c 0
 50 475 48 496 48 516 c 0
 48 543 52 570 60 596 c 0
 81 660 120 710 179 744 c 0
 213 767 247 780 282 780 c 2
 289 780 l 2
 297 781 305 780 313 780 c 0
 316 780 318 780 321 780 c 0
 327 780 332 780 336 779 c 0
 390 774 439 756 481 723 c 1
 539 688 586 640 620 579 c 0
 654 518 672 451 672 378 c 0
 672 268 633 173 557 95 c 0
 481 17 389 -22 282 -22 c 0
 226 -22 187 -20 162 -15 c 0
 159 -14 156 -12 156 -8 c 2
 156 158 l 2
 156 162 159 166 163 166 c 0
 164 166 164 165 165 165 c 0
 174 162 193 159 219 157 c 0
 246 155 266 154 282 154 c 0
282 138 m 0
 257 138 193 143 170 148 c 1
 170 -2 l 1
 194 -6 231 -8 282 -8 c 0
 385 -8 474 30 547 105 c 0
 620 180 656 271 656 378 c 0
 656 448 640 512 607 571 c 0
 574 630 529 677 473 711 c 1
 472 711 l 1
 432 742 386 760 334 765 c 0
 331 765 327 766 321 766 c 0
 318 766 316 766 313 766 c 0
 305 766 298 766 290 765 c 1
 289 764 l 1
 282 764 l 2
 250 764 219 754 187 732 c 0
 131 700 93 653 74 592 c 0
 66 567 62 542 62 516 c 0
 62 497 64 478 68 460 c 0
 81 404 110 357 156 320 c 0
 202 283 254 266 313 266 c 2
 321 266 l 2
 325 266 330 266 335 266 c 0
 402 270 457 297 502 347 c 0
 503 349 506 350 508 350 c 0
 512 350 516 346 516 342 c 2
 515 341 l 1
 506 283 480 234 436 196 c 0
 392 158 340 138 282 138 c 0
307 386 m 0
 306 386 306 386 305 386 c 0
 279 392 257 404 240 425 c 0
 223 446 214 470 214 498 c 0
 214 525 223 549 240 570 c 0
 257 591 280 604 306 609 c 1
 307 610 l 2
 308 610 308 609 309 609 c 0
 316 611 324 612 331 612 c 0
 339 612 346 611 353 609 c 0
 354 609 354 610 355 610 c 0
 359 610 364 608 367 607 c 0
 378 602 389 597 400 591 c 1
 400 590 l 1
 431 567 448 536 448 498 c 0
 448 470 439 446 422 425 c 0
 405 404 382 391 356 386 c 1
 355 386 l 2
 354 386 354 386 353 386 c 0
 346 385 332 383 331 383 c 0
 324 383 316 384 309 386 c 0
 308 386 308 386 307 386 c 0
331 398 m 0
 338 398 345 399 353 401 c 0
 354 401 354 402 355 402 c 0
 356 402 356 401 357 401 c 0
 378 406 396 417 410 434 c 0
 425 452 432 474 432 498 c 0
 432 532 419 558 392 578 c 0
 382 584 372 589 362 593 c 0
 361 593 359 594 357 594 c 0
 356 594 356 594 355 594 c 0
 354 594 354 594 353 594 c 0
 346 596 339 596 331 596 c 0
 324 596 316 596 309 594 c 0
 308 594 308 594 307 594 c 0
 306 594 306 594 305 594 c 0
 284 589 266 578 252 561 c 0
 237 543 230 522 230 498 c 0
 230 474 237 453 252 435 c 0
 266 418 284 406 305 401 c 0
 306 401 306 402 307 402 c 0
 308 402 308 401 309 401 c 0
 316 399 324 398 331 398 c 0
EndSplineSet
EndChar

StartChar: colon
Encoding: 58 58 28
Width: 252
VWidth: 0
Flags: HW
LayerCount: 2
Fore
SplineSet
48 398 m 2
 48 540 l 2
 48 544 51 548 55 548 c 2
 207 548 l 2
 211 548 214 544 214 540 c 2
 214 398 l 2
 214 394 211 390 207 390 c 2
 55 390 l 2
 51 390 48 394 48 398 c 2
62 532 m 1
 62 406 l 1
 200 406 l 1
 200 532 l 1
 62 532 l 1
48 -2 m 2
 48 140 l 2
 48 144 51 148 55 148 c 2
 207 148 l 2
 211 148 214 144 214 140 c 2
 214 -2 l 2
 214 -6 211 -10 207 -10 c 2
 55 -10 l 2
 51 -10 48 -6 48 -2 c 2
62 132 m 1
 62 6 l 1
 200 6 l 1
 200 132 l 1
 62 132 l 1
EndSplineSet
EndChar

StartChar: semicolon
Encoding: 59 59 29
Width: 252
VWidth: 0
Flags: HW
LayerCount: 2
Fore
SplineSet
48 -2 m 2
 48 140 l 2
 48 144 51 148 55 148 c 2
 207 148 l 2
 211 148 214 144 214 140 c 2
 214 -2 l 2
 214 -3 214 -4 214 -5 c 2
 154 -137 l 2
 153 -140 150 -142 147 -142 c 2
 146 -141 l 1
 88 -137 l 2
 84 -137 82 -134 82 -130 c 2
 82 -129 l 1
 90 -10 l 1
 55 -10 l 2
 51 -10 48 -6 48 -2 c 2
62 132 m 1
 62 6 l 1
 98 6 l 2
 102 6 106 2 106 -2 c 2
 105 -3 l 1
 97 -123 l 1
 142 -126 l 1
 200 -0 l 1
 200 132 l 1
 62 132 l 1
48 398 m 2
 48 540 l 2
 48 544 51 548 55 548 c 2
 207 548 l 2
 211 548 214 544 214 540 c 2
 214 398 l 2
 214 394 211 390 207 390 c 2
 55 390 l 2
 51 390 48 394 48 398 c 2
62 532 m 1
 62 406 l 1
 200 406 l 1
 200 532 l 1
 62 532 l 1
EndSplineSet
EndChar

StartChar: less
Encoding: 60 60 30
Width: 644
VWidth: 0
Flags: HW
LayerCount: 2
Fore
SplineSet
606 546 m 2
 606 394 l 2
 606 391 604 388 601 387 c 2
 419 339 l 1
 600 303 l 2
 603 302 606 300 606 296 c 2
 606 144 l 2
 606 140 603 136 599 136 c 2
 598 137 l 1
 54 243 l 2
 51 244 48 246 48 250 c 2
 48 403 l 2
 48 406 50 409 53 410 c 2
 597 553 l 2
 598 553 598 554 599 554 c 0
 603 554 606 550 606 546 c 2
378 338 m 0
 378 341 380 344 383 345 c 2
 592 400 l 1
 592 536 l 1
 62 397 l 1
 62 256 l 1
 592 153 l 1
 592 290 l 1
 384 331 l 2
 381 332 378 334 378 338 c 0
EndSplineSet
EndChar

StartChar: equal
Encoding: 61 61 31
Width: 644
VWidth: 0
Flags: HW
LayerCount: 2
Fore
SplineSet
606 296 m 2
 606 144 l 2
 606 140 603 136 599 136 c 2
 55 136 l 2
 51 136 48 140 48 144 c 2
 48 296 l 2
 48 300 51 304 55 304 c 2
 599 304 l 2
 603 304 606 300 606 296 c 2
592 152 m 1
 592 288 l 1
 62 288 l 1
 62 152 l 1
 592 152 l 1
606 546 m 2
 606 394 l 2
 606 390 603 386 599 386 c 2
 55 386 l 2
 51 386 48 390 48 394 c 2
 48 546 l 2
 48 550 51 554 55 554 c 2
 599 554 l 2
 603 554 606 550 606 546 c 2
592 402 m 1
 592 538 l 1
 62 538 l 1
 62 402 l 1
 592 402 l 1
EndSplineSet
EndChar

StartChar: greater
Encoding: 62 62 32
Width: 644
VWidth: 0
Flags: HW
LayerCount: 2
Fore
SplineSet
606 403 m 2
 606 250 l 2
 606 246 603 244 600 243 c 2
 56 137 l 1
 55 136 l 2
 51 136 48 140 48 144 c 2
 48 296 l 2
 48 300 51 302 54 303 c 2
 235 339 l 1
 53 387 l 2
 50 388 48 391 48 394 c 2
 48 546 l 2
 48 550 51 554 55 554 c 0
 56 554 56 553 57 553 c 2
 601 410 l 2
 604 409 606 406 606 403 c 2
276 338 m 0
 276 334 273 332 270 331 c 2
 62 290 l 1
 62 153 l 1
 592 256 l 1
 592 397 l 1
 62 536 l 1
 62 400 l 1
 271 345 l 2
 274 344 276 341 276 338 c 0
EndSplineSet
EndChar

StartChar: question
Encoding: 63 63 33
Width: 384
VWidth: 0
Flags: HW
LayerCount: 2
Fore
SplineSet
48 -2 m 2
 48 140 l 2
 48 144 51 148 55 148 c 2
 207 148 l 2
 211 148 214 144 214 140 c 2
 214 -2 l 2
 214 -6 211 -10 207 -10 c 2
 55 -10 l 2
 51 -10 48 -6 48 -2 c 2
62 132 m 1
 62 6 l 1
 200 6 l 1
 200 132 l 1
 62 132 l 1
81 836 m 0
 154 836 217 810 269 759 c 0
 321 708 346 645 346 572 c 0
 346 523 334 477 309 436 c 0
 285 396 253 365 214 343 c 1
 214 230 l 2
 214 226 211 222 207 222 c 2
 55 222 l 2
 51 222 48 226 48 230 c 2
 48 468 l 2
 48 472 51 476 55 476 c 0
 56 476 56 475 57 475 c 0
 64 473 72 472 81 472 c 0
 109 472 133 482 152 501 c 0
 171 520 180 544 180 572 c 0
 180 599 171 623 152 642 c 0
 133 661 109 670 81 670 c 0
 72 670 64 670 57 668 c 0
 56 668 56 668 55 668 c 0
 51 668 48 671 48 675 c 2
 48 828 l 2
 48 832 50 835 54 835 c 0
 60 836 70 836 81 836 c 0
200 238 m 1
 200 347 l 2
 200 350 201 353 203 354 c 0
 242 375 274 405 297 444 c 0
 320 483 332 525 332 572 c 0
 332 641 307 700 258 749 c 0
 209 798 150 822 81 822 c 0
 74 822 67 821 62 821 c 1
 62 684 l 1
 68 685 75 686 81 686 c 0
 113 686 140 674 162 652 c 0
 184 630 196 603 196 572 c 0
 196 540 184 513 162 491 c 0
 140 469 113 458 81 458 c 0
 75 458 68 458 62 459 c 1
 62 238 l 1
 200 238 l 1
EndSplineSet
EndChar

StartChar: B
Encoding: 66 66 34
Width: 512
VWidth: 0
Flags: HW
LayerCount: 2
Fore
SplineSet
225 788 m 2
 298 788 361 762 413 710 c 0
 465 658 490 595 490 522 c 0
 490 505 485 489 475 473 c 0
 465 458 453 442 436 424 c 0
 424 411 415 402 410 396 c 1
 438 367 l 2
 459 345 473 327 482 311 c 0
 491 295 496 278 496 260 c 0
 496 187 471 124 419 73 c 0
 367 22 304 -4 231 -4 c 0
 220 -4 213 -5 207 -4 c 2
 55 -4 l 2
 51 -4 48 0 48 4 c 2
 48 780 l 2
 48 784 51 788 55 788 c 2
 225 788 l 2
62 12 m 1
 207 12 l 1
 208 11 l 2
 213 10 221 10 231 10 c 0
 300 10 359 34 408 83 c 0
 457 132 482 191 482 260 c 0
 482 275 478 290 470 304 c 0
 462 318 447 336 427 357 c 2
 395 391 l 2
 394 392 392 394 392 396 c 0
 392 398 393 400 394 401 c 0
 398 406 409 417 425 434 c 0
 441 451 454 467 463 481 c 0
 472 495 476 508 476 522 c 0
 476 591 451 650 402 699 c 0
 353 748 294 772 225 772 c 2
 62 772 l 1
 62 12 l 1
200 136 m 2
 200 343 l 2
 200 347 202 349 205 350 c 0
 214 352 222 354 231 354 c 0
 263 354 290 342 312 320 c 0
 334 298 346 271 346 239 c 0
 346 208 334 181 312 159 c 0
 290 137 263 126 231 126 c 0
 222 126 214 127 205 129 c 0
 202 130 200 132 200 136 c 2
231 140 m 0
 259 140 283 150 302 169 c 0
 321 188 330 212 330 239 c 0
 330 267 321 291 302 310 c 0
 283 329 259 338 231 338 c 0
 226 338 220 338 214 337 c 1
 214 142 l 1
 220 141 226 140 231 140 c 0
200 454 m 2
 200 661 l 2
 200 665 202 667 205 668 c 0
 214 670 222 672 231 672 c 0
 263 672 290 660 312 638 c 0
 334 616 346 589 346 557 c 0
 346 526 334 499 312 477 c 0
 290 455 263 444 231 444 c 0
 222 444 214 445 205 447 c 0
 202 448 200 450 200 454 c 2
330 557 m 0
 330 585 321 609 302 628 c 0
 283 647 259 656 231 656 c 0
 226 656 220 656 214 655 c 1
 214 460 l 1
 220 459 226 458 231 458 c 0
 259 458 283 468 302 487 c 0
 321 506 330 530 330 557 c 0
EndSplineSet
EndChar

StartChar: C
Encoding: 67 67 35
Width: 555
VWidth: 0
Flags: HW
LayerCount: 2
Fore
SplineSet
437 604 m 0
 376 604 323 582 280 538 c 0
 237 494 216 441 216 378 c 0
 216 314 237 261 280 217 c 0
 323 173 376 150 437 150 c 0
 462 150 485 154 508 162 c 0
 509 162 509 162 510 162 c 0
 514 162 518 159 518 155 c 2
 518 -7 l 2
 518 -11 514 -13 511 -14 c 0
 487 -19 462 -22 437 -22 c 0
 330 -22 238 18 162 96 c 0
 86 174 48 270 48 380 c 0
 48 490 86 585 162 663 c 0
 238 741 330 780 437 780 c 0
 462 780 487 778 511 773 c 0
 514 772 518 770 518 766 c 2
 518 600 l 2
 518 596 514 592 510 592 c 0
 509 592 509 593 508 593 c 0
 485 601 462 604 437 604 c 0
437 136 m 0
 372 136 316 159 270 206 c 0
 224 253 200 311 200 378 c 0
 200 444 224 502 270 549 c 0
 316 596 372 620 437 620 c 0
 460 620 481 616 502 610 c 1
 502 760 l 1
 480 764 459 766 437 766 c 0
 334 766 245 728 172 653 c 0
 99 578 62 487 62 380 c 0
 62 273 99 183 172 107 c 0
 245 31 334 -6 437 -6 c 0
 459 -6 480 -5 502 -1 c 1
 502 145 l 1
 481 139 460 136 437 136 c 0
EndSplineSet
EndChar

StartChar: D
Encoding: 68 68 36
Width: 630
VWidth: 0
Flags: HW
LayerCount: 2
Fore
SplineSet
81 773 m 0
 93 773 108 773 128 775 c 0
 167 778 192 780 203 780 c 0
 310 780 402 741 478 663 c 0
 554 585 592 490 592 380 c 0
 592 307 575 240 541 179 c 0
 507 118 460 70 401 34 c 0
 342 -2 277 -21 207 -22 c 2
 55 -22 l 2
 51 -22 48 -18 48 -14 c 2
 48 768 l 2
 48 772 51 776 55 776 c 0
 56 776 56 775 57 775 c 0
 60 774 69 773 81 773 c 0
62 -6 m 1
 207 -6 l 2
 274 -5 336 11 393 46 c 0
 450 81 495 128 528 187 c 0
 561 246 578 310 578 380 c 0
 578 487 541 578 468 653 c 0
 395 728 306 766 203 766 c 0
 194 766 169 764 130 761 c 0
 110 759 94 758 81 758 c 0
 74 758 67 758 62 759 c 1
 62 -6 l 1
200 143 m 2
 200 612 l 2
 200 616 203 620 207 620 c 1
 207 619 l 1
 272 618 327 594 372 547 c 0
 417 500 440 444 440 378 c 0
 440 312 417 255 372 208 c 0
 327 161 272 137 207 136 c 0
 203 136 200 139 200 143 c 2
424 378 m 0
 424 440 403 493 361 537 c 0
 320 579 271 601 214 604 c 1
 214 151 l 1
 271 154 320 177 361 219 c 0
 403 263 424 316 424 378 c 0
EndSplineSet
EndChar

StartChar: E
Encoding: 69 69 37
Width: 668
VWidth: 0
Flags: HW
LayerCount: 2
Fore
SplineSet
56 -10 m 2
 52 -10 48 -6 48 -2 c 2
 48 778 l 2
 48 782 51 786 55 786 c 2
 622 786 l 2
 626 786 629 782 629 778 c 2
 630 626 l 2
 630 622 627 618 623 618 c 2
 214 618 l 1
 214 492 l 1
 514 492 l 2
 518 492 521 489 521 485 c 2
 522 333 l 2
 522 329 519 326 515 326 c 2
 214 326 l 1
 214 156 l 1
 622 156 l 2
 626 156 629 153 629 149 c 2
 630 -3 l 2
 630 -7 627 -10 623 -10 c 2
 56 -10 l 2
207 478 m 2
 203 478 200 481 200 485 c 2
 200 626 l 2
 200 630 203 634 207 634 c 2
 615 634 l 1
 615 770 l 1
 62 770 l 1
 62 4 l 1
 615 4 l 1
 615 142 l 1
 207 142 l 2
 203 142 200 145 200 149 c 2
 200 333 l 2
 200 337 203 340 207 340 c 2
 507 340 l 1
 507 478 l 1
 207 478 l 2
EndSplineSet
EndChar

StartChar: F
Encoding: 70 70 38
Width: 668
VWidth: 0
Flags: HW
LayerCount: 2
Fore
SplineSet
515 326 m 2
 214 326 l 1
 214 -2 l 2
 214 -6 211 -10 207 -10 c 2
 55 -10 l 2
 51 -10 48 -6 48 -2 c 2
 48 778 l 2
 48 782 51 786 55 786 c 2
 622 786 l 2
 626 786 629 782 629 778 c 2
 630 626 l 2
 630 622 627 618 623 618 c 2
 214 618 l 1
 214 492 l 1
 514 492 l 2
 518 492 521 489 521 485 c 2
 522 333 l 2
 522 329 519 326 515 326 c 2
207 478 m 2
 203 478 200 481 200 485 c 2
 200 626 l 2
 200 630 203 634 207 634 c 2
 615 634 l 1
 615 770 l 1
 62 770 l 1
 62 6 l 1
 200 6 l 1
 200 333 l 2
 200 337 203 340 207 340 c 2
 507 340 l 1
 507 478 l 1
 207 478 l 2
EndSplineSet
EndChar

StartChar: G
Encoding: 71 71 39
Width: 651
VWidth: 0
Flags: HW
LayerCount: 2
Fore
SplineSet
437 604 m 0
 376 604 323 582 280 538 c 0
 237 494 216 441 216 378 c 0
 216 314 237 261 280 217 c 0
 323 173 376 150 437 150 c 0
 440 150 443 151 446 151 c 1
 446 313 l 2
 446 317 450 320 454 320 c 2
 606 320 l 2
 610 320 614 317 614 313 c 2
 614 -14 l 2
 614 -18 610 -22 606 -22 c 2
 437 -22 l 2
 330 -22 238 18 162 96 c 0
 86 174 48 270 48 380 c 0
 48 490 86 585 162 663 c 0
 238 741 330 780 437 780 c 0
 462 780 487 778 511 773 c 0
 514 772 518 770 518 766 c 2
 518 600 l 2
 518 596 514 592 510 592 c 0
 509 592 509 593 508 593 c 0
 485 601 462 604 437 604 c 0
462 306 m 1
 462 144 l 2
 462 140 459 137 455 137 c 0
 449 136 443 136 437 136 c 0
 372 136 316 159 270 206 c 0
 224 253 200 311 200 378 c 0
 200 444 224 502 270 549 c 0
 316 596 372 620 437 620 c 0
 460 620 481 616 502 610 c 1
 502 760 l 1
 480 764 459 766 437 766 c 0
 334 766 245 728 172 653 c 0
 99 578 62 487 62 380 c 0
 62 273 99 183 172 107 c 0
 245 31 334 -6 437 -6 c 2
 598 -6 l 1
 598 306 l 1
 462 306 l 1
EndSplineSet
EndChar

StartChar: H
Encoding: 72 72 40
Width: 652
VWidth: 0
Flags: HW
LayerCount: 2
Fore
SplineSet
455 782 m 2
 607 782 l 2
 611 782 614 778 614 774 c 2
 614 -2 l 2
 614 -6 611 -10 607 -10 c 2
 455 -10 l 2
 451 -10 448 -6 448 -2 c 2
 448 326 l 1
 214 326 l 1
 214 -2 l 2
 214 -6 211 -10 207 -10 c 2
 55 -10 l 2
 51 -10 48 -6 48 -2 c 2
 48 774 l 2
 48 778 51 782 55 782 c 2
 207 782 l 2
 211 782 214 778 214 774 c 2
 214 492 l 1
 448 492 l 1
 448 774 l 2
 448 778 451 782 455 782 c 2
600 766 m 1
 462 766 l 1
 462 485 l 2
 462 481 459 478 455 478 c 2
 207 478 l 2
 203 478 200 481 200 485 c 2
 200 766 l 1
 62 766 l 1
 62 6 l 1
 200 6 l 1
 200 333 l 2
 200 337 203 340 207 340 c 2
 455 340 l 2
 459 340 462 337 462 333 c 2
 462 6 l 1
 600 6 l 1
 600 766 l 1
EndSplineSet
EndChar

StartChar: I
Encoding: 73 73 41
Width: 252
VWidth: 0
Flags: HW
LayerCount: 2
Fore
SplineSet
55 782 m 2
 207 782 l 2
 211 782 214 778 214 774 c 2
 214 -2 l 2
 214 -6 211 -10 207 -10 c 2
 55 -10 l 2
 51 -10 48 -6 48 -2 c 2
 48 774 l 2
 48 778 51 782 55 782 c 2
200 766 m 1
 62 766 l 1
 62 6 l 1
 200 6 l 1
 200 766 l 1
EndSplineSet
EndChar

StartChar: J
Encoding: 74 74 42
Width: 419
VWidth: 0
Flags: HW
LayerCount: 2
Fore
SplineSet
48 6 m 2
 48 174 l 2
 48 178 51 182 55 182 c 0
 57 182 59 181 60 180 c 0
 79 164 101 156 126 156 c 0
 156 156 180 166 200 188 c 1
 200 761 l 2
 200 765 203 768 207 768 c 2
 374 768 l 2
 378 768 381 765 381 761 c 2
 378 184 l 2
 378 183 378 183 378 182 c 0
 362 125 331 79 285 43 c 0
 239 7 186 -10 126 -10 c 0
 101 -10 76 -7 53 -1 c 0
 50 0 48 3 48 6 c 2
214 754 m 1
 214 185 l 2
 214 183 214 181 213 180 c 0
 190 154 161 140 126 140 c 0
 103 140 81 147 62 159 c 1
 62 12 l 1
 82 7 104 4 126 4 c 0
 182 4 232 21 275 55 c 0
 318 89 348 132 364 185 c 1
 366 754 l 1
 214 754 l 1
EndSplineSet
EndChar

StartChar: K
Encoding: 75 75 43
Width: 703
VWidth: 0
Flags: HW
LayerCount: 2
Fore
SplineSet
55 782 m 2
 207 782 l 2
 211 782 214 778 214 774 c 2
 214 456 l 1
 446 774 l 2
 447 776 449 777 452 777 c 2
 638 775 l 2
 642 775 646 772 646 768 c 0
 646 766 645 765 644 764 c 2
 386 387 l 1
 714 2 l 2
 715 1 716 -1 716 -3 c 0
 716 -7 712 -10 708 -10 c 2
 516 -9 l 2
 514 -9 511 -9 510 -7 c 2
 265 290 l 1
 214 217 l 1
 214 -2 l 2
 214 -6 211 -10 207 -10 c 2
 55 -10 l 2
 51 -10 48 -6 48 -2 c 2
 48 774 l 2
 48 778 51 782 55 782 c 2
200 766 m 1
 62 766 l 1
 62 6 l 1
 200 6 l 1
 200 219 l 2
 200 221 200 222 201 223 c 2
 258 306 l 2
 259 308 261 310 264 310 c 0
 266 310 269 309 270 307 c 2
 520 5 l 1
 692 5 l 1
 371 382 l 2
 370 383 370 385 370 387 c 0
 370 389 370 390 371 391 c 2
 624 761 l 1
 456 762 l 1
 213 429 l 2
 212 427 209 426 207 426 c 0
 203 426 200 429 200 433 c 2
 200 766 l 1
EndSplineSet
EndChar

StartChar: L
Encoding: 76 76 44
Width: 718
VWidth: 0
Flags: HW
LayerCount: 2
Fore
SplineSet
56 -10 m 2
 52 -10 48 -6 48 -2 c 2
 48 774 l 2
 48 778 51 782 55 782 c 2
 207 782 l 2
 211 782 214 778 214 774 c 2
 214 156 l 1
 672 156 l 2
 676 156 679 153 679 149 c 2
 680 -3 l 2
 680 -7 677 -10 673 -10 c 2
 56 -10 l 2
200 766 m 1
 62 766 l 1
 62 4 l 1
 665 4 l 1
 665 142 l 1
 207 142 l 2
 203 142 200 145 200 149 c 2
 200 766 l 1
EndSplineSet
EndChar

StartChar: M
Encoding: 77 77 45
Width: 1052
VWidth: 0
Flags: HW
LayerCount: 2
Fore
SplineSet
55 776 m 2
 207 776 l 2
 210 776 213 773 214 771 c 2
 531 162 l 1
 848 771 l 2
 849 773 852 776 855 776 c 2
 1007 776 l 2
 1011 776 1014 772 1014 768 c 2
 1014 -2 l 2
 1014 -6 1011 -10 1007 -10 c 2
 855 -10 l 2
 851 -10 848 -6 848 -2 c 2
 848 445 l 1
 614 -3 l 2
 613 -5 610 -8 607 -8 c 2
 455 -8 l 2
 452 -8 449 -5 448 -3 c 2
 214 445 l 1
 214 -2 l 2
 214 -6 211 -10 207 -10 c 2
 55 -10 l 2
 51 -10 48 -6 48 -2 c 2
 48 768 l 2
 48 772 51 776 55 776 c 2
62 760 m 1
 62 6 l 1
 200 6 l 1
 200 476 l 2
 200 480 203 484 207 484 c 0
 210 484 213 481 214 479 c 2
 460 8 l 1
 602 8 l 1
 848 479 l 2
 849 481 852 484 855 484 c 0
 859 484 862 480 862 476 c 2
 862 6 l 1
 1000 6 l 1
 1000 760 l 1
 860 760 l 1
 538 143 l 2
 537 141 534 138 531 138 c 0
 528 138 525 141 524 143 c 2
 202 760 l 1
 62 760 l 1
EndSplineSet
EndChar

StartChar: N
Encoding: 78 78 46
Width: 852
VWidth: 0
Flags: HW
LayerCount: 2
Fore
SplineSet
55 782 m 2
 207 782 l 2
 209 782 212 781 213 779 c 2
 648 271 l 1
 648 774 l 2
 648 778 651 782 655 782 c 2
 807 782 l 2
 811 782 814 778 814 774 c 2
 814 -2 l 2
 814 -6 811 -10 807 -10 c 2
 655 -10 l 2
 653 -10 650 -9 649 -7 c 2
 214 503 l 1
 214 -2 l 2
 214 -6 211 -10 207 -10 c 2
 55 -10 l 2
 51 -10 48 -6 48 -2 c 2
 48 774 l 2
 48 778 51 782 55 782 c 2
62 766 m 1
 62 6 l 1
 200 6 l 1
 200 523 l 2
 200 527 203 530 207 530 c 0
 209 530 212 530 213 528 c 2
 658 6 l 1
 800 6 l 1
 800 766 l 1
 662 766 l 1
 662 251 l 2
 662 247 659 244 655 244 c 0
 653 244 650 244 649 246 c 2
 204 766 l 1
 62 766 l 1
EndSplineSet
EndChar

StartChar: O
Encoding: 79 79 47
Width: 864
VWidth: 0
Flags: HW
LayerCount: 2
Fore
SplineSet
826 380 m 0
 826 270 788 174 712 96 c 0
 636 18 544 -22 437 -22 c 0
 330 -22 238 18 162 96 c 0
 86 174 48 270 48 380 c 0
 48 490 86 585 162 663 c 0
 238 741 330 780 437 780 c 0
 544 780 636 741 712 663 c 0
 788 585 826 490 826 380 c 0
812 380 m 0
 812 487 775 578 702 653 c 0
 629 728 540 766 437 766 c 0
 334 766 245 728 172 653 c 0
 99 578 62 487 62 380 c 0
 62 273 99 183 172 107 c 0
 245 31 334 -6 437 -6 c 0
 540 -6 629 31 702 107 c 0
 775 183 812 273 812 380 c 0
674 378 m 0
 674 311 650 253 604 206 c 0
 558 159 502 136 437 136 c 0
 372 136 316 159 270 206 c 0
 224 253 200 311 200 378 c 0
 200 444 224 502 270 549 c 0
 316 596 372 620 437 620 c 0
 502 620 558 596 604 549 c 0
 650 502 674 444 674 378 c 0
658 378 m 0
 658 441 637 494 594 538 c 0
 551 582 498 604 437 604 c 0
 376 604 323 582 280 538 c 0
 237 494 216 441 216 378 c 0
 216 314 237 261 280 217 c 0
 323 173 376 150 437 150 c 0
 498 150 551 173 594 217 c 0
 637 261 658 314 658 378 c 0
EndSplineSet
EndChar

StartChar: P
Encoding: 80 80 48
Width: 534
VWidth: 0
Flags: HW
LayerCount: 2
Fore
SplineSet
207 -4 m 2
 55 -4 l 2
 51 -4 48 -1 48 3 c 2
 48 779 l 2
 48 783 51 786 55 786 c 2
 207 786 l 2
 213 787 220 788 231 788 c 0
 304 788 367 761 419 710 c 0
 471 659 496 596 496 523 c 0
 496 450 471 387 419 335 c 0
 367 283 304 258 231 258 c 0
 225 258 219 258 214 258 c 1
 214 3 l 2
 214 -1 211 -4 207 -4 c 2
62 10 m 1
 200 10 l 1
 200 266 l 2
 200 270 203 274 207 274 c 2
 208 273 l 2
 213 272 221 272 231 272 c 0
 300 272 359 297 408 346 c 0
 457 395 482 454 482 523 c 0
 482 592 457 651 408 700 c 0
 359 749 300 772 231 772 c 0
 221 772 213 773 208 772 c 2
 207 772 l 1
 62 772 l 1
 62 10 l 1
231 636 m 0
 263 636 290 625 312 603 c 0
 334 581 346 554 346 523 c 0
 346 491 334 464 312 442 c 0
 290 420 263 408 231 408 c 0
 222 408 214 410 205 412 c 0
 202 413 200 415 200 419 c 2
 200 626 l 2
 200 630 202 632 205 633 c 0
 214 635 222 636 231 636 c 0
330 523 m 0
 330 550 321 574 302 593 c 0
 283 612 259 622 231 622 c 0
 226 622 220 621 214 620 c 1
 214 425 l 1
 220 424 226 424 231 424 c 0
 259 424 283 433 302 452 c 0
 321 471 330 495 330 523 c 0
EndSplineSet
EndChar

StartChar: Q
Encoding: 81 81 49
Width: 864
VWidth: 0
Flags: HW
LayerCount: 2
Fore
SplineSet
674 378 m 0
 674 311 650 253 604 206 c 0
 558 159 502 136 437 136 c 0
 372 136 316 159 270 206 c 0
 224 253 200 311 200 378 c 0
 200 444 224 502 270 549 c 0
 316 596 372 620 437 620 c 0
 502 620 558 596 604 549 c 0
 650 502 674 444 674 378 c 0
658 378 m 0
 658 441 637 494 594 538 c 0
 551 582 498 604 437 604 c 0
 376 604 323 582 280 538 c 0
 237 494 216 441 216 378 c 0
 216 314 237 261 280 217 c 0
 323 173 376 150 437 150 c 0
 498 150 551 173 594 217 c 0
 637 261 658 314 658 378 c 0
826 380 m 0
 826 252 771 151 701 85 c 1
 832 -47 l 2
 833 -48 834 -50 834 -52 c 0
 834 -54 833 -56 832 -57 c 2
 694 -196 l 2
 693 -197 691 -198 689 -198 c 0
 687 -198 685 -197 684 -196 c 2
 503 -16 l 1
 481 -20 459 -22 437 -22 c 0
 330 -22 238 18 162 96 c 0
 86 174 48 270 48 380 c 0
 48 490 86 585 162 663 c 0
 238 741 330 780 437 780 c 0
 544 780 636 741 712 663 c 0
 788 585 826 490 826 380 c 0
812 380 m 0
 812 487 775 578 702 653 c 0
 629 728 540 766 437 766 c 0
 334 766 245 728 172 653 c 0
 99 578 62 487 62 380 c 0
 62 273 99 183 172 107 c 0
 245 31 334 -6 437 -6 c 0
 460 -6 483 -5 505 -1 c 1
 506 -0 l 2
 508 0 510 -2 511 -3 c 2
 689 -180 l 1
 816 -52 l 1
 685 80 l 2
 684 81 682 83 682 85 c 0
 682 87 683 90 685 91 c 0
 756 155 812 253 812 380 c 0
EndSplineSet
EndChar

StartChar: R
Encoding: 82 82 50
Width: 512
VWidth: 0
Flags: HW
LayerCount: 2
Fore
SplineSet
231 636 m 0
 263 636 290 625 312 603 c 0
 334 581 346 554 346 523 c 0
 346 491 334 464 312 442 c 0
 290 420 263 408 231 408 c 0
 222 408 214 410 205 412 c 0
 202 413 200 415 200 419 c 2
 200 626 l 2
 200 630 202 632 205 633 c 0
 214 635 222 636 231 636 c 0
330 523 m 0
 330 550 321 574 302 593 c 0
 283 612 259 622 231 622 c 0
 226 622 220 621 214 620 c 1
 214 425 l 1
 220 424 226 424 231 424 c 0
 259 424 283 433 302 452 c 0
 321 471 330 495 330 523 c 0
207 -4 m 2
 55 -4 l 2
 51 -4 48 -1 48 3 c 2
 48 779 l 2
 48 783 51 786 55 786 c 2
 207 786 l 2
 213 787 220 788 231 788 c 0
 304 788 367 761 419 710 c 0
 471 659 496 596 496 523 c 0
 496 466 481 415 448 369 c 0
 417 326 378 295 330 276 c 1
 523 1 l 2
 524 0 524 -1 524 -3 c 0
 524 -7 521 -10 517 -10 c 2
 377 -10 l 2
 374 -10 372 -9 371 -7 c 2
 214 248 l 1
 214 3 l 2
 214 -1 211 -4 207 -4 c 2
62 10 m 1
 200 10 l 1
 200 266 l 2
 200 270 203 274 207 274 c 2
 212 274 l 2
 215 274 217 272 218 270 c 2
 381 4 l 1
 503 4 l 1
 312 276 l 2
 311 277 310 278 310 280 c 0
 310 283 312 286 315 287 c 0
 364 305 404 335 435 378 c 0
 466 421 482 469 482 523 c 0
 482 592 457 651 408 700 c 0
 359 749 300 772 231 772 c 0
 221 772 213 773 208 772 c 2
 207 772 l 1
 62 772 l 1
 62 10 l 1
EndSplineSet
EndChar

StartChar: S
Encoding: 83 83 51
Width: 512
VWidth: 0
Flags: HW
LayerCount: 2
Fore
SplineSet
135 190 m 0
 137 190 139 189 140 188 c 0
 158 173 183 160 210 160 c 0
 218 160 227 161 235 163 c 0
 261 170 282 184 296 206 c 0
 302 217 305 228 305 238 c 0
 305 249 301 259 293 270 c 0
 278 291 258 304 231 308 c 0
 230 308 229 308 228 308 c 0
 183 332 147 361 119 393 c 0
 91 425 73 463 66 506 c 0
 65 515 64 523 64 532 c 0
 64 568 76 605 100 643 c 0
 136 703 189 742 259 759 c 0
 283 765 307 768 330 768 c 0
 375 768 420 757 462 734 c 0
 463 734 462 733 463 732 c 0
 464 731 467 729 472 726 c 0
 477 723 481 720 484 717 c 0
 485 716 486 714 486 712 c 0
 486 711 486 709 485 708 c 2
 410 583 l 2
 409 581 407 580 404 580 c 0
 402 580 400 580 399 581 c 0
 381 596 356 608 329 608 c 0
 321 608 312 607 303 605 c 0
 276 598 257 584 243 561 c 0
 234 547 231 533 231 518 c 0
 231 506 233 492 239 478 c 0
 252 447 273 430 302 425 c 0
 303 425 304 425 305 425 c 0
 338 408 365 389 388 371 c 0
 411 353 431 332 448 308 c 0
 464 284 472 258 472 229 c 0
 472 227 472 226 472 224 c 0
 471 193 459 160 438 126 c 0
 402 66 349 26 279 9 c 0
 256 3 233 0 210 0 c 0
 164 0 120 12 77 35 c 0
 76 35 77 36 76 37 c 0
 75 38 72 40 67 43 c 0
 62 46 58 49 55 52 c 0
 54 53 52 55 52 57 c 0
 52 58 53 60 54 61 c 2
 129 186 l 2
 130 188 132 190 135 190 c 0
457 229 m 0
 457 255 450 278 435 299 c 0
 419 322 401 343 379 360 c 0
 357 377 331 394 299 411 c 1
 265 417 240 438 226 472 c 0
 220 487 216 503 216 518 c 0
 216 536 221 553 231 569 c 0
 247 595 270 613 300 620 c 0
 310 622 319 624 329 624 c 0
 348 624 367 619 385 609 c 0
 390 606 396 602 402 598 c 1
 469 710 l 1
 464 713 457 718 454 721 c 0
 414 742 373 753 330 753 c 0
 308 753 286 750 263 744 c 0
 196 727 146 691 112 635 c 0
 89 599 79 564 79 532 c 0
 79 524 80 517 81 509 c 0
 88 469 104 433 130 403 c 0
 156 373 190 346 234 322 c 1
 264 317 289 303 306 279 c 0
 315 266 320 253 320 238 c 0
 320 225 316 211 309 198 c 1
 308 198 l 1
 292 172 269 155 239 148 c 0
 229 146 219 145 210 145 c 0
 190 145 171 150 153 160 c 0
 148 163 143 167 137 171 c 1
 70 59 l 1
 75 56 82 51 85 48 c 0
 126 26 167 16 210 16 c 0
 231 16 254 18 276 24 c 0
 343 41 392 77 426 134 c 0
 446 167 456 196 457 224 c 0
 457 226 457 227 457 229 c 0
EndSplineSet
EndChar

StartChar: T
Encoding: 84 84 52
Width: 676
VWidth: 0
Flags: HW
LayerCount: 2
Fore
SplineSet
60 758 m 1
 60 622 l 1
 265 622 l 2
 269 622 272 618 272 614 c 2
 272 6 l 1
 410 6 l 1
 410 614 l 2
 410 618 413 622 417 622 c 2
 622 622 l 1
 622 758 l 1
 60 758 l 1
46 614 m 2
 46 766 l 2
 46 770 49 774 53 774 c 2
 629 774 l 2
 633 774 636 770 636 766 c 2
 636 614 l 2
 636 610 633 606 629 606 c 2
 424 606 l 1
 424 -2 l 2
 424 -6 421 -10 417 -10 c 2
 265 -10 l 2
 261 -10 258 -6 258 -2 c 2
 258 606 l 1
 53 606 l 2
 49 606 46 610 46 614 c 2
EndSplineSet
EndChar

StartChar: U
Encoding: 85 85 53
Width: 669
VWidth: 0
Flags: HW
LayerCount: 2
Fore
SplineSet
230 188 m 1
 248 170 286 159 343 159 c 0
 398 159 433 170 450 188 c 1
 450 761 l 2
 450 765 453 768 457 768 c 2
 624 768 l 2
 628 768 631 765 631 761 c 2
 628 184 l 2
 628 183 628 183 628 182 c 0
 617 142 597 108 566 79 c 0
 536 51 500 29 462 16 c 0
 423 2 382 -4 337 -4 c 0
 295 -4 255 2 217 15 c 0
 178 28 144 49 114 78 c 0
 84 107 63 141 51 182 c 0
 51 183 51 183 51 184 c 2
 48 761 l 2
 48 765 51 768 55 768 c 2
 222 768 l 2
 226 768 230 765 230 761 c 2
 230 188 l 1
337 11 m 0
 381 11 421 18 458 31 c 0
 494 44 526 63 555 90 c 0
 583 117 604 148 614 185 c 1
 616 754 l 1
 464 754 l 1
 464 185 l 2
 464 183 464 181 463 180 c 0
 442 155 401 144 343 144 c 0
 282 144 238 155 216 180 c 0
 215 181 214 183 214 185 c 2
 214 754 l 1
 63 754 l 1
 65 185 l 1
 76 147 96 115 124 88 c 0
 153 61 185 41 222 29 c 0
 258 17 296 11 337 11 c 0
EndSplineSet
EndChar

StartChar: V
Encoding: 86 86 54
Width: 652
VWidth: 0
Flags: HW
LayerCount: 2
Fore
SplineSet
55 776 m 2
 207 776 l 2
 210 776 213 774 214 771 c 2
 331 322 l 1
 448 771 l 2
 449 774 452 776 455 776 c 2
 607 776 l 2
 611 776 614 773 614 769 c 0
 614 768 614 768 614 767 c 2
 414 -2 l 2
 413 -5 410 -8 407 -8 c 2
 255 -8 l 2
 252 -8 249 -5 248 -2 c 2
 48 767 l 2
 48 768 48 768 48 769 c 0
 48 773 51 776 55 776 c 2
331 284 m 0
 328 284 325 287 324 290 c 2
 201 762 l 1
 65 762 l 1
 261 8 l 1
 401 8 l 1
 597 762 l 1
 461 762 l 1
 338 290 l 2
 337 287 334 284 331 284 c 0
EndSplineSet
EndChar

StartChar: W
Encoding: 87 87 55
Width: 1000
VWidth: 0
Flags: HW
LayerCount: 2
Fore
SplineSet
526 486 m 0
 529 486 533 484 534 481 c 2
 657 8 l 1
 797 8 l 1
 993 762 l 1
 857 762 l 1
 734 290 l 2
 733 287 730 284 727 284 c 0
 724 284 721 287 720 290 c 2
 597 762 l 1
 456 762 l 1
 333 290 l 2
 332 287 329 285 326 285 c 0
 323 285 320 287 319 290 c 2
 196 762 l 1
 60 762 l 1
 256 8 l 1
 396 8 l 1
 519 481 l 2
 520 484 523 486 526 486 c 0
50 776 m 2
 202 776 l 2
 205 776 208 774 209 771 c 2
 326 322 l 1
 443 771 l 2
 444 774 447 776 450 776 c 2
 603 776 l 2
 606 776 609 774 610 771 c 2
 727 322 l 1
 844 771 l 2
 845 774 848 776 851 776 c 2
 1003 776 l 2
 1007 776 1010 773 1010 769 c 0
 1010 768 1010 768 1010 767 c 2
 810 -2 l 2
 809 -5 806 -8 803 -8 c 2
 651 -8 l 2
 648 -8 645 -5 644 -2 c 2
 526 449 l 1
 409 -2 l 2
 408 -5 405 -8 402 -8 c 2
 250 -8 l 2
 247 -8 244 -5 243 -2 c 2
 43 767 l 2
 43 768 42 768 42 769 c 0
 42 773 46 776 50 776 c 2
EndSplineSet
EndChar

StartChar: X
Encoding: 88 88 56
Width: 724
VWidth: 0
Flags: HW
LayerCount: 2
Fore
SplineSet
503 777 m 2
 678 775 l 2
 682 775 686 772 686 768 c 0
 686 767 685 765 684 764 c 2
 467 388 l 1
 686 4 l 2
 687 3 686 1 686 0 c 0
 686 -4 683 -7 679 -7 c 2
 504 -10 l 2
 501 -10 499 -8 498 -6 c 2
 368 218 l 1
 240 -2 l 2
 239 -4 237 -5 234 -5 c 2
 56 -9 l 2
 52 -9 48 -5 48 -1 c 0
 48 0 49 2 50 3 c 2
 271 384 l 1
 49 766 l 2
 48 767 48 769 48 770 c 0
 48 774 51 778 55 778 c 2
 241 775 l 2
 244 775 247 774 248 772 c 2
 371 556 l 1
 497 773 l 2
 498 775 500 777 503 777 c 2
288 384 m 0
 288 383 287 381 286 380 c 2
 69 7 l 1
 230 9 l 1
 362 237 l 2
 363 239 365 240 368 240 c 0
 371 240 373 239 374 237 c 2
 508 6 l 1
 666 7 l 1
 451 384 l 2
 450 385 450 387 450 388 c 0
 450 389 451 391 452 392 c 2
 665 761 l 1
 507 761 l 1
 377 537 l 2
 376 535 374 534 371 534 c 0
 368 534 365 535 364 537 c 2
 237 761 l 1
 68 762 l 1
 286 388 l 2
 287 387 288 385 288 384 c 0
EndSplineSet
EndChar

StartChar: Y
Encoding: 89 89 57
Width: 512
VWidth: 0
Flags: HW
LayerCount: 2
Fore
SplineSet
358 1 m 2
 358 -3 354 -6 350 -6 c 2
 198 -6 l 2
 194 -6 190 -3 190 1 c 2
 190 449 l 1
 -7 761 l 2
 -8 762 -8 764 -8 765 c 0
 -8 769 -5 772 -1 772 c 2
 151 772 l 2
 153 772 156 771 157 769 c 2
 275 607 l 1
 393 769 l 2
 394 771 397 772 399 772 c 2
 551 772 l 2
 555 772 558 769 558 765 c 0
 558 764 558 762 557 761 c 2
 358 446 l 1
 358 1 l 2
206 451 m 2
 206 8 l 1
 342 8 l 1
 342 450 l 2
 342 453 344 455 346 456 c 2
 537 758 l 1
 403 758 l 1
 281 590 l 2
 280 588 277 586 275 586 c 0
 273 586 270 588 269 590 c 2
 147 758 l 1
 13 758 l 1
 204 455 l 2
 205 454 206 452 206 451 c 2
EndSplineSet
EndChar

StartChar: Z
Encoding: 90 90 58
Width: 783
VWidth: 0
Flags: HW
LayerCount: 2
Fore
SplineSet
48 10 m 2
 48 162 l 2
 48 164 49 166 50 167 c 2
 467 602 l 1
 55 602 l 2
 51 602 48 606 48 610 c 2
 48 762 l 2
 48 766 51 770 55 770 c 2
 738 770 l 2
 742 770 746 766 746 762 c 2
 746 610 l 2
 746 608 744 606 743 605 c 2
 324 170 l 1
 738 170 l 2
 742 170 746 166 746 162 c 2
 746 10 l 2
 746 6 742 2 738 2 c 2
 55 2 l 2
 51 2 48 6 48 10 c 2
62 18 m 1
 730 18 l 1
 730 154 l 1
 306 154 l 2
 302 154 298 158 298 162 c 0
 298 164 300 166 301 167 c 2
 730 613 l 1
 730 754 l 1
 62 754 l 1
 62 618 l 1
 485 618 l 2
 489 618 492 614 492 610 c 0
 492 608 491 606 490 605 c 2
 62 159 l 1
 62 18 l 1
EndSplineSet
EndChar

StartChar: bracketleft
Encoding: 91 91 59
Width: 362
VWidth: 0
Flags: HW
LayerCount: 2
Fore
SplineSet
55 -88 m 2
 51 -88 48 -84 48 -80 c 2
 48 774 l 2
 48 778 51 782 55 782 c 2
 317 782 l 2
 321 782 324 778 324 774 c 2
 323 689 l 2
 323 685 320 682 316 682 c 2
 156 682 l 1
 156 12 l 1
 316 12 l 2
 320 12 323 9 323 5 c 2
 324 -80 l 2
 324 -84 321 -88 317 -88 c 2
 55 -88 l 2
62 766 m 1
 62 -72 l 1
 309 -72 l 1
 309 -2 l 1
 149 -2 l 2
 145 -2 142 1 142 5 c 2
 142 689 l 2
 142 693 145 696 149 696 c 2
 309 696 l 1
 309 766 l 1
 62 766 l 1
EndSplineSet
EndChar

StartChar: backslash
Encoding: 92 92 60
Width: 691
VWidth: 0
Flags: HW
LayerCount: 2
Fore
SplineSet
654 -22 m 0
 654 -25 652 -28 650 -29 c 2
 544 -90 l 2
 543 -91 541 -90 540 -90 c 0
 537 -90 535 -89 534 -87 c 2
 49 753 l 2
 48 754 48 756 48 757 c 0
 48 760 49 763 51 764 c 2
 157 825 l 2
 158 826 160 826 161 826 c 0
 164 826 166 824 167 822 c 2
 652 -18 l 2
 653 -19 654 -21 654 -22 c 0
636 -19 m 1
 158 808 l 1
 65 754 l 1
 543 -73 l 1
 636 -19 l 1
EndSplineSet
EndChar

StartChar: bracketright
Encoding: 93 93 61
Width: 362
VWidth: 0
Flags: HW
LayerCount: 2
Fore
SplineSet
317 -88 m 2
 55 -88 l 2
 51 -88 48 -85 48 -81 c 2
 49 4 l 2
 49 8 52 12 56 12 c 2
 216 12 l 1
 216 682 l 1
 56 682 l 2
 52 682 49 685 49 689 c 2
 48 774 l 2
 48 778 51 782 55 782 c 2
 317 782 l 2
 321 782 324 778 324 774 c 2
 324 -81 l 2
 324 -85 321 -88 317 -88 c 2
310 -74 m 1
 310 766 l 1
 63 766 l 1
 63 696 l 1
 223 696 l 2
 227 696 230 693 230 689 c 2
 230 4 l 2
 230 0 227 -4 223 -4 c 2
 63 -4 l 1
 63 -74 l 1
 310 -74 l 1
EndSplineSet
EndChar

StartChar: asciicircum
Encoding: 94 94 62
Width: 644
VWidth: 0
Flags: HW
LayerCount: 2
Fore
SplineSet
269 624 m 2
 422 624 l 2
 425 624 428 622 429 619 c 2
 535 285 l 2
 535 284 536 284 536 283 c 0
 536 279 532 276 528 276 c 2
 376 276 l 2
 372 276 370 279 369 282 c 2
 333 463 l 1
 285 281 l 2
 284 278 281 276 278 276 c 2
 126 276 l 2
 122 276 118 279 118 283 c 0
 118 284 119 285 119 286 c 2
 262 620 l 2
 263 623 266 624 269 624 c 2
334 504 m 0
 338 504 340 501 341 498 c 2
 382 290 l 1
 518 290 l 1
 417 610 l 1
 274 610 l 1
 137 290 l 1
 272 290 l 1
 327 499 l 2
 328 502 331 504 334 504 c 0
EndSplineSet
EndChar

StartChar: underscore
Encoding: 95 95 63
Width: 544
VWidth: 0
Flags: HW
LayerCount: 2
Fore
SplineSet
556 196 m 2
 556 44 l 2
 556 40 553 36 549 36 c 2
 5 36 l 2
 1 36 -2 40 -2 44 c 2
 -2 196 l 2
 -2 200 1 204 5 204 c 2
 549 204 l 2
 553 204 556 200 556 196 c 2
542 52 m 1
 542 188 l 1
 12 188 l 1
 12 52 l 1
 542 52 l 1
EndSplineSet
EndChar

StartChar: grave
Encoding: 96 96 64
Width: 252
VWidth: 0
Flags: HW
LayerCount: 2
Fore
SplineSet
-22 698 m 0
 -22 700 -20 702 -19 703 c 2
 89 810 l 2
 90 811 92 812 94 812 c 0
 96 812 98 811 99 810 c 2
 281 628 l 2
 282 627 284 625 284 623 c 0
 284 621 282 619 281 618 c 2
 173 511 l 2
 172 510 170 508 168 508 c 0
 166 508 164 510 163 511 c 2
 -19 693 l 2
 -20 694 -22 696 -22 698 c 0
-3 698 m 1
 168 527 l 1
 265 623 l 1
 94 794 l 1
 -3 698 l 1
EndSplineSet
EndChar

StartChar: a
Encoding: 97 97 65
Width: 512
VWidth: 0
Flags: HW
LayerCount: 2
Fore
SplineSet
489 522 m 2
 493 522 496 518 496 514 c 2
 496 1 l 2
 496 -3 493 -6 489 -6 c 2
 337 -6 l 2
 333 -6 330 -3 330 1 c 1
 325 1 319 0 313 0 c 0
 240 0 177 26 125 78 c 0
 73 130 48 193 48 266 c 0
 48 339 74 400 125 449 c 0
 176 498 239 522 313 522 c 0
 324 522 331 523 337 522 c 2
 489 522 l 2
482 506 m 1
 337 506 l 1
 336 507 l 2
 331 508 323 508 313 508 c 0
 243 508 184 484 135 438 c 0
 86 392 62 335 62 266 c 0
 62 197 87 138 136 89 c 0
 185 40 244 16 313 16 c 0
 323 16 331 15 336 16 c 2
 337 16 l 2
 341 16 344 13 344 9 c 2
 344 8 l 1
 482 8 l 1
 482 506 l 1
344 369 m 2
 344 162 l 2
 344 158 342 156 339 155 c 0
 330 153 322 152 313 152 c 0
 281 152 254 163 232 185 c 0
 210 207 198 234 198 266 c 0
 198 297 210 324 232 346 c 0
 254 368 281 380 313 380 c 0
 322 380 330 378 339 376 c 0
 342 375 344 373 344 369 c 2
313 364 m 0
 285 364 261 355 242 336 c 0
 223 317 214 293 214 266 c 0
 214 238 223 214 242 195 c 0
 261 176 285 166 313 166 c 0
 318 166 324 167 330 168 c 1
 330 363 l 1
 324 364 318 364 313 364 c 0
EndSplineSet
EndChar

StartChar: b
Encoding: 98 98 66
Width: 512
VWidth: 0
Flags: HW
LayerCount: 2
Fore
SplineSet
55 -4 m 2
 51 -4 48 0 48 4 c 2
 48 780 l 2
 48 784 51 788 55 788 c 2
 207 788 l 2
 211 788 214 784 214 780 c 2
 214 525 l 1
 219 525 225 526 231 526 c 0
 304 526 367 500 419 448 c 0
 471 396 496 333 496 260 c 0
 496 187 471 124 419 73 c 0
 367 22 304 -4 231 -4 c 0
 220 -4 213 -5 207 -4 c 2
 55 -4 l 2
62 12 m 1
 207 12 l 1
 208 11 l 2
 213 10 221 10 231 10 c 0
 300 10 359 34 408 83 c 0
 457 132 482 191 482 260 c 0
 482 329 457 388 408 437 c 0
 359 486 300 510 231 510 c 0
 221 510 213 511 208 510 c 2
 207 510 l 2
 203 510 200 513 200 517 c 2
 200 772 l 1
 62 772 l 1
 62 12 l 1
200 157 m 2
 200 364 l 2
 200 368 202 370 205 371 c 0
 214 373 222 374 231 374 c 0
 263 374 290 363 312 341 c 0
 334 319 346 292 346 260 c 0
 346 229 334 202 312 180 c 0
 290 158 263 146 231 146 c 0
 222 146 214 148 205 150 c 0
 202 151 200 153 200 157 c 2
231 162 m 0
 259 162 283 171 302 190 c 0
 321 209 330 233 330 260 c 0
 330 288 321 312 302 331 c 0
 283 350 259 360 231 360 c 0
 226 360 220 359 214 358 c 1
 214 163 l 1
 220 162 226 162 231 162 c 0
EndSplineSet
EndChar

StartChar: c
Encoding: 99 99 67
Width: 384
VWidth: 0
Flags: HW
LayerCount: 2
Fore
SplineSet
313 -4 m 0
 240 -4 177 22 125 73 c 0
 73 124 48 187 48 260 c 0
 48 333 73 396 125 448 c 0
 177 500 240 526 313 526 c 0
 322 526 331 525 340 524 c 0
 344 524 346 521 346 517 c 2
 346 364 l 2
 346 360 343 356 339 356 c 0
 338 356 338 357 337 357 c 0
 329 359 321 360 313 360 c 0
 285 360 261 350 242 331 c 0
 223 312 214 288 214 260 c 0
 214 233 223 209 242 190 c 0
 261 171 285 162 313 162 c 0
 321 162 329 162 337 164 c 0
 338 164 338 164 339 164 c 0
 343 164 346 161 346 157 c 2
 346 4 l 2
 346 0 344 -3 340 -3 c 0
 331 -4 322 -4 313 -4 c 0
62 260 m 0
 62 191 87 132 136 83 c 0
 185 34 244 10 313 10 c 0
 319 10 326 11 332 11 c 1
 332 148 l 1
 326 147 319 146 313 146 c 0
 281 146 254 158 232 180 c 0
 210 202 198 229 198 260 c 0
 198 292 210 319 232 341 c 0
 254 363 281 374 313 374 c 0
 319 374 326 374 332 373 c 1
 332 510 l 1
 313 510 l 2
 244 510 185 486 136 437 c 0
 87 388 62 329 62 260 c 0
EndSplineSet
EndChar

StartChar: d
Encoding: 100 100 68
Width: 512
VWidth: 0
Flags: HW
LayerCount: 2
Fore
SplineSet
337 788 m 2
 489 788 l 2
 493 788 496 784 496 780 c 2
 496 4 l 2
 496 0 493 -4 489 -4 c 2
 337 -4 l 2
 329 -5 321 -4 313 -4 c 0
 240 -4 177 22 125 73 c 0
 73 124 48 187 48 260 c 0
 48 333 73 396 125 448 c 0
 177 500 240 526 313 526 c 0
 319 526 325 525 330 525 c 1
 330 780 l 2
 330 784 333 788 337 788 c 2
482 772 m 1
 344 772 l 1
 344 517 l 2
 344 513 341 510 337 510 c 2
 336 510 l 2
 328 511 321 510 313 510 c 0
 244 510 185 486 136 437 c 0
 87 388 62 329 62 260 c 0
 62 191 87 132 136 83 c 0
 185 34 244 10 313 10 c 0
 321 10 328 10 336 11 c 1
 337 12 l 1
 482 12 l 1
 482 772 l 1
313 146 m 0
 281 146 254 158 232 180 c 0
 210 202 198 229 198 260 c 0
 198 292 210 319 232 341 c 0
 254 363 281 374 313 374 c 0
 322 374 330 373 339 371 c 0
 342 370 344 368 344 364 c 2
 344 157 l 2
 344 153 342 151 339 150 c 0
 330 148 322 146 313 146 c 0
313 360 m 0
 285 360 261 350 242 331 c 0
 223 312 214 288 214 260 c 0
 214 233 223 209 242 190 c 0
 261 171 285 162 313 162 c 0
 318 162 324 162 330 163 c 1
 330 358 l 1
 324 359 318 360 313 360 c 0
EndSplineSet
EndChar

StartChar: e
Encoding: 101 101 69
Width: 617
VWidth: 0
Flags: HW
LayerCount: 2
Fore
SplineSet
235 198 m 1
 251 178 279 162 313 162 c 0
 336 162 493 165 536 167 c 0
 551 168 559 169 559 169 c 2
 560 169 561 170 562 170 c 0
 566 170 570 166 570 162 c 2
 570 6 l 2
 570 2 567 0 563 -1 c 0
 548 -3 467 -4 313 -4 c 0
 240 -4 177 22 125 73 c 0
 73 124 48 187 48 260 c 0
 48 333 73 396 125 448 c 0
 177 500 240 526 313 526 c 0
 386 526 449 500 501 448 c 0
 553 396 578 333 578 260 c 0
 578 250 580 217 580 208 c 0
 580 204 576 201 572 201 c 2
 235 198 l 1
564 215 m 1
 564 226 564 251 564 260 c 0
 564 329 539 388 490 437 c 0
 441 486 382 510 313 510 c 0
 244 510 185 486 136 437 c 0
 87 388 62 329 62 260 c 0
 62 191 87 132 136 83 c 0
 185 34 244 10 313 10 c 0
 449 10 530 12 554 13 c 1
 554 153 l 1
 549 153 544 152 536 152 c 0
 493 150 336 146 313 146 c 0
 267 146 233 170 215 201 c 0
 214 202 214 204 214 205 c 0
 214 209 217 212 221 212 c 2
 564 215 l 1
313 374 m 0
 346 374 375 362 398 337 c 0
 399 336 400 334 400 332 c 0
 400 328 396 325 392 325 c 2
 235 327 l 2
 231 327 228 330 228 334 c 0
 228 336 229 338 230 339 c 0
 252 362 280 374 313 374 c 0
313 360 m 0
 290 360 271 353 254 341 c 1
 373 340 l 1
 356 353 336 360 313 360 c 0
EndSplineSet
EndChar

StartChar: f
Encoding: 102 102 70
Width: 512
VWidth: 0
Flags: HW
LayerCount: 2
Fore
SplineSet
148 504 m 2
 58 504 l 1
 58 366 l 1
 147 366 l 2
 151 366 154 363 154 359 c 2
 153 4 l 1
 304 4 l 1
 304 359 l 2
 304 363 308 366 312 366 c 2
 402 366 l 1
 402 504 l 1
 312 504 l 2
 308 504 304 507 304 511 c 2
 304 573 l 2
 304 575 305 577 306 578 c 0
 327 603 358 618 393 618 c 0
 416 618 438 611 456 599 c 1
 456 746 l 1
 435 751 415 754 393 754 c 0
 279 754 185 678 155 573 c 1
 155 511 l 2
 155 507 152 504 148 504 c 2
472 752 m 2
 472 584 l 2
 472 580 468 576 464 576 c 0
 462 576 460 577 459 578 c 0
 441 593 418 602 393 602 c 0
 363 602 339 590 320 570 c 1
 320 518 l 1
 409 518 l 2
 413 518 416 515 416 511 c 2
 416 359 l 2
 416 355 413 352 409 352 c 2
 320 352 l 1
 320 -3 l 2
 320 -7 316 -10 312 -10 c 2
 145 -10 l 2
 141 -10 138 -7 138 -3 c 2
 139 352 l 1
 50 352 l 2
 46 352 42 355 42 359 c 2
 42 511 l 2
 42 515 46 518 50 518 c 2
 140 518 l 1
 141 574 l 2
 141 575 141 575 141 576 c 0
 173 688 272 768 393 768 c 0
 419 768 442 765 466 759 c 0
 469 758 472 755 472 752 c 2
EndSplineSet
EndChar

StartChar: g
Encoding: 103 103 71
Width: 620
VWidth: 0
Flags: HW
LayerCount: 2
Fore
SplineSet
339 372 m 0
 340 372 340 372 341 372 c 0
 367 366 389 354 406 333 c 0
 423 312 432 288 432 260 c 0
 432 233 423 209 406 188 c 0
 389 167 366 154 340 149 c 1
 339 148 l 2
 338 148 338 149 337 149 c 0
 330 147 322 146 315 146 c 0
 307 146 300 147 293 149 c 0
 292 149 292 148 291 148 c 0
 290 148 290 149 289 149 c 0
 263 155 241 167 224 188 c 0
 207 209 198 233 198 260 c 0
 198 288 207 312 224 333 c 0
 241 354 264 367 290 372 c 1
 291 372 l 2
 292 372 292 372 293 372 c 0
 300 374 307 374 315 374 c 0
 322 374 330 374 337 372 c 0
 338 372 338 372 339 372 c 0
315 360 m 0
 307 360 300 359 293 357 c 0
 292 357 292 356 291 356 c 0
 290 356 290 357 289 357 c 0
 268 352 250 341 236 324 c 0
 221 306 214 284 214 260 c 0
 214 236 221 216 236 198 c 0
 250 181 268 169 289 164 c 0
 290 164 290 164 291 164 c 0
 292 164 292 164 293 164 c 0
 300 162 307 162 315 162 c 0
 322 162 330 162 337 164 c 0
 338 164 338 164 339 164 c 0
 340 164 340 164 341 164 c 0
 362 169 380 180 394 197 c 0
 409 215 416 236 416 260 c 0
 416 284 409 305 394 323 c 0
 380 340 362 352 341 357 c 0
 340 357 340 356 339 356 c 0
 338 356 338 357 337 357 c 0
 330 359 322 360 315 360 c 0
317 -4 m 0
 313 -4 309 -4 305 -4 c 0
 302 -4 300 -5 298 -5 c 0
 279 -5 268 -4 263 -3 c 0
 196 2 143 29 105 78 c 0
 67 127 48 188 48 260 c 0
 48 330 71 391 119 442 c 0
 167 493 226 520 295 524 c 0
 299 524 303 524 308 525 c 2
 309 526 l 1
 317 526 l 2
 390 526 453 499 505 448 c 0
 557 397 582 334 582 261 c 0
 582 258 582 256 582 253 c 2
 579 -18 l 2
 579 -19 579 -19 579 -20 c 0
 563 -77 532 -123 487 -159 c 0
 442 -195 390 -212 330 -212 c 0
 216 -212 148 -210 123 -203 c 0
 120 -202 118 -199 118 -196 c 2
 118 -28 l 2
 118 -24 121 -20 125 -20 c 0
 127 -20 129 -21 130 -22 c 0
 131 -23 139 -26 151 -29 c 0
 166 -32 188 -36 217 -39 c 0
 270 -44 307 -46 330 -46 c 0
 346 -46 363 -43 380 -37 c 0
 396 -31 407 -23 416 -14 c 1
 416 15 l 1
 384 2 352 -4 317 -4 c 0
305 10 m 0
 309 10 313 10 317 10 c 0
 353 10 388 18 421 33 c 0
 422 33 423 34 424 34 c 0
 428 34 432 30 432 26 c 2
 432 -17 l 2
 432 -19 431 -21 430 -22 c 0
 419 -34 404 -44 385 -51 c 0
 367 -58 348 -62 330 -62 c 0
 306 -62 268 -58 215 -53 c 0
 186 -50 163 -47 147 -44 c 0
 141 -43 136 -41 132 -40 c 1
 132 -190 l 1
 158 -195 225 -198 330 -198 c 0
 386 -198 436 -181 478 -147 c 0
 520 -113 549 -71 565 -17 c 1
 568 253 l 2
 568 256 568 258 568 261 c 0
 568 330 543 389 494 438 c 0
 445 487 386 510 317 510 c 2
 309 510 l 2
 304 509 299 510 295 510 c 0
 230 506 175 479 130 431 c 0
 85 383 62 326 62 260 c 0
 62 191 80 133 116 87 c 0
 152 41 201 16 265 11 c 0
 267 11 279 10 305 10 c 0
EndSplineSet
EndChar

StartChar: h
Encoding: 104 104 72
Width: 597
VWidth: 0
Flags: HW
LayerCount: 2
Fore
SplineSet
55 776 m 2
 224 776 l 2
 228 776 232 772 232 768 c 2
 232 522 l 1
 256 528 279 532 304 532 c 0
 364 532 417 514 463 478 c 0
 509 442 540 396 556 339 c 0
 556 338 556 338 556 337 c 2
 560 6 l 2
 560 2 556 -2 552 -2 c 2
 385 -2 l 2
 381 -2 378 2 378 6 c 2
 378 333 l 1
 358 355 334 366 304 366 c 0
 275 366 252 355 232 335 c 1
 232 6 l 2
 232 2 228 -2 224 -2 c 2
 55 -2 l 2
 51 -2 48 2 48 6 c 2
 48 768 l 2
 48 772 51 776 55 776 c 2
216 760 m 1
 62 760 l 1
 62 14 l 1
 216 14 l 1
 216 338 l 2
 216 340 217 342 218 343 c 0
 241 368 270 380 304 380 c 0
 339 380 368 367 391 341 c 0
 392 340 392 338 392 336 c 2
 392 14 l 1
 544 14 l 1
 542 336 l 1
 526 389 496 432 453 466 c 0
 410 500 360 516 304 516 c 0
 277 516 251 513 226 505 c 0
 225 505 225 504 224 504 c 0
 220 504 216 508 216 512 c 2
 216 760 l 1
EndSplineSet
EndChar

StartChar: i
Encoding: 105 105 73
Width: 252
VWidth: 0
Flags: HW
LayerCount: 2
Fore
SplineSet
55 520 m 2
 207 520 l 2
 211 520 214 516 214 512 c 2
 214 -2 l 2
 214 -6 211 -10 207 -10 c 2
 55 -10 l 2
 51 -10 48 -6 48 -2 c 2
 48 512 l 2
 48 516 51 520 55 520 c 2
200 504 m 1
 62 504 l 1
 62 6 l 1
 200 6 l 1
 200 504 l 1
55 780 m 2
 207 780 l 2
 211 780 214 776 214 772 c 2
 214 630 l 2
 214 626 211 622 207 622 c 2
 55 622 l 2
 51 622 48 626 48 630 c 2
 48 772 l 2
 48 776 51 780 55 780 c 2
200 764 m 1
 62 764 l 1
 62 638 l 1
 200 638 l 1
 200 764 l 1
EndSplineSet
EndChar

StartChar: j
Encoding: 106 106 74
Width: 419
VWidth: 0
Flags: HW
LayerCount: 2
Fore
SplineSet
48 -195 m 2
 48 -27 l 2
 48 -23 51 -20 55 -20 c 0
 57 -20 59 -20 60 -21 c 0
 79 -37 101 -46 126 -46 c 0
 156 -46 180 -35 200 -13 c 1
 200 517 l 2
 200 521 203 524 207 524 c 2
 374 524 l 2
 378 524 381 521 381 517 c 2
 378 -17 l 2
 378 -18 378 -18 378 -19 c 0
 362 -76 331 -122 285 -158 c 0
 239 -194 186 -212 126 -212 c 0
 101 -212 76 -208 53 -202 c 0
 50 -201 48 -198 48 -195 c 2
126 -196 m 0
 182 -196 232 -180 275 -146 c 0
 318 -112 348 -69 364 -16 c 1
 366 510 l 1
 214 510 l 1
 214 -16 l 2
 214 -18 214 -20 213 -21 c 0
 190 -47 161 -60 126 -60 c 0
 103 -60 81 -54 62 -42 c 1
 62 -189 l 1
 82 -194 104 -196 126 -196 c 0
219 780 m 2
 371 780 l 2
 375 780 378 776 378 772 c 2
 378 630 l 2
 378 626 375 622 371 622 c 2
 219 622 l 2
 215 622 212 626 212 630 c 2
 212 772 l 2
 212 776 215 780 219 780 c 2
364 764 m 1
 226 764 l 1
 226 638 l 1
 364 638 l 1
 364 764 l 1
EndSplineSet
EndChar

StartChar: k
Encoding: 107 107 75
Width: 753
VWidth: 0
Flags: HW
LayerCount: 2
Fore
SplineSet
66 782 m 2
 207 782 l 2
 211 782 214 778 214 774 c 2
 214 333 l 1
 447 535 l 2
 448 536 450 536 452 536 c 2
 645 534 l 2
 649 534 652 531 652 527 c 0
 652 525 651 523 650 522 c 2
 395 284 l 1
 659 2 l 2
 660 1 662 -1 662 -3 c 0
 662 -7 658 -10 654 -10 c 2
 468 -9 l 2
 466 -9 463 -9 462 -7 c 2
 264 214 l 1
 214 151 l 1
 214 -2 l 2
 214 -6 211 -10 207 -10 c 2
 66 -10 l 2
 62 -10 58 -6 58 -2 c 2
 58 774 l 2
 58 778 62 782 66 782 c 2
200 766 m 1
 74 766 l 1
 74 6 l 1
 200 6 l 1
 200 154 l 2
 200 156 200 158 201 159 c 2
 258 231 l 2
 259 233 262 234 264 234 c 0
 266 234 269 233 270 231 c 2
 471 5 l 1
 637 5 l 1
 379 279 l 2
 378 280 376 282 376 284 c 0
 376 286 378 288 379 289 c 2
 626 520 l 1
 455 521 l 1
 212 311 l 2
 211 310 209 310 207 310 c 0
 203 310 200 313 200 317 c 2
 200 766 l 1
EndSplineSet
EndChar

StartChar: l
Encoding: 108 108 76
Width: 419
VWidth: 0
Flags: HW
LayerCount: 2
Fore
SplineSet
298 -10 m 0
 238 -10 185 7 139 43 c 0
 93 79 62 125 46 182 c 0
 46 183 46 183 46 184 c 2
 42 761 l 2
 42 765 46 768 50 768 c 2
 217 768 l 2
 221 768 224 765 224 761 c 2
 224 188 l 1
 244 166 268 156 298 156 c 0
 323 156 345 164 364 180 c 0
 365 181 367 182 369 182 c 0
 373 182 376 178 376 174 c 2
 376 6 l 2
 376 3 374 0 371 -1 c 0
 348 -7 323 -10 298 -10 c 0
298 4 m 0
 320 4 342 7 362 12 c 1
 362 159 l 1
 343 147 321 140 298 140 c 0
 263 140 234 154 211 180 c 0
 210 181 210 183 210 185 c 2
 210 754 l 1
 58 754 l 1
 60 185 l 1
 76 132 106 89 149 55 c 0
 192 21 242 4 298 4 c 0
EndSplineSet
EndChar

StartChar: m
Encoding: 109 109 77
Width: 924
VWidth: 0
Flags: HW
LayerCount: 2
Fore
SplineSet
50 530 m 2
 219 530 l 2
 223 530 226 526 226 522 c 1
 249 528 274 532 299 532 c 0
 360 532 415 511 459 477 c 1
 543 519 l 1
 544 519 l 1
 571 527 597 532 626 532 c 0
 747 532 846 451 878 339 c 0
 878 338 878 338 878 337 c 2
 882 6 l 2
 882 2 878 -2 874 -2 c 2
 707 -2 l 2
 703 -2 700 2 700 6 c 2
 700 333 l 1
 681 353 656 366 626 366 c 0
 597 366 571 354 553 335 c 1
 553 262 553 189 553 116 c 2
 554 6 l 2
 554 2 551 -2 547 -2 c 2
 377 -2 l 2
 373 -2 370 2 370 6 c 2
 372 323 l 1
 372 333 l 1
 353 353 329 366 299 366 c 0
 270 366 244 354 226 335 c 1
 226 6 l 2
 226 2 223 -2 219 -2 c 2
 50 -2 l 2
 46 -2 42 2 42 6 c 2
 42 522 l 2
 42 526 46 530 50 530 c 2
212 514 m 1
 58 514 l 1
 58 14 l 1
 212 14 l 1
 212 338 l 2
 212 340 212 342 213 343 c 0
 234 367 265 380 299 380 c 0
 334 380 365 366 386 341 c 0
 387 340 388 338 388 336 c 2
 388 323 l 1
 385 14 l 1
 539 14 l 1
 539 116 l 1
 539 338 l 2
 539 340 539 342 540 343 c 0
 561 367 592 380 626 380 c 0
 661 380 692 366 713 341 c 0
 714 340 714 338 714 336 c 2
 714 14 l 1
 866 14 l 1
 864 336 l 1
 834 441 740 516 626 516 c 0
 599 516 574 513 549 505 c 1
 462 461 l 2
 461 460 459 460 458 460 c 0
 456 460 455 461 454 462 c 0
 412 496 358 516 299 516 c 0
 272 516 246 513 221 505 c 0
 220 505 220 504 219 504 c 0
 215 504 212 508 212 512 c 2
 212 514 l 1
EndSplineSet
EndChar

StartChar: n
Encoding: 110 110 78
Width: 597
VWidth: 0
Flags: HW
LayerCount: 2
Fore
SplineSet
55 530 m 2
 224 530 l 2
 228 530 232 526 232 522 c 1
 256 528 279 532 304 532 c 0
 364 532 417 514 463 478 c 0
 509 442 540 396 556 339 c 0
 556 338 556 338 556 337 c 2
 560 6 l 2
 560 2 556 -2 552 -2 c 2
 385 -2 l 2
 381 -2 378 2 378 6 c 2
 378 333 l 1
 358 355 334 366 304 366 c 0
 275 366 252 355 232 335 c 1
 232 6 l 2
 232 2 228 -2 224 -2 c 2
 55 -2 l 2
 51 -2 48 2 48 6 c 2
 48 522 l 2
 48 526 51 530 55 530 c 2
216 514 m 1
 62 514 l 1
 62 14 l 1
 216 14 l 1
 216 338 l 2
 216 340 217 342 218 343 c 0
 241 368 270 380 304 380 c 0
 339 380 368 367 391 341 c 0
 392 340 392 338 392 336 c 2
 392 14 l 1
 544 14 l 1
 542 336 l 1
 526 389 496 432 453 466 c 0
 410 500 360 516 304 516 c 0
 277 516 251 513 226 505 c 0
 225 505 225 504 224 504 c 0
 220 504 216 508 216 512 c 2
 216 514 l 1
EndSplineSet
EndChar

StartChar: o
Encoding: 111 111 79
Width: 616
VWidth: 0
Flags: HW
LayerCount: 2
Fore
SplineSet
317 -4 m 2
 309 -4 l 2
 303 -4 298 -4 294 -3 c 0
 225 2 166 29 119 79 c 0
 71 129 48 190 48 260 c 0
 48 330 71 391 119 442 c 0
 167 493 226 520 295 524 c 0
 299 524 303 524 308 525 c 2
 309 526 l 1
 317 526 l 2
 390 526 453 500 505 448 c 0
 557 396 582 333 582 260 c 0
 582 187 557 124 505 73 c 0
 453 22 390 -4 317 -4 c 2
309 10 m 2
 317 10 l 2
 386 10 445 34 494 83 c 0
 543 132 568 191 568 260 c 0
 568 329 543 388 494 437 c 0
 445 486 386 510 317 510 c 2
 309 510 l 2
 304 509 299 510 295 510 c 0
 230 506 175 479 130 431 c 0
 85 383 62 326 62 260 c 0
 62 194 85 138 130 90 c 0
 175 42 230 16 296 11 c 0
 300 11 304 10 309 10 c 2
339 372 m 0
 340 372 340 372 341 372 c 0
 367 366 389 354 406 333 c 0
 423 312 432 288 432 260 c 0
 432 233 423 209 406 188 c 0
 389 167 366 154 340 149 c 1
 339 148 l 2
 338 148 338 149 337 149 c 0
 330 147 322 146 315 146 c 0
 307 146 300 147 293 149 c 0
 292 149 292 148 291 148 c 0
 290 148 290 149 289 149 c 0
 263 155 241 167 224 188 c 0
 207 209 198 233 198 260 c 0
 198 288 207 312 224 333 c 0
 241 354 264 367 290 372 c 1
 291 372 l 2
 292 372 292 372 293 372 c 0
 300 374 307 374 315 374 c 0
 322 374 330 374 337 372 c 0
 338 372 338 372 339 372 c 0
315 360 m 0
 307 360 300 359 293 357 c 0
 292 357 292 356 291 356 c 0
 290 356 290 357 289 357 c 0
 268 352 250 341 236 324 c 0
 221 306 214 284 214 260 c 0
 214 236 221 216 236 198 c 0
 250 181 268 169 289 164 c 0
 290 164 290 164 291 164 c 0
 292 164 292 164 293 164 c 0
 300 162 307 162 315 162 c 0
 322 162 330 162 337 164 c 0
 338 164 338 164 339 164 c 0
 340 164 340 164 341 164 c 0
 362 169 380 180 394 197 c 0
 409 215 416 236 416 260 c 0
 416 284 409 305 394 323 c 0
 380 340 362 352 341 357 c 0
 340 357 340 356 339 356 c 0
 338 356 338 357 337 357 c 0
 330 359 322 360 315 360 c 0
EndSplineSet
EndChar

StartChar: p
Encoding: 112 112 80
Width: 512
VWidth: 0
Flags: HW
LayerCount: 2
Fore
SplineSet
207 -210 m 2
 55 -210 l 2
 51 -210 48 -206 48 -202 c 2
 48 509 l 2
 48 513 51 516 55 516 c 2
 207 516 l 2
 213 517 220 518 231 518 c 0
 304 518 367 491 419 440 c 0
 471 389 496 326 496 253 c 0
 496 180 471 117 419 65 c 0
 367 13 304 -12 231 -12 c 0
 225 -12 219 -12 214 -12 c 1
 214 -202 l 2
 214 -206 211 -210 207 -210 c 2
62 -194 m 1
 200 -194 l 1
 200 -4 l 2
 200 0 203 4 207 4 c 2
 208 3 l 2
 213 2 221 2 231 2 c 0
 300 2 359 27 408 76 c 0
 457 125 482 184 482 253 c 0
 482 322 457 381 408 430 c 0
 359 479 300 502 231 502 c 0
 221 502 213 503 208 502 c 2
 207 502 l 1
 62 502 l 1
 62 -194 l 1
231 366 m 0
 263 366 290 355 312 333 c 0
 334 311 346 284 346 253 c 0
 346 221 334 194 312 172 c 0
 290 150 263 138 231 138 c 0
 222 138 214 140 205 142 c 0
 202 143 200 145 200 149 c 2
 200 356 l 2
 200 360 202 362 205 363 c 0
 214 365 222 366 231 366 c 0
231 154 m 0
 259 154 283 163 302 182 c 0
 321 201 330 225 330 253 c 0
 330 280 321 304 302 323 c 0
 283 342 259 352 231 352 c 0
 226 352 220 351 214 350 c 1
 214 155 l 1
 220 154 226 154 231 154 c 0
EndSplineSet
EndChar

StartChar: q
Encoding: 113 113 81
Width: 512
VWidth: 0
Flags: HW
LayerCount: 2
Fore
SplineSet
489 516 m 2
 493 516 496 513 496 509 c 2
 496 -202 l 2
 496 -206 493 -210 489 -210 c 2
 337 -210 l 2
 333 -210 330 -206 330 -202 c 2
 330 -12 l 1
 325 -12 319 -12 313 -12 c 0
 240 -12 177 13 125 65 c 0
 73 117 48 180 48 253 c 0
 48 326 73 389 125 440 c 0
 177 491 240 518 313 518 c 0
 324 518 331 517 337 516 c 2
 489 516 l 2
482 502 m 1
 337 502 l 1
 336 502 l 2
 331 503 323 502 313 502 c 0
 244 502 185 479 136 430 c 0
 87 381 62 322 62 253 c 0
 62 184 87 125 136 76 c 0
 185 27 244 2 313 2 c 0
 323 2 331 2 336 3 c 2
 337 4 l 2
 341 4 344 0 344 -4 c 2
 344 -194 l 1
 482 -194 l 1
 482 502 l 1
344 356 m 2
 344 149 l 2
 344 145 342 143 339 142 c 0
 330 140 322 138 313 138 c 0
 281 138 254 150 232 172 c 0
 210 194 198 221 198 253 c 0
 198 284 210 311 232 333 c 0
 254 355 281 366 313 366 c 0
 322 366 330 365 339 363 c 0
 342 362 344 360 344 356 c 2
313 352 m 0
 285 352 261 342 242 323 c 0
 223 304 214 280 214 253 c 0
 214 225 223 201 242 182 c 0
 261 163 285 154 313 154 c 0
 318 154 324 154 330 155 c 1
 330 350 l 1
 324 351 318 352 313 352 c 0
EndSplineSet
EndChar

StartChar: r
Encoding: 114 114 82
Width: 587
VWidth: 0
Flags: HW
LayerCount: 2
Fore
SplineSet
55 530 m 2
 224 530 l 2
 228 530 232 526 232 522 c 1
 256 528 279 532 304 532 c 0
 359 532 409 514 453 479 c 0
 497 444 529 401 549 348 c 0
 549 347 550 346 550 345 c 0
 550 341 546 338 542 338 c 2
 381 338 l 2
 380 337 378 336 377 336 c 0
 375 336 373 338 372 339 c 0
 353 357 330 366 304 366 c 0
 275 366 252 355 232 335 c 1
 232 6 l 2
 232 2 228 -2 224 -2 c 2
 55 -2 l 2
 51 -2 48 2 48 6 c 2
 48 522 l 2
 48 526 51 530 55 530 c 2
216 514 m 1
 62 514 l 1
 62 14 l 1
 216 14 l 1
 216 338 l 2
 216 340 217 342 218 343 c 0
 241 368 270 380 304 380 c 0
 332 380 358 371 379 352 c 1
 531 352 l 1
 512 398 483 436 444 467 c 0
 402 500 356 516 304 516 c 0
 277 516 251 513 226 505 c 0
 225 505 225 504 224 504 c 0
 220 504 216 508 216 512 c 2
 216 514 l 1
EndSplineSet
EndChar

StartChar: s
Encoding: 115 115 83
Width: 508
VWidth: 0
Flags: HW
LayerCount: 2
Fore
SplineSet
141 166 m 0
 143 166 145 165 146 164 c 0
 149 161 156 157 165 154 c 2
 166 154 l 1
 187 145 205 141 222 141 c 0
 226 141 230 141 234 141 c 0
 253 143 268 152 280 167 c 0
 285 172 286 177 286 179 c 0
 286 182 282 189 262 194 c 0
 255 196 237 199 209 204 c 0
 207 204 l 1
 162 222 127 242 99 266 c 0
 71 290 55 317 49 347 c 0
 48 352 47 358 47 363 c 0
 47 389 58 414 80 439 c 0
 113 479 164 502 232 510 c 0
 247 512 262 513 277 513 c 0
 330 513 381 502 432 480 c 0
 444 475 451 471 455 468 c 0
 457 467 458 464 458 462 c 0
 458 461 459 460 458 459 c 2
 391 329 l 2
 390 327 387 324 384 324 c 0
 383 324 381 325 380 326 c 0
 371 332 364 335 359 337 c 0
 338 345 321 349 310 349 c 0
 307 349 305 349 303 349 c 0
 292 347 280 338 267 323 c 0
 253 308 248 298 248 295 c 0
 249 294 252 292 258 290 c 0
 266 287 278 285 293 282 c 0
 294 282 294 282 295 282 c 0
 322 271 345 260 364 250 c 0
 398 233 442 204 460 173 c 0
 467 161 470 148 470 134 c 0
 470 131 470 128 470 125 c 0
 468 107 459 88 444 70 c 0
 411 30 360 6 292 -2 c 0
 276 -4 261 -5 245 -5 c 0
 194 -5 143 6 94 27 c 0
 87 29 78 34 69 41 c 0
 67 42 66 45 66 47 c 0
 66 48 67 50 68 51 c 2
 135 163 l 2
 136 165 138 166 141 166 c 0
441 459 m 1
 393 484 332 498 277 498 c 0
 263 498 248 497 234 495 c 0
 169 487 122 465 92 429 c 0
 72 406 62 384 62 363 c 0
 62 359 62 353 63 349 c 0
 68 323 83 299 109 277 c 0
 135 255 169 235 212 218 c 1
 240 213 257 210 266 208 c 0
 286 203 301 195 301 179 c 0
 301 171 298 164 292 157 c 0
 277 140 258 130 235 127 c 0
 231 126 227 126 222 126 c 0
 203 126 182 131 160 140 c 0
 153 142 148 145 143 148 c 1
 84 49 l 1
 90 44 95 42 98 41 c 2
 99 41 l 1
 147 20 196 10 245 10 c 0
 260 10 275 11 290 13 c 0
 355 21 402 44 432 80 c 0
 446 97 454 112 455 126 c 0
 455 129 455 131 455 134 c 0
 455 146 453 156 447 166 c 0
 431 193 388 221 357 237 c 0
 338 246 316 257 290 268 c 0
 273 271 259 273 250 277 c 0
 242 280 233 285 233 296 c 0
 233 307 241 318 255 333 c 0
 269 350 284 360 300 363 c 0
 303 364 306 364 310 364 c 0
 325 364 343 360 365 351 c 0
 370 349 375 347 381 343 c 1
 441 459 l 1
EndSplineSet
EndChar

StartChar: t
Encoding: 116 116 84
Width: 514
VWidth: 0
Flags: HW
LayerCount: 2
Fore
SplineSet
398 -10 m 0
 338 -10 285 7 239 43 c 0
 193 79 162 125 146 182 c 0
 146 183 146 183 146 184 c 2
 145 356 l 1
 55 356 l 2
 51 356 48 360 48 364 c 2
 48 516 l 2
 48 520 51 524 55 524 c 2
 143 524 l 1
 142 761 l 2
 142 765 146 768 150 768 c 2
 317 768 l 2
 321 768 324 765 324 761 c 2
 324 524 l 1
 414 524 l 2
 418 524 422 520 422 516 c 2
 422 364 l 2
 422 360 418 356 414 356 c 2
 324 356 l 1
 324 188 l 1
 344 166 368 156 398 156 c 0
 423 156 445 164 464 180 c 0
 465 181 467 182 469 182 c 0
 473 182 476 178 476 174 c 2
 476 6 l 2
 476 3 474 0 471 -1 c 0
 448 -7 423 -10 398 -10 c 0
398 4 m 0
 420 4 442 7 462 12 c 1
 462 159 l 1
 443 147 421 140 398 140 c 0
 363 140 334 154 311 180 c 0
 310 181 310 183 310 185 c 2
 310 364 l 2
 310 368 313 372 317 372 c 2
 406 372 l 1
 406 508 l 1
 317 508 l 2
 313 508 310 512 310 516 c 2
 310 754 l 1
 158 754 l 1
 158 516 l 2
 158 512 155 508 151 508 c 2
 62 508 l 1
 62 372 l 1
 152 372 l 2
 156 372 159 368 159 364 c 2
 160 185 l 1
 176 132 206 89 249 55 c 0
 292 21 342 4 398 4 c 0
EndSplineSet
EndChar

StartChar: u
Encoding: 117 117 85
Width: 598
VWidth: 0
Flags: HW
LayerCount: 2
Fore
SplineSet
553 0 m 2
 384 0 l 2
 380 0 376 4 376 8 c 1
 352 2 329 -2 304 -2 c 0
 244 -2 191 16 145 52 c 0
 99 88 68 134 52 191 c 0
 52 192 52 192 52 193 c 2
 48 524 l 2
 48 528 52 532 56 532 c 2
 223 532 l 2
 227 532 230 528 230 524 c 2
 230 197 l 1
 250 175 274 164 304 164 c 0
 333 164 356 175 376 195 c 1
 376 524 l 2
 376 528 380 532 384 532 c 2
 553 532 l 2
 557 532 560 528 560 524 c 2
 560 8 l 2
 560 4 557 0 553 0 c 2
392 16 m 1
 546 16 l 1
 546 516 l 1
 392 516 l 1
 392 192 l 2
 392 190 391 188 390 187 c 0
 367 162 338 150 304 150 c 0
 269 150 240 163 217 189 c 0
 216 190 216 192 216 194 c 2
 216 516 l 1
 64 516 l 1
 66 194 l 1
 82 141 112 98 155 64 c 0
 198 30 248 14 304 14 c 0
 331 14 357 17 382 25 c 0
 383 25 383 26 384 26 c 0
 388 26 392 22 392 18 c 2
 392 16 l 1
EndSplineSet
EndChar

StartChar: v
Encoding: 118 118 86
Width: 652
VWidth: 0
Flags: HW
LayerCount: 2
Fore
SplineSet
55 518 m 2
 207 518 l 2
 210 518 213 516 214 513 c 2
 331 167 l 1
 448 513 l 2
 449 516 452 518 455 518 c 2
 607 518 l 2
 611 518 614 515 614 511 c 0
 614 510 614 509 614 508 c 2
 414 -3 l 2
 413 -6 410 -8 407 -8 c 2
 255 -8 l 2
 252 -8 249 -6 248 -3 c 2
 48 508 l 2
 48 509 48 510 48 511 c 0
 48 515 51 518 55 518 c 2
331 136 m 0
 328 136 325 139 324 142 c 2
 202 504 l 1
 66 504 l 1
 260 8 l 1
 402 8 l 1
 596 504 l 1
 460 504 l 1
 338 142 l 2
 337 139 334 136 331 136 c 0
EndSplineSet
EndChar

StartChar: w
Encoding: 119 119 87
Width: 1044
VWidth: 0
Flags: HW
LayerCount: 2
Fore
SplineSet
451 518 m 2
 603 518 l 2
 606 518 609 516 610 513 c 2
 723 168 l 1
 840 513 l 2
 841 516 844 518 847 518 c 2
 999 518 l 2
 1003 518 1006 515 1006 511 c 0
 1006 510 1006 509 1006 508 c 2
 806 -3 l 2
 805 -6 802 -8 799 -8 c 2
 651 -8 l 2
 648 -8 645 -6 644 -3 c 2
 527 296 l 1
 410 -3 l 2
 409 -6 406 -8 403 -8 c 2
 255 -8 l 2
 252 -8 249 -6 248 -3 c 2
 48 508 l 2
 48 509 48 510 48 511 c 0
 48 515 51 518 55 518 c 2
 203 518 l 2
 206 518 209 516 210 513 c 2
 327 167 l 1
 444 513 l 2
 445 516 448 518 451 518 c 2
327 136 m 0
 324 136 321 139 320 142 c 2
 198 504 l 1
 66 504 l 1
 260 8 l 1
 398 8 l 1
 520 320 l 2
 521 323 524 324 527 324 c 0
 530 324 533 323 534 320 c 2
 656 8 l 1
 794 8 l 1
 988 504 l 1
 852 504 l 1
 730 142 l 2
 729 139 726 136 723 136 c 0
 720 136 717 139 716 142 c 2
 598 504 l 1
 456 504 l 1
 334 142 l 2
 333 139 330 136 327 136 c 0
EndSplineSet
EndChar

StartChar: x
Encoding: 120 120 88
Width: 724
VWidth: 0
Flags: HW
LayerCount: 2
Fore
SplineSet
503 520 m 2
 678 518 l 2
 682 518 686 515 686 511 c 0
 686 509 685 507 684 506 c 2
 468 258 l 1
 685 5 l 2
 686 4 686 2 686 -0 c 0
 686 -4 683 -7 679 -7 c 2
 504 -10 l 2
 502 -10 499 -9 498 -7 c 2
 367 144 l 1
 240 -3 l 2
 239 -5 236 -5 234 -5 c 2
 56 -9 l 2
 52 -9 48 -5 48 -1 c 0
 48 1 49 3 50 4 c 2
 270 256 l 1
 49 508 l 2
 48 509 48 511 48 513 c 0
 48 517 51 520 55 520 c 2
 241 518 l 2
 243 518 246 518 247 516 c 2
 370 371 l 1
 497 517 l 2
 498 519 501 520 503 520 c 2
288 256 m 0
 288 254 287 252 286 251 c 2
 73 7 l 1
 231 9 l 1
 361 160 l 2
 362 162 365 162 367 162 c 0
 369 162 372 162 373 160 c 2
 507 6 l 1
 663 7 l 1
 452 253 l 2
 451 254 450 256 450 258 c 0
 450 260 451 262 452 263 c 2
 662 504 l 1
 506 504 l 1
 376 355 l 2
 375 353 372 352 370 352 c 0
 368 352 365 353 364 355 c 2
 238 504 l 1
 72 505 l 1
 286 261 l 2
 287 260 288 258 288 256 c 0
EndSplineSet
EndChar

StartChar: y
Encoding: 121 121 89
Width: 652
VWidth: 0
Flags: HW
LayerCount: 2
Fore
SplineSet
55 518 m 2
 226 518 l 2
 229 518 232 516 233 513 c 2
 349 169 l 1
 448 513 l 2
 449 516 452 518 455 518 c 2
 640 522 l 2
 644 522 648 518 648 514 c 0
 648 513 647 512 647 511 c 2
 368 -203 l 2
 367 -206 364 -207 361 -207 c 2
 213 -212 l 2
 209 -212 206 -208 206 -204 c 0
 206 -203 206 -203 206 -202 c 2
 274 -0 l 1
 48 508 l 2
 48 509 48 510 48 511 c 0
 48 515 51 518 55 518 c 2
290 0 m 0
 290 -1 289 -1 289 -2 c 2
 224 -196 l 1
 356 -193 l 1
 629 506 l 1
 461 504 l 1
 357 142 l 2
 356 139 353 136 350 136 c 0
 347 136 344 139 343 142 c 2
 221 504 l 1
 67 504 l 1
 289 3 l 2
 289 2 290 1 290 0 c 0
EndSplineSet
EndChar

StartChar: z
Encoding: 122 122 90
Width: 512
VWidth: 0
Flags: HW
LayerCount: 2
Fore
SplineSet
48 10 m 2
 48 162 l 2
 48 164 48 167 50 168 c 2
 277 358 l 1
 55 358 l 2
 51 358 48 362 48 366 c 2
 48 518 l 2
 48 522 51 526 55 526 c 2
 508 526 l 2
 512 526 516 522 516 518 c 2
 516 366 l 2
 516 364 514 362 513 361 c 2
 324 170 l 1
 508 170 l 2
 512 170 516 166 516 162 c 2
 516 10 l 2
 516 6 512 2 508 2 c 2
 55 2 l 2
 51 2 48 6 48 10 c 2
62 18 m 1
 500 18 l 1
 500 154 l 1
 306 154 l 2
 302 154 298 158 298 162 c 0
 298 164 300 166 301 167 c 2
 500 369 l 1
 500 510 l 1
 62 510 l 1
 62 374 l 1
 298 374 l 2
 302 374 306 370 306 366 c 0
 306 364 305 361 303 360 c 2
 62 159 l 1
 62 18 l 1
EndSplineSet
EndChar

StartChar: braceleft
Encoding: 123 123 91
Width: 419
VWidth: 0
Flags: HW
LayerCount: 2
Fore
SplineSet
419 -100 m 0
 387 -100 359 -84 335 -55 c 0
 311 -26 295 12 287 57 c 1
 287 58 l 1
 286 225 l 1
 178 353 l 2
 177 354 176 356 176 358 c 0
 176 360 177 362 178 363 c 2
 286 488 l 1
 287 655 l 1
 287 656 l 1
 295 701 311 739 335 768 c 0
 359 797 387 812 419 812 c 0
 434 812 448 810 459 805 c 0
 462 804 464 801 464 798 c 2
 464 663 l 2
 464 659 460 656 456 656 c 0
 454 656 451 656 450 658 c 0
 440 671 430 676 419 676 c 0
 407 676 396 670 386 652 c 1
 386 470 l 2
 386 468 386 466 385 465 c 2
 306 368 l 1
 385 232 l 2
 386 231 386 229 386 228 c 2
 386 60 l 1
 396 43 406 36 419 36 c 0
 430 36 440 42 450 55 c 0
 451 57 454 58 456 58 c 0
 460 58 464 54 464 50 c 2
 464 -85 l 2
 464 -88 462 -91 459 -92 c 0
 448 -97 434 -100 419 -100 c 0
419 -84 m 0
 431 -84 440 -83 448 -80 c 1
 448 32 l 1
 439 25 430 22 419 22 c 0
 399 22 382 33 371 54 c 0
 370 55 370 57 370 58 c 2
 370 226 l 1
 290 365 l 2
 289 366 290 368 290 369 c 0
 290 371 290 373 291 374 c 2
 371 473 l 1
 370 654 l 2
 370 655 370 657 371 658 c 0
 383 679 399 692 419 692 c 0
 430 692 439 688 448 681 c 1
 448 793 l 1
 440 796 431 798 419 798 c 0
 392 798 368 785 346 758 c 0
 324 731 309 697 301 654 c 1
 300 485 l 2
 300 483 300 481 299 480 c 2
 194 358 l 1
 299 233 l 2
 300 232 300 230 300 228 c 2
 301 59 l 1
 309 16 324 -18 346 -45 c 0
 368 -72 392 -84 419 -84 c 0
EndSplineSet
EndChar

StartChar: bar
Encoding: 124 124 92
Width: 252
VWidth: 0
Flags: HW
LayerCount: 2
Fore
SplineSet
70 878 m 2
 192 878 l 2
 196 878 200 875 200 871 c 2
 200 -99 l 2
 200 -103 196 -106 192 -106 c 2
 70 -106 l 2
 66 -106 62 -103 62 -99 c 2
 62 871 l 2
 62 875 66 878 70 878 c 2
184 864 m 1
 78 864 l 1
 78 -92 l 1
 184 -92 l 1
 184 864 l 1
EndSplineSet
EndChar

StartChar: braceright
Encoding: 125 125 93
Width: 419
VWidth: 0
Flags: HW
LayerCount: 2
Fore
SplineSet
176 -85 m 2
 176 50 l 2
 176 54 180 58 184 58 c 0
 186 58 189 57 190 55 c 0
 200 42 210 36 221 36 c 0
 234 36 244 43 254 60 c 1
 254 228 l 2
 254 229 254 231 255 232 c 2
 334 368 l 1
 255 465 l 2
 254 466 254 468 254 470 c 2
 254 652 l 1
 244 670 233 676 221 676 c 0
 210 676 200 671 190 658 c 0
 189 656 186 656 184 656 c 0
 180 656 176 659 176 663 c 2
 176 798 l 2
 176 801 178 804 181 805 c 0
 192 810 206 812 221 812 c 0
 253 812 281 797 305 768 c 0
 329 739 345 701 353 656 c 1
 353 655 l 1
 354 488 l 1
 462 363 l 2
 463 362 464 360 464 358 c 0
 464 356 463 354 462 353 c 2
 354 225 l 1
 353 58 l 1
 353 57 l 1
 345 12 329 -26 305 -55 c 0
 281 -84 253 -100 221 -100 c 0
 206 -100 192 -97 181 -92 c 0
 178 -91 176 -88 176 -85 c 2
221 -84 m 0
 248 -84 272 -72 294 -45 c 0
 316 -18 331 16 339 59 c 1
 340 228 l 2
 340 230 340 232 341 233 c 2
 446 358 l 1
 341 480 l 2
 340 481 340 483 340 485 c 2
 339 654 l 1
 331 697 316 731 294 758 c 0
 272 785 248 798 221 798 c 0
 209 798 200 796 192 793 c 1
 192 681 l 1
 201 688 210 692 221 692 c 0
 241 692 257 679 269 658 c 0
 270 657 269 655 269 654 c 2
 269 473 l 1
 349 374 l 2
 350 373 350 371 350 369 c 0
 350 368 351 366 350 365 c 2
 270 226 l 1
 270 58 l 2
 270 57 270 55 269 54 c 0
 258 33 241 22 221 22 c 0
 210 22 201 25 192 32 c 1
 192 -80 l 1
 200 -83 209 -84 221 -84 c 0
EndSplineSet
EndChar

StartChar: asciitilde
Encoding: 126 126 94
Width: 644
VWidth: 0
Flags: HW
LayerCount: 2
Fore
SplineSet
562 577 m 2
 562 425 l 2
 562 420 559 417 556 414 c 0
 540 392 523 377 494 358 c 0
 472 344 449 336 426 336 c 2
 326 336 l 2
 302 336 276 347 246 366 c 0
 217 384 192 392 173 392 c 0
 159 392 143 388 124 379 c 0
 105 370 89 361 78 352 c 2
 60 338 l 2
 59 337 57 336 55 336 c 0
 51 336 48 340 48 344 c 2
 48 496 l 2
 48 498 48 501 50 502 c 0
 93 540 133 560 169 560 c 0
 193 560 221 550 253 531 c 0
 284 513 309 504 329 504 c 2
 418 504 l 2
 437 504 457 510 479 523 c 0
 501 536 518 549 529 562 c 0
 535 569 543 575 549 582 c 0
 550 583 552 584 554 584 c 0
 558 584 562 581 562 577 c 2
418 490 m 2
 329 490 l 2
 305 490 277 499 245 518 c 0
 214 536 189 544 169 544 c 0
 139 544 103 528 62 493 c 1
 62 359 l 1
 85 377 133 408 173 408 c 0
 197 408 223 397 253 378 c 0
 282 360 307 352 326 352 c 2
 426 352 l 2
 446 352 466 358 486 371 c 0
 507 384 522 397 532 408 c 0
 540 417 545 425 546 427 c 2
 546 558 l 1
 541 552 l 2
 528 538 510 525 487 511 c 0
 463 497 440 490 418 490 c 2
EndSplineSet
EndChar

StartChar: .notdef
Encoding: 0 0 95
Width: 512
VWidth: 1000
Flags: HW
LayerCount: 2
Fore
SplineSet
512 800 m 2
 512 812 502 822 490 822 c 2
 22 822 l 2
 10 822 0 812 -0 800 c 2
 -0 0 l 2
 -0 -12 10 -22 22 -22 c 2
 490 -22 l 2
 502 -22 512 -12 512 -0 c 2
 512 800 l 2
-5 800 m 2
 -5 815 7 827 22 827 c 2
 490 827 l 2
 505 827 517 815 517 800 c 2
 517 -0 l 2
 517 -15 505 -27 490 -27 c 2
 22 -27 l 2
 7 -27 -5 -15 -5 0 c 2
 -5 800 l 2
463 773 m 1
 49 773 l 1
 49 27 l 1
 463 27 l 1
 463 773 l 1
468 775 m 2
 468 25 l 2
 468 24 466 22 465 22 c 2
 47 22 l 2
 46 22 44 24 44 25 c 2
 44 775 l 2
 44 776 46 778 47 778 c 2
 465 778 l 2
 466 778 468 776 468 775 c 2
356 508 m 0
 356 507 348 422 326 422 c 2
 246 422 l 2
 234 422 224 412 224 400 c 2
 224 212 l 2
 224 200 234 190 246 190 c 0
 258 190 268 200 268 212 c 2
 268 375 l 2
 268 376 270 378 271 378 c 2
 340 378 l 2
 384 378 401 489 401 508 c 0
 401 591 337 660 258 660 c 0
 231 660 150 642 150 604 c 2
 150 570 l 2
 150 558 160 548 172 548 c 0
 184 548 194 558 194 570 c 2
 194 591 l 2
 194 607 250 616 258 616 c 0
 311 616 356 563 356 508 c 0
250 174 m 0
 238 174 228 164 228 152 c 2
 228 108 l 2
 228 96 238 86 250 86 c 0
 262 86 272 96 272 108 c 2
 272 152 l 2
 272 164 262 174 250 174 c 0
250 81 m 0
 235 81 223 93 223 108 c 2
 223 152 l 2
 223 167 235 179 250 179 c 0
 265 179 277 167 277 152 c 2
 277 108 l 2
 277 93 265 81 250 81 c 0
258 611 m 1
 237 611 220 604 199 590 c 1
 199 570 l 2
 199 555 187 543 172 543 c 0
 157 543 145 555 145 570 c 2
 145 604 l 2
 145 645 227 665 258 665 c 0
 340 665 406 594 406 508 c 0
 406 485 387 373 340 373 c 2
 273 373 l 1
 273 212 l 2
 273 197 261 185 246 185 c 0
 231 185 219 197 219 212 c 2
 219 400 l 2
 219 415 231 427 246 427 c 2
 325 427 l 1
 344 459 351 486 351 508 c 0
 351 573 299 594 258 611 c 1
EndSplineSet
EndChar

StartChar: at
Encoding: 64 64 96
Width: 864
VWidth: 0
Flags: HW
LayerCount: 2
Fore
SplineSet
478 428 m 0
 487 428 498 429 498 420 c 2
 498 316 l 2
 498 312 495 310 492 309 c 0
 486 308 482 306 478 306 c 0
 461 306 446 313 434 325 c 0
 422 337 416 351 416 368 c 0
 416 385 422 399 434 411 c 0
 446 423 461 428 478 428 c 0
432 368 m 0
 432 355 436 344 445 335 c 0
 454 326 465 322 478 322 c 0
 479 322 480 322 482 322 c 1
 482 413 l 1
 481 413 480 414 478 414 c 0
 464 414 454 409 445 400 c 0
 436 391 432 381 432 368 c 0
558 236 m 0
 558 240 562 244 566 244 c 0
 570 244 574 240 574 236 c 0
 574 232 570 228 566 228 c 0
 562 228 558 232 558 236 c 0
659 326 m 0
 658 329 656 339 656 342 c 2
 656 343 l 2
 658 356 659 369 659 381 c 0
 659 403 656 424 649 446 c 0
 639 480 621 510 595 536 c 0
 552 578 501 599 441 599 c 0
 376 599 323 577 278 532 c 0
 233 487 210 434 210 370 c 0
 210 309 231 257 274 214 c 0
 308 180 348 160 394 153 c 0
 406 151 418 151 430 151 c 0
 462.664091012 151 494.348436531 157.858218449 525.053035407 172.544430358 c 0
 526.161512016 173.446103421 527.511519811 173.999997595 529 174 c 0
 529.336158536 174 529.665254411 173.97174936 529.98610053 173.917622394 c 0
 531.070221045 173.999999858 532.129772515 174 533 174 c 0
 545 174 557 164 573 148 c 0
 592 128 609 109 625 89 c 2
 648 59 l 2
 649 58 650 56 650 54 c 0
 650 51 648 49 646 48 c 0
 579 3 507 -20 428 -20 c 0
 416 -20 403 -19 391 -18 c 0
 298 -10 219 27 153 93 c 0
 79 167 41 258 41 364 c 0
 41 366 41 369 41 371 c 0
 43 480 83 574 161 652 c 0
 239 730 332 770 441 772 c 0
 443 772 446 772 448 772 c 0
 554 772 645 734 719 660 c 0
 776 603 812 532 826 449 c 0
 830 424 833 399 833 375 c 0
 833 319 822 267 799 217 c 0
 798 216 797 215 796 214 c 0
 781 205 766 198 751 192 c 0
 736 186 719 183 702 182 c 0
 684 181 671 180 658 180 c 0
 633 180 598 190 575 196 c 0
 564 199 500 218 490 221 c 0
 489 221 488 221 487 222 c 2
 475 232 l 1
 438 233 407 245 381 271 c 0
 354 297 340 330 340 368 c 0
 340 405 354 437 381 462 c 0
 408 487 440 500 478 500 c 2
 566 500 l 2
 570 500 573 496 573 492 c 2
 580 319 l 2
 581 313 586 306 594 297 c 0
 602 288 612 282 622 277 c 0
 625 276 627 275 630 275 c 0
 634 275 639 277 644 282 c 0
 651 288 657 303 659 326 c 0
671 342 m 0
 672 338 674 329 674 326 c 2
 674 325 l 2
 672 300 667 281 655 270 c 0
 648 264 639 260 630 260 c 0
 625 260 620 262 615 264 c 0
 603 269 593 277 583 287 c 0
 573 297 568 307 566 317 c 2
 566 318 l 1
 559 484 l 1
 478 484 l 2
 444 484 415 473 391 451 c 0
 367 429 356 401 356 368 c 0
 356 334 367 306 391 282 c 0
 415 258 444 246 478 246 c 0
 480 246 482 246 483 245 c 2
 496 235 l 2
 506 232 568 212 578 210 c 2
 618 201 l 2
 634 197 648 195 658 195 c 0
 671 195 684 196 701 197 c 0
 736 199 761 211 786 225 c 1
 807 272 818 322 818 375 c 0
 818 398 816 422 812 447 c 0
 798 528 764 595 709 650 c 0
 637 722 550 757 448 757 c 0
 338 757 248 719 171 642 c 0
 94 565 56 474 56 364 c 0
 56 262 91 175 163 103 c 0
 226 40 303 5 393 -3 c 0
 405 -4 416 -5 428 -5 c 0
 501 -5 569 16 631 56 c 1
 613 79 l 2
 598 99 581 119 563 138 c 0
 547 154 536 159 533 159 c 2
 532.319823139 159 l 2
 531.684986779 158.590948234 530.98703462 158.29101151 530.24150357 158.131263773 c 0
 498.719944126 142.746329506 464.359972073 135.999999909 430 136 c 0
 417 136 405 137 392 139 c 0
 342 147 300 168 264 204 c 0
 219 250 195 306 195 370 c 0
 195 438 220 494 268 542 c 0
 316 590 373 614 441 614 c 0
 505 614 559 591 605 546 c 0
 632 519 652 487 663 451 c 0
 670 428 674 405 674 381 c 0
 674 368 673 355 671 342 c 0
EndSplineSet
EndChar

StartChar: uniE366
Encoding: 58214 58214 97
Width: 1024
Flags: HW
LayerCount: 2
Fore
SplineSet
705 361.764648438 m 0
 694.378592173 361.764648438 682.5 354.34664742 682.5 344.264648438 c 0
 682.5 341.124044658 684.229423126 337.040038132 688.302172 332.15261482 c 0
 689.085188139 331.212971486 690.1953125 328.944594573 690.1953125 327.474609375 c 0
 690.1953125 326.094821875 689.0751 324.974609375 687.666512396 324.974772198 c 0
 677.582352031 325.08884491 662.388827486 326.415511394 641.942862702 328.941807467 c 0
 621.597594736 331.455092293 606.035084294 332.784289703 595.363090833 332.94070287 c 0
 595.245883345 332.942420712 595.130618331 332.952221389 595.017828817 332.969571874 c 0
 584.989440618 334.512245436 571.842946432 338.658074459 555.39939642 345.373845104 c 0
 552.038613548 346.745928382 548.564531226 349.244190143 544.827079357 352.782977963 c 0
 542.46623332 355.017579364 540.487195463 356.251814198 539.462919637 357.827594826 c 2
 517.738310262 391.249469826 l 2
 517.498396974 391.618560555 517.353226123 392.054794733 517.337384909 392.523585159 c 2
 517.337384909 392.523585159 515.585431784 444.369288284 515.583984375 444.455078125 c 0
 515.583984375 444.714720396 515.623651141 444.965171106 515.697249986 445.200695567 c 2
 522.744124986 467.751476817 l 2
 522.911137515 468.285935427 523.252879681 468.7435329 523.702340803 469.057258558 c 0
 526.795341834 471.216185625 530.862660496 474.647478773 535.810019138 479.312075998 c 0
 543.462324881 486.527905746 546.274295639 489.905273438 558.0234375 489.905273438 c 0
 559.939443461 489.905273438 561.155760139 488.623057412 564.042785667 487.032934892 c 0
 569.916936249 483.79599909 576.004749581 480.364257812 585 480.364257812 c 0
 595.621407827 480.364257812 607.5 487.78225883 607.5 497.864257812 c 0
 607.5 505.920828862 603.155174617 511.241371205 592.887338244 514.250898917 c 0
 591.242515272 514.733000514 589.204094542 516.018943028 585.693491434 518.017254652 c 0
 578.859290551 521.908191239 571.62416091 524.963867188 561 524.963867188 c 0
 531.998089754 524.963867188 517.584127529 517.073318486 501.09905103 501.529617611 c 0
 496.672084542 497.355658483 493.398629316 494.666499331 490.801750041 493.35410655 c 0
 485.592452331 490.721945905 482.526894489 487.245082376 481.130867721 482.777796718 c 2
 471.130919507 450.777962454 l 2
 470.707907543 449.423991089 470.5 448.060217554 470.5 446.6640625 c 0
 470.5 446.507588571 470.502359996 446.35601013 470.507342337 446.201003991 c 2
 472.507342082 387.000816218 l 2
 472.595147763 384.401988944 473.367646036 381.978178888 474.902325956 379.617700416 c 0
 483.59603843 366.260914389 492.261080372 352.875457831 500.972873314 339.536752272 c 0
 501.729236417 338.643803899 504.873173659 335.528578914 510.058830201 330.619207352 c 0
 518.883831324 322.2645859 527.126108867 317.402828325 535.294934111 314.071868053 c 0
 556.413457395 305.460475354 574.410610583 300.189586366 589.194875242 298.215204992 c 0
 590.390590496 298.055497152 591.599569817 297.971986929 592.82291967 297.964797801 c 0
 603.203659454 297.902443048 618.737381667 296.575672107 639.570052199 293.999571647 c 0
 660.299425648 291.43697429 676.111690794 290.10107308 686.893007013 289.97932994 c 0
 690.995568568 289.933003618 695.382589617 289.207694285 700.145344989 289.207694285 c 0
 701.548085345 289.207694285 703.221735735 289.354492188 705.033203125 289.354492188 c 0
 706.065416101 289.354492188 706.952358695 288.72756857 707.333708234 287.834044008 c 2
 713.960661359 272.306700258 l 2
 714.089072247 272.005825941 714.16015625 271.674722962 714.16015625 271.327148438 c 0
 714.16015625 271.251263745 714.15676793 271.176164192 714.150134459 271.101992946 c 0
 713.508666549 263.929507563 713.185546875 255.815584248 713.185546875 246.76953125 c 0
 713.185546875 218.938263425 715.527308967 193.587545767 720.19368791 170.720481274 c 0
 720.226769057 170.558370838 720.244140625 170.390573084 720.244140625 170.21875 c 0
 720.244140625 168.8389625 719.123928125 167.71875 717.744140625 167.71875 c 0
 709.064634032 167.71875 697.492014694 168.250983465 682.855541377 168.250983465 c 0
 670.548546361 168.222339992 658.241555938 168.193691926 645.934570312 168.165039062 c 0
 598.838249851 168.165039062 559.799445807 171.104376803 528.761038578 177.023762023 c 0
 497.56837452 182.972691509 471.289590174 195.565396391 450.086960455 214.821961436 c 0
 449.746808324 215.130188025 449.395663188 215.428050665 449.028512079 215.719319987 c 0
 413.858482293 243.553044457 387.560382835 276.616204015 370.232850987 314.844076699 c 0
 370.002305737 315.352171569 369.742901559 315.85027444 369.451308246 316.343219421 c 0
 363.415475486 326.526628541 358.134499203 340.684156424 353.472463357 358.887546705 c 0
 353.432081103 359.045223298 353.406707249 359.208884033 353.397956894 359.376913808 c 2
 351.537605332 395.100546621 l 2
 351.535331022 395.144219347 351.534179688 395.188187218 351.534179688 395.232421875 c 0
 351.534179688 395.300863917 351.536935958 395.368667277 351.542343461 395.435726916 c 2
 355.378280961 443.006039416 l 2
 355.386289798 443.105358785 355.400114217 443.203046774 355.419412969 443.298762132 c 2
 364.886209844 490.250910569 l 2
 364.922367085 490.430238402 364.977740342 490.602641904 365.050085377 490.765876837 c 0
 370.633376639 503.363675465 381.004554418 519.121074279 387.628361281 530.89342248 c 0
 404.610686489 561.067710025 441.136600376 586.226319635 496.654394936 606.864156433 c 0
 501.412680947 608.605691718 516.820675902 611.37862474 521.785992536 613.036082719 c 0
 522.034676937 613.119095339 522.300702805 613.1640625 522.577148438 613.1640625 c 2
 527.9453125 613.1640625 l 2
 527.991324468 613.1640625 528.037047781 613.162816788 528.082450523 613.160357279 c 0
 547.89601734 612.087037927 590.229365883 608.496712208 655.209279872 602.384433837 c 0
 655.378857928 602.368482626 655.543532249 602.335563037 655.701585169 602.287392732 c 2
 688.435960169 592.310830232 l 2
 688.835629221 592.189021788 689.192958763 591.969695024 689.480175197 591.680623537 c 2
 745.273143947 535.527303224 l 2
 745.429416091 535.370021762 745.564932228 535.192093348 745.675218844 534.9979915 c 2
 762.267015719 505.796819625 l 2
 762.465410678 505.44764917 762.582161564 505.046140621 762.591226493 504.618335865 c 2
 762.591226493 504.618335865 764.454507743 416.683765552 764.455078125 416.629882812 c 0
 764.455078125 416.405945169 764.425570775 416.188844951 764.370235372 415.982261458 c 2
 753.612422872 375.820152083 l 2
 753.549109096 375.583782949 753.451982456 375.361181814 753.326554207 375.157859929 c 0
 747.149274236 365.144356497 740.766913558 355.319790536 734.179499158 345.684292479 c 0
 733.729098764 345.025485873 732.971812227 344.592773438 732.114257812 344.592773438 c 0
 731.147059483 344.592773438 730.307407942 345.143209751 729.891738721 345.947646844 c 0
 729.523581486 346.660134855 727.41536793 349.5147858 723.895061836 353.739024891 c 0
 719.456914694 359.06515106 713.342282783 361.764648438 705 361.764648438 c 0
612.5 497.864257812 m 0
 612.5 484.869298733 598.387356895 475.364257812 585 475.364257812 c 0
 572.985981266 475.364257812 565.518484998 480.779250304 557.495013798 484.876859194 c 0
 553.798240244 484.673812967 550.91787885 484.077259823 548.889194665 483.211971154 c 0
 547.199980307 482.49152147 543.788853012 479.964768494 539.238808987 475.674252127 c 0
 534.526949633 471.231694459 530.561646634 467.836399816 527.266499779 465.456713341 c 2
 520.596978272 444.113505106 l 1
 522.311060175 393.388528406 l 1
 543.46927316 360.8380168 l 2
 544.658764797 359.789015206 546.248019646 358.321295303 548.262764393 356.414287662 c 0
 551.727135441 353.134065066 554.78495416 351.026207034 557.286150455 350.005061146 c 0
 573.430118548 343.411643853 586.264701816 339.399988201 595.61414997 337.937474464 c 0
 606.610063593 337.764437905 622.223679879 336.416203779 642.561043548 333.903895658 c 0
 660.191537204 331.725478187 673.884084267 330.454465546 683.545604179 330.082423578 c 1
 679.679338412 334.993121735 677.500000003 339.683102489 677.5 344.264648438 c 0
 677.5 357.259607517 691.612643105 366.764648438 705 366.764648438 c 0
 714.4949568 366.764648438 722.257929056 363.51297394 727.737750664 356.936756359 c 0
 729.576846468 354.729908379 731.020764936 352.962918155 732.112176044 351.535269254 c 1
 737.859027007 360.031833628 743.447078283 368.675787573 748.87634852 377.467221237 c 2
 759.448051503 416.934528505 l 1
 757.605746845 503.879142193 l 1
 741.490191908 532.24213947 l 1
 686.378470931 587.709812016 l 1
 654.484508608 597.430239197 l 1
 589.7559635 603.517854854 547.511334887 607.09743263 527.876476993 608.1640625 c 2
 522.979717197 608.1640625 l 2
 518.051914781 606.562550674 502.91595489 603.830551123 498.370995689 602.167093567 c 0
 443.314571499 581.700763698 408.037751011 556.962237892 391.988826219 528.44642127 c 0
 385.570386487 517.039067614 375.142954486 501.106015172 369.733563215 488.990759993 c 2
 360.350030947 442.45157618 l 1
 356.539500501 395.196342188 l 1
 358.378108021 359.890252054 l 2
 362.95481407 342.077783929 368.125387262 328.386520535 373.755723004 318.887249329 c 0
 374.137306774 318.242173477 374.482720305 317.580120097 374.788633388 316.905923301 c 0
 391.776205707 279.428066818 417.523028123 247.028335752 452.127737921 219.642008138 c 0
 452.579597229 219.283537877 453.019467717 218.9108276 453.44233642 218.527647939 c 0
 473.905071284 199.943067151 499.270818189 187.738897033 529.701852047 181.935222352 c 0
 560.288444818 176.102003405 599.051724108 173.165039062 645.934570312 173.165039062 c 0
 658.237594181 173.193694414 670.540629712 173.222338102 682.843677373 173.25096966 c 0
 695.75650236 173.25096966 706.363676692 173.112694271 714.675547439 172.834256702 c 1
 710.343894511 195.259309138 708.185546875 219.903498293 708.185546875 246.76953125 c 0
 708.185546875 255.675892388 708.493824846 263.723670358 709.114756 270.921400439 c 2
 703.414906165 284.276486259 l 2
 702.241038583 284.230786015 701.152025942 284.207694285 700.145344989 284.207694285 c 0
 695.368895596 284.207694285 690.861729556 284.489109835 686.699553065 284.981248315 c 0
 675.57841557 285.116359831 659.699861216 286.472584996 638.951432176 289.037537728 c 0
 618.222904791 291.600760185 602.787877004 292.904848619 592.792314705 292.964889699 c 0
 591.356810391 292.973325571 589.934930337 293.071455973 588.527781008 293.259404383 c 0
 573.138500481 295.314583286 554.813942318 300.715537125 533.462814082 309.4183797 c 0
 524.521869435 312.601629776 515.591818102 318.497260024 506.622810424 326.988214523 c 0
 500.645669496 332.646901221 497.652528692 335.443143136 496.706964406 336.898054806 c 2
 470.707049044 376.897924584 l 2
 468.720895631 379.952810695 467.629461612 383.300485014 467.510236043 386.829261907 c 2
 465.510235788 446.029464759 l 2
 465.503499379 446.239041953 465.5 446.453348929 465.5 446.6640625 c 0
 465.5 448.571292863 465.788186207 450.447102661 466.357361743 452.268912546 c 2
 476.357413529 484.269078282 l 2
 478.197063845 490.155959291 482.41991746 494.72141347 488.551765584 497.819721575 c 0
 490.195771726 498.650557961 493.394321708 501.135877975 497.67048022 505.167648014 c 0
 514.779475723 521.299639176 530.752528817 529.963867188 561 529.963867188 c 0
 572.511163131 529.963867188 580.692409418 526.61822989 588.161977316 522.365557848 c 0
 591.311595095 520.572726922 593.500276456 519.41891822 594.438748306 519.007271751 c 0
 605.960049813 515.586740496 612.5 508.399156041 612.5 497.864257812 c 0
504.435546875 710.081054688 m 0
 515.229504458 710.081054688 550.63633899 711.7734375 561.466796875 711.7734375 c 0
 602.1739371 711.7734375 641.843265549 706.952317299 680.462170141 697.309534197 c 0
 719.118556423 687.658047314 750.490786236 673.650057515 774.518721444 655.17846669 c 0
 801.036711008 634.793750197 816.530406998 609.915243485 820.633731138 580.757096851 c 0
 820.711237162 580.206217379 822.121622767 575.494290734 824.72508669 567.834358475 c 0
 832.577967465 544.733108341 836.577148438 527.5636912 836.577148438 515.928710938 c 0
 836.577148438 515.235538989 836.5 512.949041952 836.5 512.264648438 c 0
 836.5 499.589912948 844.951810817 479.558417389 848.444650306 468.761434145 c 0
 848.516456689 468.539467944 848.558038051 468.303958275 848.564532064 468.059767466 c 2
 848.564532064 468.059767466 850.475664876 396.196486216 850.4765625 396.12890625 c 0
 850.4765625 396.042790162 850.472198903 395.957685204 850.463680946 395.873800612 c 0
 845.47145748 346.710529841 839.697462295 299.388854409 833.14132826 253.908362282 c 0
 833.091122142 253.560077921 832.969009155 253.234908867 832.790543204 252.948409025 c 0
 830.129677423 248.676795197 825.641459107 238.982887113 819.583683708 224.210292154 c 0
 809.94790595 200.712380718 801.931166168 184.745356104 795.197511761 176.03710488 c 0
 790.010563469 169.32935217 785.627749238 164.963867188 781 164.963867188 c 0
 777.324596775 164.963867188 773.363541641 165.027831296 769.115111105 165.155441271 c 0
 767.978147914 165.189592198 767.030957628 165.98442952 766.765582321 167.04791116 c 0
 761.032974105 190.021124683 758.185546875 216.590813007 758.185546875 246.76953125 c 0
 758.185546875 256.611498369 758.590444226 265.117436619 759.411746555 272.311620785 c 0
 759.470640404 272.82735477 759.5 273.344487584 759.5 273.864257812 c 0
 759.5 275.744074271 759.129227133 277.5530675 758.36557105 279.342571981 c 2
 749.043305425 301.181439169 l 2
 748.914856343 301.48235126 748.84375 301.813503676 748.84375 302.161132812 c 0
 748.84375 303.020861402 749.278659345 303.779813046 749.940284254 304.229793964 c 0
 758.316212403 309.926386982 765.262308865 316.777190814 770.828015259 324.815352813 c 0
 779.400754696 337.195458205 787.567604316 349.717877311 795.328747087 362.382707244 c 0
 796.106168978 363.651310722 796.667765552 364.953526189 797.030154392 366.307774392 c 2
 809.030172349 411.107646115 l 2
 809.357077318 412.327949353 809.529466298 413.430961668 809.508691862 414.411270521 c 2
 807.496662369 509.355380254 l 2
 807.447002267 511.702647725 806.831510854 513.918066022 805.597232061 516.090893343 c 2
 785.59729973 551.290969565 l 2
 784.86341557 552.582447983 783.939979229 553.792696823 782.806934896 554.932656991 c 2
 720.807005259 617.332976801 l 2
 718.262486596 619.893724741 715.089463325 621.77147657 711.158801145 622.969432615 c 2
 669.158530012 635.769319949 l 2
 667.413200006 636.301440023 665.610181996 636.656689619 663.741917022 636.834591093 c 0
 619.845835833 640.963731543 576.49033678 645.633454127 530.931933003 648.100271988 c 0
 530.291156726 648.142790788 529.64726169 648.1640625 529 648.1640625 c 2
 517 648.1640625 l 2
 513.12262602 648.1640625 509.533201562 647.439135717 506.17369132 645.99433218 c 0
 503.955803997 645.040124843 500.406587755 644.152738228 495.175970156 643.116926554 c 0
 487.700101128 641.636824286 481.747954044 640.075045795 477.357337886 638.468296346 c 0
 411.050709538 613.820370934 367.558548828 582.481999084 346.371646878 544.835107642 c 0
 330.721062155 517.026630481 322.321287464 501.765201799 321.6165482 500.098749379 c 0
 321.237367448 499.203771282 320.956641998 498.297416453 320.770047691 497.372173676 c 2
 310.7703183 447.772931892 l 2
 310.663170676 447.239955309 310.588063028 446.704811345 310.544569198 446.165818183 c 2
 306.54438221 396.562926805 l 2
 306.514842405 396.200790678 306.5 395.83458907 306.5 395.463867188 c 0
 306.5 395.225593424 306.506484062 394.985669759 306.519034431 394.751032439 c 2
 308.519085357 356.349660336 l 2
 308.565268313 355.456240061 308.698214809 354.574212307 308.920015986 353.696963761 c 0
 314.371027798 332.14124829 320.781772437 315.108262515 328.046371248 302.64176586 c 0
 328.087525993 302.571141797 328.125319037 302.498322542 328.159530419 302.42352806 c 0
 347.61397448 259.891336055 376.985321601 222.999532852 416.371410626 191.685381118 c 0
 416.411676305 191.653367643 416.450933576 191.620139134 416.489126766 191.585751263 c 0
 434.732587402 175.159949439 460.554942777 162.582072706 494.069196241 154.017118043 c 0
 527.706830567 145.421114715 561.186298766 139.859896971 594.51096291 137.329664585 c 0
 626.379216744 134.909345795 642.98882778 133.669327778 646.148642632 133.165543068 c 0
 658.382404102 133.193915011 670.616059833 133.222392692 682.849609375 133.250976562 c 0
 698.779675928 133.250976562 712.685718896 132.944279073 724.578360865 132.328646105 c 0
 725.897313728 132.260369361 726.947265625 131.167847432 726.947265625 129.83203125 c 0
 726.947265625 129.690470095 726.935474257 129.55164123 726.912820949 129.416474082 c 0
 722.526891664 103.246628925 694.747864214 84.984375 663.801757812 84.984375 c 0
 657.091190694 84.984375 650.333122402 85.7951782549 643.536310794 87.4083096026 c 0
 641.415639549 87.9118943516 639.240533861 88.1640625 637 88.1640625 c 0
 635.400227899 88.1640625 633.828174212 88.0345124042 632.27918711 87.7755504679 c 0
 612.74271348 84.5064756082 593.740565488 82.869140625 575.2734375 82.869140625 c 0
 462.577778153 82.869140625 382.394086465 144.688782434 330.561251032 216.316918748 c 0
 301.776173396 256.095206923 278.447338822 299.332825732 260.61055775 345.931922972 c 0
 243.201677808 393.819390989 234.121028183 427.335624917 233.50000011 446.914811929 c 0
 233.507836859 473.571513552 234.808335473 498.023236524 237.407607666 520.276069087 c 0
 245.212040829 587.082919206 274.632882223 631.371780275 324.586804987 658.444634504 c 0
 345.683479627 669.878114912 373.45527069 682.413549419 407.944234557 696.087700005 c 0
 420.346887313 701.005163115 429.559507646 704.709653704 435.565562642 707.194067856 c 0
 435.672576359 707.238334249 435.783322731 707.275381007 435.897193119 707.30459949 c 0
 445.330573433 709.725150337 449.66388995 710.9453125 451.313476562 710.9453125 c 0
 451.891509146 710.9453125 454.529686673 710.799415818 455 710.764648438 c 0
 464.139500295 710.764648438 495.259529839 710.081054688 504.435546875 710.081054688 c 0
831.5 512.264648438 m 0
 831.5 512.95819982 831.577148438 515.241562949 831.577148438 515.928710938 c 0
 831.577148438 526.460397342 827.763178369 543.358688534 819.98975706 566.2261884 c 0
 817.321085566 574.077974891 815.931992005 578.283365955 815.682675112 580.055403149 c 0
 811.775582585 607.819131515 797.161856701 631.466666469 771.475419181 651.21215831 c 0
 748.154396055 669.140307069 717.432224827 682.924634978 679.248767359 692.458043928 c 0
 641.027828201 702.001458743 601.7713754 706.7734375 561.466796875 706.7734375 c 0
 550.63180636 706.7734375 515.234847108 705.081054688 504.435546875 705.081054688 c 0
 495.24195517 705.081054688 464.130207836 705.764648438 455 705.764648438 c 0
 454.281818507 705.764648437 452.006566149 705.9453125 451.313476562 705.9453125 c 2
 451.313476562 705.9453125 446.584892781 704.882221176 437.311257917 702.504471988 c 0
 431.259167353 700.002896889 422.08887349 696.316275436 409.784281068 691.43769062 c 0
 375.415172018 677.811059956 347.794384956 665.334775713 326.963976263 654.045599871 c 0
 278.219565393 627.628248502 250.010213029 585.060655777 242.373642334 519.690727788 c 0
 239.801039527 497.666216601 238.507788141 473.405048948 238.49999989 446.913313071 c 0
 239.082096817 428.5615105 247.975405525 395.325140261 265.31131725 347.638389528 c 0
 282.997973678 301.431497184 306.087107854 258.665860786 334.614530218 219.243628127 c 0
 363.094579413 179.886860762 396.260055957 148.932290988 434.136943737 126.303013641 c 0
 477.034402018 100.674108582 524.038107102 87.869140625 575.2734375 87.869140625 c 0
 593.439122012 87.869140625 612.164187562 89.4798525168 631.449328515 92.7068714071 c 0
 633.272737246 93.0117115541 635.124511684 93.1640625 637 93.1640625 c 0
 639.624049473 93.1640625 642.192433368 92.8674025234 644.694157956 92.2733310224 c 0
 651.135627598 90.7445352868 657.501908264 89.984375 663.801757812 89.984375 c 0
 691.24974328 89.984375 716.194692762 105.371602444 721.423360217 127.477149443 c 1
 710.293514951 127.992454702 697.432847476 128.250976562 682.849609375 128.250976562 c 0
 670.546682727 128.222219495 658.243643139 128.193575366 645.940488855 128.165045934 c 0
 644.79975344 128.165045934 628.257698995 129.752071215 594.127708965 132.34416354 c 0
 560.501852276 134.897264487 526.734575683 140.507921743 492.829241259 149.172335082 c 0
 458.833454457 157.860351152 432.253874074 170.687262248 413.203161659 187.817566678 c 0
 373.325539249 219.536323868 343.4456717 257.030137885 323.660999167 300.236526515 c 0
 316.075979636 313.286839672 309.581375321 330.683213619 304.072171514 352.469051864 c 0
 303.771837274 353.656907484 303.589028562 354.865374522 303.525836518 356.087839664 c 2
 301.525887444 394.487248811 l 2
 301.508489896 394.812507324 301.5 395.135734701 301.5 395.463867188 c 0
 301.5 395.970749472 301.520313845 396.47433953 301.56108654 396.97418257 c 2
 305.560899552 446.572463067 l 2
 305.620270305 447.308209488 305.722897032 448.038690524 305.868353575 448.762224358 c 2
 315.868624184 498.364154449 l 2
 316.122134044 499.621203339 316.50416901 500.850916218 317.010404925 502.045781871 c 0
 318.080405244 504.575944034 326.265917012 519.305400769 342.011165622 547.282079858 c 0
 364.070357422 586.478938416 408.775462337 618.309837399 475.617271489 643.156703654 c 0
 480.381603248 644.900214622 486.563570747 646.509660089 494.200982969 648.021745321 c 0
 499.273750786 649.02629823 502.723883503 649.954015782 504.20130868 650.589652195 c 0
 508.195965105 652.307609075 512.481540647 653.1640625 517 653.1640625 c 2
 529 653.1640625 l 2
 529.75898831 653.1640625 530.514832858 653.139110254 531.267285747 653.089181137 c 0
 576.862356268 650.607259754 620.284227645 645.952139228 664.220973603 641.811893282 c 0
 666.413906546 641.603076006 668.548388536 641.183586019 670.616860613 640.552945676 c 2
 712.61658948 627.753223635 l 2
 717.226291883 626.348315096 721.181523821 624.048332551 724.353150991 620.856476324 c 2
 786.353221354 558.456014884 l 2
 787.780072855 557.020454219 788.984891721 555.4501041 789.947622145 553.755905435 c 2
 809.947689814 518.555591032 l 2
 811.561067271 515.715397519 812.427997733 512.65477415 812.495525131 509.462979121 c 2
 814.509834321 414.411294732 l 2
 814.509834321 412.916774137 814.281840683 411.385274732 813.860452651 409.81227576 c 2
 801.860470608 365.012538108 l 2
 801.371296948 363.184494645 800.610627897 361.432673653 799.595081038 359.775495881 c 0
 791.784609226 347.030169564 783.566693221 334.429541795 774.941515991 321.973709687 c 0
 769.401762236 313.973029275 762.554934612 307.063733286 754.44152042 301.272965795 c 1
 762.9664602 281.301959269 l 2
 763.981449951 278.923495 764.5 276.427149687 764.5 273.864257812 c 0
 764.5 273.152257207 764.459698137 272.443478563 764.37926907 271.739160465 c 0
 763.587290149 264.801834214 763.185546875 256.470532881 763.185546875 246.76953125 c 0
 763.185546875 217.721325211 765.857446743 192.160928803 771.166485621 170.099901846 c 0
 774.655742435 170.009147419 777.933930712 169.963867188 781 169.963867188 c 0
 782.249854928 169.963867188 786.012874031 172.332106163 791.239988239 179.09180137 c 0
 797.378729665 187.030685563 805.39584405 202.792176574 814.955378792 226.104160971 c 0
 820.87935621 240.550473877 825.237722039 250.122541866 828.265713745 255.133904963 c 0
 834.77387114 300.335329941 840.509802454 347.365345069 845.473146102 396.223544068 c 1
 843.576037918 467.55946491 l 2
 839.670780874 479.381462867 831.5 498.746931456 831.5 512.264648438 c 0
504.435546875 750.081054688 m 0
 515.699064115 750.081054688 550.203590416 751.7734375 561.466796875 751.7734375 c 0
 608.064803291 751.7734375 653.42913525 746.283634964 697.547270601 735.303150343 c 0
 778.495609181 715.157261573 857.735605495 667.349072176 870.064801754 586.99221797 c 1
 881.024232487 553.79642495 886.57672538 530.241387572 886.576726083 515.882338836 c 2
 886.511753599 512.318133977 l 2
 887.087914182 507.958723181 889.005674586 500.987704888 892.286695128 491.664207159 c 0
 895.656217017 482.090423973 897.426549127 477.012857724 897.735626307 475.961995314 c 0
 898.196272871 474.396843918 898.450376225 472.79319711 898.493242866 471.164264746 c 2
 900.493205214 395.966447128 l 2
 900.497739226 395.799444364 900.5 395.631912827 900.5 395.463867188 c 0
 900.5 394.785794669 900.463451263 394.110425824 900.390539835 393.439189687 c 2
 892.390566275 319.839823668 l 2
 892.372436539 319.67287902 892.352392169 319.509232892 892.329685929 319.343477342 c 2
 882.329669656 245.742771654 l 2
 881.893807009 242.535960905 880.650612557 239.525461282 878.673610103 236.795733448 c 0
 876.924584274 234.380437755 872.863928155 225.791769261 867.104207042 211.74646282 c 0
 856.235304969 185.240197487 846.53261719 166.392834827 837.750224282 155.035123495 c 0
 822.375652817 135.153337801 803.342742119 124.963867188 781 124.963867188 c 0
 779.560316262 124.963867188 778.09859365 124.971654012 776.6148066 124.987219339 c 0
 773.187495268 102.558581688 760.857307556 83.6464947477 739.997480013 68.4758866409 c 0
 718.447697458 52.8034988775 692.979482322 44.984375 663.801757812 44.984375 c 0
 654.554426841 44.984375 645.331910604 45.8561309093 636.139356686 47.5972704761 c 0
 615.44964135 44.4463639403 595.160590084 42.8691425148 575.2734375 42.869140625 c 0
 512.117932843 42.869140625 454.218510825 58.5635413309 401.701907269 89.9391835266 c 0
 319.111182546 139.283269637 256.107723559 220.979973192 212.643817573 334.614459623 c 0
 205.186262625 354.835296233 200.190225214 368.00295085 194.122551264 387.197760207 c 0
 189.08613874 403.130221152 188.017292633 408.589484212 185.455428405 425.392977598 c 0
 184.32854567 432.779869577 183.5 439.799376578 183.5 446.6640625 c 0
 183.5 474.683592242 184.873501315 500.472997286 187.626356427 524.037777232 c 0
 194.981475309 587.000777628 221.895761406 636.418897449 262.337713425 669.462092078 c 0
 273.989068225 678.983060737 288.102129101 687.892770893 304.671910424 696.219656882 c 0
 341.483372064 714.717952063 345.051961439 715.799460997 385.788932518 731.950969914 c 0
 398.799454928 737.109630663 408.386289572 740.971935097 414.527220905 743.528279295 c 0
 416.054731093 744.163383299 417.6394113 744.676212205 419.276273541 745.066746951 c 0
 450.112840059 752.419378625 449.123412901 751.058285272 480.338583525 750.412545495 c 0
 491.061351712 750.191390433 499.101784708 750.081054688 504.435546875 750.081054688 c 0
504.435546875 745.081054688 m 0
 492.479455901 745.081054688 462.722318343 745.709166904 451.40773332 745.942374415 c 0
 447.134559732 745.936902315 436.568874834 744.04887565 420.438570209 740.202784299 c 0
 419.05199495 739.871964879 417.721961615 739.440783367 416.44348222 738.909220705 c 0
 401.448585833 732.667151822 355.861294063 714.61867645 344.909555485 709.892855532 c 0
 336.011304957 706.05249681 323.32817519 699.99842289 306.912073951 691.749093118 c 0
 276.448099028 676.439896153 254.52708636 659.630471098 235.715842326 634.856412293 c 0
 212.200922807 605.008601753 197.785186909 567.905015172 192.592393573 523.452457143 c 0
 189.866082018 500.114893339 188.5 474.516928592 188.5 446.6640625 c 0
 188.5 434.717493183 191.500828215 418.038744935 193.528640038 408.200871698 c 0
 194.996153488 401.080331087 202.299289387 377.800073103 204.368858067 371.778818814 c 0
 206.435576042 365.76953609 214.045960654 345.265133438 217.336651177 336.342571627 c 0
 260.519880607 223.441901808 322.843895579 142.877537655 404.260983356 94.2346445984 c 0
 456.00609855 63.3199222108 512.968004657 47.869140625 575.2734375 47.869140625 c 0
 595.026368219 47.869140625 615.20321316 49.4465044426 635.80523304 52.6048421223 c 0
 635.929563129 52.6239022149 636.056897796 52.6337890625 636.186523438 52.6337890625 c 0
 636.348663878 52.6337890625 636.507219881 52.6183201885 636.660794891 52.5887789944 c 0
 645.691392878 50.8516822601 654.736583564 49.984375 663.801757812 49.984375 c 0
 692.066741636 49.984375 716.416885875 57.5083500808 737.061113737 72.5221602341 c 0
 757.712271017 87.5410099064 769.208842013 105.894220258 771.961940178 127.829545632 c 0
 772.35829078 130.987471321 777.693538028 129.963867188 781 129.963867188 c 0
 801.683299548 129.963867188 819.164711767 139.173485115 833.792744468 158.089876505 c 0
 842.048111977 168.766019339 851.691127323 187.339229596 862.475871083 213.64025593 c 0
 868.304691636 227.854064072 872.148983435 236.309666412 874.621311772 239.723797802 c 0
 876.159934318 241.848236635 877.053458616 244.052580762 877.375408469 246.421290846 c 0
 884.295245071 294.704102965 890.371070163 343.830926594 895.42000704 393.984638438 c 0
 895.473397695 394.476162718 895.517932934 394.969064493 895.504769774 395.463994045 c 2
 893.495038384 471.029094629 l 2
 893.463686275 472.220474765 893.279638587 473.389614415 892.938201818 474.549723436 c 0
 892.745976914 475.203288109 890.910189233 480.511789569 887.568773622 490.005714716 c 0
 884.184524636 499.622551102 882.163570176 506.818677828 881.528461163 511.863877512 c 0
 881.365168367 513.161048144 881.55336216 514.647066637 881.577570792 515.975083039 c 0
 881.577570792 529.166930469 876.184051775 552.531807955 865.250589327 585.622291916 c 0
 865.207346927 585.753166464 865.174631713 585.888812564 865.153448501 586.028225402 c 0
 853.268572131 664.246027897 775.384869837 710.777966465 696.337495024 730.450755907 c 0
 652.617088708 741.332250452 607.664363375 746.7734375 561.466796875 746.7734375 c 0
 550.20429159 746.7734375 515.69957901 745.081054688 504.435546875 745.081054688 c 0
EndSplineSet
EndChar

StartChar: uniE367
Encoding: 58215 58215 98
Width: 1024
Flags: HW
HStem: 296.96 5.54<487.442 492.499>
LayerCount: 2
Fore
SplineSet
468 881.509765625 m 2
 468 884.960144941 470.801290806 887.759765625 474.25 887.759765625 c 0
 477.698709194 887.759765625 480.5 884.960144941 480.5 881.509765625 c 2
 480.5 271.401170304 l 1
 497.451504715 245.973431288 l 2
 497.933936089 245.252237267 498.267369929 244.42662323 498.415144605 243.543222968 c 2
 507.415786147 189.539354936 l 2
 507.470897313 189.205446107 507.5 188.862300751 507.5 188.509765625 c 0
 507.5 185.060479291 504.699286334 182.259765625 501.25 182.259765625 c 0
 498.152363128 182.259765625 495.578094718 184.518500208 495.084851741 187.476330208 c 2
 486.304334234 240.162335982 l 1
 469.04631223 266.049368987 l 2
 468.386063055 267.03974275 468 268.229657252 468 269.509765625 c 2
 468 881.509765625 l 2
473 881.509765625 m 2
 473 269.509765625 l 2
 473 269.254717748 473.07682757 269.016897875 473.209547145 268.817818513 c 2
 490.764234645 242.485787263 l 2
 490.955816628 242.198414288 491.089496199 241.869203223 491.148546697 241.51488073 c 2
 500.016710759 188.302966667 l 2
 500.115264657 187.711968542 500.630839997 187.259765625 501.25 187.259765625 c 0
 501.939385541 187.259765625 502.5 187.820380084 502.5 188.509765625 c 0
 502.5 188.579105499 502.493946437 188.651975768 502.482651353 188.720410689 c 2
 493.483292895 242.716542657 l 2
 493.453333196 242.895642395 493.386376411 243.058309608 493.29263591 243.198443712 c 2
 475.918370519 269.260324524 l 2
 475.654092827 269.65674849 475.5 270.132786719 475.5 270.64453125 c 2
 475.5 881.509765625 l 2
 475.5 882.200011309 474.939962681 882.759765625 474.25 882.759765625 c 0
 473.560037319 882.759765625 473 882.200011309 473 881.509765625 c 2
35.25 176.450195312 m 0
 35.25 177.829982812 36.3702125 178.950195312 37.75 178.950195312 c 0
 39.1297875 178.950195312 40.25 177.829982812 40.25 176.450195312 c 0
 40.25 175.070407813 39.1297875 173.950195312 37.75 173.950195312 c 0
 36.3702125 173.950195312 35.25 175.070407813 35.25 176.450195312 c 0
474.25 902.009765625 m 0
 475.170556147 902.009765625 475.975570525 901.511137734 476.409458643 900.769466442 c 2
 899.409458643 177.70989613 l 2
 899.625909349 177.339903803 899.75 176.909426665 899.75 176.450195312 c 0
 899.75 175.070407813 898.6297875 173.950195312 897.25 173.950195312 c 2
 37.75 173.950195312 l 2
 36.3702125 173.950195312 35.25 175.070407813 35.25 176.450195312 c 0
 35.25 176.921750852 35.3808403523 177.362988141 35.6081666701 177.73955279 c 2
 472.10816667 900.799123103 l 2
 472.546004867 901.524399388 473.34176804 902.009765625 474.25 902.009765625 c 0
474.216218598 894.6165157 m 1
 42.1794104633 178.950195312 l 1
 892.891063594 178.950195312 l 1
 474.216218598 894.6165157 l 1
EndSplineSet
LCarets2: 5 0 0 0 0 0
Ligature2: "Khaanaa-'dlig' Discretionary Ligatures in Latin lookup 0-1" s a m o s a
EndChar

StartChar: uniE368
Encoding: 58216 58216 99
Width: 1024
Flags: HW
LayerCount: 2
Fore
SplineSet
659 388 m 0
 659 396 665 402 673 402 c 0
 681 402 687 396 687 388 c 0
 687 380 681 374 673 374 c 0
 665 374 659 380 659 388 c 0
465 276 m 0
 465 283 472 288 481 288 c 0
 490 288 497 283 497 276 c 0
 497 269 490 264 481 264 c 0
 472 264 465 269 465 276 c 0
423 582 m 0
 423 590 435 595 449 595 c 0
 463 595 475 590 475 582 c 0
 475 574 463 568 449 568 c 0
 435 568 423 574 423 582 c 0
247.5 342 m 0
 247.5 290.379489716 289.379489716 248.5 341 248.5 c 0
 392.620510284 248.5 434.5 290.379489716 434.5 342 c 0
 434.5 393.620510284 392.620510284 435.5 341 435.5 c 0
 289.379489716 435.5 247.5 393.620510284 247.5 342 c 0
242.5 342 m 0
 242.5 396.379489716 286.620510284 440.5 341 440.5 c 0
 353.381409311 440.5 365.230987112 438.212766872 376.149054172 434.037979513 c 1
 347.044074826 451.158783403 327.500000123 482.807180321 327.5 519 c 0
 327.5 573.379489716 371.620510284 617.5 426 617.5 c 0
 480.379489716 617.5 524.5 573.379489716 524.5 519 c 0
 524.5 464.620510284 480.379489716 420.5 426 420.5 c 0
 413.618590689 420.5 401.769012888 422.787233128 390.850945828 426.962020487 c 1
 419.934190526 409.854001855 439.470804792 378.240079556 439.499967827 342.081075241 c 1
 446.33679555 389.79600595 487.401158564 426.5 537 426.5 c 0
 591.379489716 426.5 635.5 382.379489716 635.5 328 c 0
 635.5 273.620510284 591.379489716 229.5 537 229.5 c 0
 482.6475379 229.5 438.54385996 273.576663757 438.500032173 327.918924759 c 1
 431.66320445 280.20399405 390.598841436 243.5 341 243.5 c 0
 286.620510284 243.5 242.5 287.620510284 242.5 342 c 0
443.5 328 m 0
 443.5 276.379489716 485.379489716 234.5 537 234.5 c 0
 588.620510284 234.5 630.5 276.379489716 630.5 328 c 0
 630.5 379.620510284 588.620510284 421.5 537 421.5 c 0
 485.379489716 421.5 443.5 379.620510284 443.5 328 c 0
646.5 342 m 0
 646.5 290.379489716 688.379489716 248.5 740 248.5 c 0
 791.620510284 248.5 833.5 290.379489716 833.5 342 c 0
 833.5 393.620510284 791.620510284 435.5 740 435.5 c 0
 688.379489716 435.5 646.5 393.620510284 646.5 342 c 0
641.5 342 m 0
 641.5 396.379489716 685.620510284 440.5 740 440.5 c 0
 794.379489716 440.5 838.5 396.379489716 838.5 342 c 0
 838.5 287.620510284 794.379489716 243.5 740 243.5 c 0
 685.620510284 243.5 641.5 287.620510284 641.5 342 c 0
530.5 509 m 0
 530.5 457.379489716 572.379489716 415.5 624 415.5 c 0
 675.620510284 415.5 717.5 457.379489716 717.5 509 c 0
 717.5 560.620510284 675.620510284 602.5 624 602.5 c 0
 572.379489716 602.5 530.5 560.620510284 530.5 509 c 0
525.5 509 m 0
 525.5 563.379489716 569.620510284 607.5 624 607.5 c 0
 678.379489716 607.5 722.5 563.379489716 722.5 509 c 0
 722.5 454.620510284 678.379489716 410.5 624 410.5 c 0
 569.620510284 410.5 525.5 454.620510284 525.5 509 c 0
332.5 519 m 0
 332.5 467.379489716 374.379489716 425.5 426 425.5 c 0
 477.620510284 425.5 519.5 467.379489716 519.5 519 c 0
 519.5 570.620510284 477.620510284 612.5 426 612.5 c 0
 374.379489716 612.5 332.5 570.620510284 332.5 519 c 0
EndSplineSet
EndChar

StartChar: uniE369
Encoding: 58217 58217 100
Width: 1080
Flags: HW
LayerCount: 2
Fore
SplineSet
27.6005859375 651.033203125 m 2
 1066.80078125 651.033203125 l 2
 1074.33007812 651.033203125 1080.80078125 644.563476562 1080.80078125 637.033203125 c 2
 1080.80078125 421.033203125 l 2
 1080.80078125 413.502929688 1074.33007812 407.033203125 1066.80078125 407.033203125 c 2
 27.6005859375 407.033203125 l 2
 20.0703125 407.033203125 0 410.302734375 0 417.833007812 c 2
 0 633.833007812 l 2
 0 641.36328125 20.0703125 651.033203125 27.6005859375 651.033203125 c 2
27.6005859375 647.033203125 m 2
 22.330078125 647.033203125 17.6005859375 642.302734375 17.6005859375 637.033203125 c 2
 17.6005859375 421.033203125 l 2
 17.6005859375 415.762695312 22.330078125 411.033203125 27.6005859375 411.033203125 c 2
 1066.80078125 411.033203125 l 2
 1072.0703125 411.033203125 1076.80078125 415.762695312 1076.80078125 421.033203125 c 2
 1076.80078125 637.033203125 l 2
 1076.80078125 642.302734375 1072.0703125 647.033203125 1066.80078125 647.033203125 c 2
 27.6005859375 647.033203125 l 2
EndSplineSet
EndChar

StartChar: uniE36A
Encoding: 58218 58218 101
Width: 1024
Flags: HW
LayerCount: 2
Fore
SplineSet
446.700195312 398 m 4
 446.700195312 453.160857276 493.199931355 497.700195312 550 497.700195312 c 4
 606.800068645 497.700195312 653.299804688 453.160857276 653.299804688 398 c 4
 653.299804688 342.839142724 606.800068645 298.299804688 550 298.299804688 c 4
 493.199931355 298.299804688 446.700195312 342.839142724 446.700195312 398 c 4
451.700195312 398 m 4
 451.700195312 345.760466651 495.800068645 303.299804688 550 303.299804688 c 4
 604.199931355 303.299804688 648.299804688 345.760466651 648.299804688 398 c 4
 648.299804688 450.239533349 604.199931355 492.700195312 550 492.700195312 c 4
 495.800068645 492.700195312 451.700195312 450.239533349 451.700195312 398 c 4
211.5 398 m 4
 211.5 578.460672401 363.699938359 724.5 550 724.5 c 4
 736.300061641 724.5 888.5 578.460672401 888.5 398 c 4
 888.5 217.539327599 736.300061641 71.5 550 71.5 c 4
 363.699938359 71.5 211.5 217.539327599 211.5 398 c 4
216.5 398 m 4
 216.5 220.460672401 366.300061641 76.5 550 76.5 c 4
 733.699938359 76.5 883.5 220.460672401 883.5 398 c 4
 883.5 575.539327599 733.699938359 719.5 550 719.5 c 4
 366.300061641 719.5 216.5 575.539327599 216.5 398 c 4
EndSplineSet
EndChar

StartChar: uniE36B
Encoding: 58219 58219 102
Width: 1024
Flags: HW
LayerCount: 2
Fore
SplineSet
365 492 m 0
 365 484.214944832 370.24673516 479 376 479 c 0
 381.75326484 479 387 484.214944832 387 492 c 0
 387 499.785055168 381.75326484 505 376 505 c 0
 370.24673516 505 365 499.785055168 365 492 c 0
355 492 m 0
 355 504.212491507 363.745152177 515 376 515 c 0
 388.254847823 515 397 504.212491507 397 492 c 0
 397 479.787508493 388.254847823 469 376 469 c 0
 363.745152177 469 355 479.787508493 355 492 c 0
77.5400390625 534.5 m 0
 77.1997750062 534.5 77.3574750913 534.528119007 76.8053746532 534.528119007 c 0
 74.7882158101 534.528119007 70.9815902276 534.197719398 70.9815902276 529.251937603 c 0
 70.9815902276 528.452697564 71.0813743433 527.491406124 71.3217942277 526.358408606 c 2
 106.363593384 493.290795317 l 1
 128.397660296 473.876184147 l 2
 128.913635166 473.421549444 129.240872872 472.757628068 129.246031842 472.017761594 c 0
 129.246031842 471.907160193 129.250985294 471.796474588 129.258498693 471.685743829 c 2
 139.715073928 461.818271423 l 2
 139.825131521 461.714414258 139.927173922 461.597417143 140.019733699 461.470742268 c 0
 140.344683695 461.490151485 140.671534917 461.499999767 141 461.5 c 2
 887.936632612 461.5 l 2
 889.457518315 462.86611019 890.303341419 464.827159989 890.303341419 467.049388625 c 0
 890.303341419 468.261638035 890.045044984 469.605723307 889.443068828 471.026373499 c 2
 855.324250841 551.546016803 l 1
 848.087282073 551.746701759 818.167825596 552.55060748 803.273623557 552.55060748 c 0
 801.204688957 552.55060748 799.428744888 552.534936462 798.063566243 552.500794063 c 2
 798.063566243 552.500794063 77.6035408657 534.5 77.5400390625 534.5 c 0
376 510 m 1
 384.99532167 510 392 502.001455512 392 492 c 1
 392 502.000997813 384.996565667 510 376 510 c 1
376 510 m 1
 367.003434333 510 360 502.000997813 360 492 c 1
 360 502.001455512 367.00467833 510 376 510 c 1
392 492 m 1
 392 481.998544488 384.99532167 474 376 474 c 1
 384.996565667 474 392 481.999002187 392 492 c 1
360 492 m 1
 360 481.999002187 367.003434333 474 376 474 c 1
 367.00467833 474 360 481.998544488 360 492 c 1
66.5763230459 523.963086362 m 2
 65.8704328957 524.629208053 l 2
 65.5961729036 524.651533957 65.232387635 524.669518997 64.772085519 524.669518997 c 0
 61.3062833336 524.669518997 54.5 523.886968895 54.5 512 c 2
 50.4976603951 224.814378006 l 2
 50.4976603951 218.342701929 56.4425747802 212.5 63 212.5 c 2
 126 212.5 l 2
 126.408194462 212.5 126.729561953 212.527856304 126.964391556 212.561091822 c 1
 126.256092377 215.150568502 124.829684218 217.708128535 124.046174279 220.787561435 c 0
 123.690186578 222.144283665 123.499999761 223.556558476 123.5 225 c 2
 123.5 442 l 1
 123.5 444 l 2
 123.5 450.368965388 127.202711163 456.131153168 132.513304882 459.191734734 c 1
 128.683674902 461.677716245 125.577912651 465.080089412 124.582027306 469.225309102 c 2
 102.995968847 489.595251591 l 1
 68.3484334543 520.123815853 l 2
 67.4951386143 520.875669226 66.935767212 522.369423542 66.5763230459 523.963086362 c 2
65.9873071814 529.667694224 m 0
 66.2362298091 538.635022637 74.5421289312 539.528119007 76.8053746532 539.528119007 c 0
 77.1630970288 539.528119007 77.4385401104 539.514337889 77.6092249644 539.502522623 c 2
 797.936433757 557.499205937 l 2
 799.370659274 557.535075162 801.178258769 557.55060748 803.273623557 557.55060748 c 0
 820.438073447 557.55060748 857.059022773 556.499353218 857.072845243 556.498956877 c 0
 858.076066495 556.470190832 858.93202197 555.849185124 859.303024922 554.973626501 c 2
 894.049118672 472.973626501 l 2
 894.891381034 470.985906264 895.303341419 468.985029051 895.303341419 467.049388625 c 0
 895.303341419 464.65026664 894.661496661 462.434599915 893.519645061 460.554041487 c 1
 900.366718178 458.156898768 905.5 451.499054763 905.5 444 c 2
 905.5 225 l 2
 905.5 215.587347531 897.412652469 207.5 888 207.5 c 2
 141 207.5 l 2
 137.619523912 207.5 134.409989321 208.54312846 131.684634944 210.316146664 c 1
 130.781828772 208.34681927 128.369810975 207.5 126 207.5 c 2
 63 207.5 l 2
 53.6813217356 207.5 45.3665661788 215.444462502 45.4971655077 224.814384905 c 2
 49.5 512 l 2
 49.5 527.16437016 59.8819589053 529.669518997 64.772085519 529.669518997 c 0
 65.2435355977 529.669518997 65.6431187503 529.667694224 65.9873071814 529.667694224 c 0
889.351573426 456.417349774 m 0
 887.327618655 455.198003946 884.890702963 454.5 882.206054688 454.5 c 2
 147.206054688 454.5 l 2
 144.635114625 454.5 141.556810685 455.094666937 138.502046184 456.217525268 c 0
 138.469008806 456.210033512 138.436008199 456.202398919 138.403045104 456.194622214 c 0
 137.998733541 455.918009946 137.610857931 455.676911178 137.313785444 455.424631877 c 0
 133.693317529 452.350065436 128.5 447.62747183 128.5 442 c 2
 128.5 225 l 2
 128.5 223.185349211 129.100483566 221.424682458 129.807904381 219.676306493 c 0
 131.908941242 215.533836837 136.281374452 212.499999984 141 212.5 c 2
 888 212.5 l 2
 894.587347531 212.5 900.5 218.412652469 900.5 225 c 2
 900.5 444 l 2
 900.5 450.133041214 895.374774637 455.681240977 889.351573426 456.417349774 c 0
EndSplineSet
EndChar

StartChar: uniE36C
Encoding: 58220 58220 103
Width: 1024
Flags: HW
LayerCount: 2
Fore
SplineSet
728 609 m 1
 737 612 l 0
 743 612 l 0
 748.912109375 612 761 603.719726562 761 597 c 0
 761 566.385742188 746.237304688 533.076171875 734 510 c 0
 722.431640625 488.185546875 721.561523438 464.09765625 710 444 c 0
 690.71875 404.78515625 684.118164062 362.13671875 650 330 c 0
 636.421875 317.458007812 624.388671875 300.372070312 608 300 c 0
 594.46484375 300 580.758789062 297.701171875 569 300 c 0
 526.556640625 308.298828125 431.94140625 296.130859375 443 360 c 0
 437.873046875 428.150390625 498.224609375 468.7109375 563 471 c 0
 620.809570312 486.036132812 703.426757813 486.657226562 719 561 c 0
 722.311287096 576.80725859 731.444335938 590.391601562 728 609 c 1
573.688155863 245.498656022 m 0
 521.893276404 245.245960893 471.495215338 228.425464981 419.962780782 228.425464981 c 0
 405.239203975 228.425464981 390.472781512 229.84576628 375.633451477 233.514682951 c 0
 319.083809586 236.268212486 270.12502992 263.676482492 224.827756279 287.791704502 c 0
 219.860330459 290.436247248 213.281477853 293.562118967 205.872549207 297.08027762 c 0
 173.22754524 312.581885028 121.5 336.19278782 121.5 365 c 0
 121.5 386.91683506 152.527480406 381.938616591 167.491475872 388.074457631 c 1
 187.112971519 410.639177625 l 2
 187.198323163 410.737332015 187.291199078 410.828773319 187.390697182 410.912599454 c 0
 207.801897542 428.108826993 239.073967697 443.332837536 266.452475188 443.332837536 c 0
 280.166197364 443.332837536 293.040481211 439.444179226 302.762807478 429.77202123 c 0
 305.92579252 426.625357538 310.041221177 425.324605503 315.241886205 425.324605503 c 0
 323.972574799 425.324605503 335.340762967 429.23686839 347.227340955 433.421742093 c 0
 359.860941671 437.869617964 373.09204741 442.606543092 385.090246746 442.606543092 c 0
 388.229310579 442.606543092 391.259331939 442.265779931 394.431228869 442.265779931 c 0
 424.288711424 442.265779931 456.769322377 455.494006744 487.693094657 455.494006744 c 0
 492.518373764 455.494006744 497.340612558 455.19559527 502.141544969 454.505882781 c 0
 503.199623449 454.538801707 504.251618205 454.554823392 505.297769809 454.554823469 c 0
 541.300732423 454.554823469 570.004152649 435.908217951 604.178416488 433.493718841 c 0
 624.000881364 432.09321102 643.494965432 421.5 664 421.5 c 0
 666.61444211 421.5 669.331497011 420.980401857 672.238199297 420.980401857 c 0
 676.55423858 420.980401857 680.985201095 421.253128238 685.388615664 421.253128238 c 0
 691.461816132 421.253128238 697.789538822 420.769068028 703.924383016 418.323271345 c 0
 715.846227393 413.57035399 733.553043856 409.553704372 747.716251748 409.500531753 c 0
 750.102929852 410.040061558 754.765278469 410.33679204 754.960540607 410.334671297 c 0
 772.815752691 410.334671297 785.105376614 394.213230178 796.394681066 383.177152467 c 0
 805.014561762 374.75062153 813.5 366.591569121 813.5 353 c 0
 813.5 333.693596619 783.140007109 317.5 769 317.5 c 2
 748.224022372 317.5 l 1
 720.873867467 312.57027687 700.426923557 296.257737949 679.941001943 279.833915751 c 0
 656.56605262 261.093923535 633.03567829 242.115484135 599.264875052 242.115484135 c 0
 591.311973251 242.115484135 582.827068343 243.169572036 573.688155863 245.498656022 c 0
685.388615664 416.253128238 m 0
 681.029321763 416.253128238 676.602890309 415.980401857 672.238199297 415.980401857 c 0
 656.43237041 415.980401857 643.489636454 418.988642381 630.02526412 422.849036947 c 0
 621.014085127 425.432648614 612.313186553 427.906327694 603.821583512 428.506281159 c 0
 569.456947366 430.934230559 540.577409962 449.554823469 505.297769809 449.554823469 c 0
 504.23284267 449.554823469 503.161979601 449.537353695 502 449.5 c 0
 501.876313751 449.5 501.754713344 449.509001582 501.635818715 449.526384808 c 0
 497.031275592 450.199601223 492.379633305 450.494006744 487.693094657 450.494006744 c 0
 457.117826352 450.494006744 424.626874277 437.265779931 394.431228869 437.265779931 c 0
 391.27618544 437.265779931 388.226321761 437.606543092 385.090246746 437.606543092 c 0
 364.324314921 437.606543092 336.062947321 420.324605503 315.241886205 420.324605503 c 0
 309.198436426 420.324605503 303.571239642 421.916295809 299.237192522 426.22797877 c 0
 290.671798962 434.749173958 279.242887762 438.332837536 266.452475188 438.332837536 c 0
 240.893710651 438.332837536 210.451584107 423.748589045 190.758087011 407.212539684 c 1
 170.887028481 384.360822375 l 2
 170.648152748 384.086115282 170.350340462 383.863990847 170.013367078 383.714224524 c 0
 156.399421517 377.663566925 126.5 381.110767582 126.5 365 c 0
 126.5 341.258454696 174.129307939 317.689368388 208.012783994 301.599667681 c 0
 218.291772466 296.71864993 224.771312889 293.491654269 233.048943358 289.07503047 c 0
 277.064070936 265.590258984 323.283968562 241.00237834 376.120151295 238.497157564 c 0
 376.286468697 238.489271646 376.448552629 238.465101759 376.60484251 238.426208486 c 0
 391.065501529 234.827623896 405.488962983 233.425464981 419.962780782 233.425464981 c 0
 471.290049199 233.425464981 521.841206776 250.3126213 573.990844732 250.499983556 c 0
 574.215649764 250.499983556 574.424958839 250.472636353 574.624641505 250.42119478 c 0
 583.51562904 248.130728643 591.677529511 247.115484135 599.264875052 247.115484135 c 0
 630.996061158 247.115484135 653.32158543 264.900298034 676.816969392 283.736844221 c 0
 697.297556515 300.156389691 718.59433762 317.310743965 747.560101308 322.46135152 c 0
 747.702925231 322.486748053 747.849927249 322.5 748 322.5 c 2
 769 322.5 l 2
 781.51177003 322.5 808.5 338.429324494 808.5 353 c 0
 808.5 366.733958515 796.130367527 376.151468151 786.918369526 385.575779963 c 0
 776.640176987 396.090859463 767.332234145 405.334671297 754.960540607 405.334671297 c 0
 752.79051352 405.334671297 750.4067159 404.5 748 404.5 c 0
 732.896005392 404.5 714.702852541 408.642590889 702.075616984 413.676728655 c 0
 696.835360992 415.765877184 691.199346973 416.253128238 685.388615664 416.253128238 c 0
EndSplineSet
EndChar

StartChar: uniE36D
Encoding: 58221 58221 104
Width: 1024
Flags: HW
LayerCount: 2
Fore
SplineSet
614.010742188 509.2578125 m 0
 323 531.2890625 l 1
 372 557.64453125 l 1
 321 602 l 1
 358.689453125 592.29296875 358.177734375 589.192382812 402.202148438 589.192382812 c 0
 614.010742188 579.96875 l 0
 642.329101562 579.96875 671.037109375 574.18359375 687.55859375 557.661132812 c 2
 722.9140625 522.306640625 l 2
 745.246964553 499.974355435 746.020943904 447.228182206 724.419921875 423.323242188 c 0
 691.798273782 387.222240117 636.840421833 378.3122542 586.518608371 363.758578862 c 1
 528 391 l 1
 567 403 l 1
 539 431 l 1
 554.666666667 431 570.342678923 431.54105559 586 431 c 0
 643.427858272 429.015518517 692.055334394 434.350934481 665.3984375 502.305664062 c 1
 650.484375 508.0078125 631.671875 509.2578125 614.010742188 509.2578125 c 0
EndSplineSet
EndChar

